<svg width="512" height="512" viewBox="0 0 512 512" fill="none" xmlns="http://www.w3.org/2000/svg">
<path fill-rule="evenodd" clip-rule="evenodd" d="M51.2499 399.229V214.416C51.2499 175.213 60.4378 146.742 78.8112 129.007C97.1847 111.273 125.093 102.406 162.533 102.406H238.499V152.811H178.133C154.213 152.811 137.225 159.155 127.171 171.85C117.118 184.544 112.092 204.518 112.092 231.773V399.229H51.2499ZM275.21 399.229C229.449 399.229 206.567 368.426 206.567 306.822C206.567 278.073 212.287 255.483 223.727 239.056C235.167 222.627 252.329 214.416 275.21 214.416H400.006V195.372C400.006 166.997 387.181 152.811 361.53 152.811H281.117V102.406H383.37C408.675 102.406 427.917 110.435 441.088 126.49C454.262 142.544 460.851 163.636 460.851 189.772V348.822C460.851 382.426 445.248 399.229 414.048 399.229H275.21ZM298.606 348.822H384.406C394.806 348.822 400.006 343.222 400.006 332.022V264.816H298.606C279.192 264.816 269.485 278.82 269.485 306.822C269.485 334.826 279.192 348.822 298.606 348.822Z" fill="#202020"/>
</svg>