<svg width="209" height="208" viewBox="0 0 209 208" fill="none" xmlns="http://www.w3.org/2000/svg">
<rect y="0.96875" width="208.635" height="206.903" fill="white"/>
<mask id="mask0_2471_7535" style="mask-type:alpha" maskUnits="userSpaceOnUse" x="41" y="43" width="126" height="102">
<path fill-rule="evenodd" clip-rule="evenodd" d="M41.9946 43.0508H166.767V144.211H41.9946V43.0508Z" fill="white"/>
</mask>
<g mask="url(#mask0_2471_7535)">
<path fill-rule="evenodd" clip-rule="evenodd" d="M56.6046 140.454C52.8969 132.465 50.8259 123.553 50.8259 114.154C50.8259 79.7934 78.5032 51.9388 112.645 51.9388C131.656 51.9388 148.661 60.5755 160.002 74.1624L166.767 68.4494C153.807 52.9214 134.372 43.0508 112.645 43.0508C73.6259 43.0508 41.9946 74.8848 41.9946 114.154C41.9946 124.896 44.3614 135.081 48.5989 144.211L56.6046 140.454Z" fill="black"/>
</g>
<path fill-rule="evenodd" clip-rule="evenodd" d="M112.645 156.372C89.4776 156.372 70.6966 137.47 70.6966 114.154C70.6966 90.8382 89.4776 71.9367 112.645 71.9367C125.545 71.9367 137.083 77.7989 144.778 87.0186L151.545 81.3041C142.23 70.1434 128.261 63.0488 112.645 63.0488C84.6002 63.0488 61.8652 85.9295 61.8652 114.154C61.8652 142.379 84.6002 165.26 112.645 165.26V156.372Z" fill="black"/>
<path fill-rule="evenodd" clip-rule="evenodd" d="M127.866 127.007C124.221 131.374 118.756 134.151 112.645 134.151C101.671 134.151 92.7746 125.197 92.7746 114.153C92.7746 103.108 101.671 94.1551 112.645 94.1551C118.756 94.1551 124.221 96.932 127.866 101.299L135.476 94.8723C130.009 88.3215 121.811 84.1562 112.645 84.1562C96.1838 84.1562 82.8394 97.5862 82.8394 114.153C82.8394 130.72 96.1838 144.15 112.645 144.15C121.045 144.15 128.631 140.65 134.048 135.023L127.866 127.007Z" fill="black"/>
</svg>
