<svg width="83" height="86" viewBox="0 0 83 86" fill="none" xmlns="http://www.w3.org/2000/svg">
<path d="M41.57 32.0046V31.6714H41.565L41.8585 0L13.8582 43.157L13.0125 44.4653L13.7338 44.5846L40.7443 49.0963L41.1671 49.166L41.6496 49.0317L68.0631 41.5453L41.57 32.0046ZM28.2787 22.4142L40.3811 32.1787L14.7486 43.2665L28.2787 22.4142ZM40.7443 48.2806L15.0968 43.9977L40.7492 32.905V48.2806H40.7443ZM40.7592 31.4475L28.7214 21.7327L41.0278 2.76571L40.7592 31.4475ZM41.5501 48.2209L41.57 32.8602L65.4267 41.4558L41.5501 48.2209Z" fill="#3441C0"/>
<path d="M65.4268 41.4558L41.5502 48.2208L41.5701 32.8602L65.4268 41.4558Z" fill="#B7FAF4"/>
<path d="M40.7494 32.9049L40.7444 48.2805L15.0969 43.9976L40.7494 32.9049Z" fill="#C7B1F4"/>
<path d="M40.3812 32.1788L14.7486 43.2665L28.2787 22.4142L40.3812 32.1788Z" fill="#86A8EF"/>
<path d="M41.0278 2.76569L40.7592 31.4475L28.7214 21.7327L41.0278 2.76569Z" fill="#EDCABF"/>
<path d="M69.5306 44.4205L41.2566 53.0559L40.804 53.1951V54.4039L40.7393 85.8813L57.1197 62.1489L57.3286 61.8405L57.5724 61.4873H57.5674L69.5256 44.4205H69.5306ZM41.5501 83.2897L41.6098 54.19L56.4183 61.746L41.5501 83.2897ZM56.871 61.0794L42.2167 53.608L67.6204 45.8481L56.871 61.0794Z" fill="#3441C0"/>
<path d="M56.4184 61.746L41.5502 83.2897L41.6099 54.19L56.4184 61.746Z" fill="#EDCABF"/>
<path d="M67.6203 45.8481L56.8708 61.0794L42.2166 53.608L67.6203 45.8481Z" fill="#C7B1F4"/>
</svg>