<svg width="395" height="395" viewBox="0 0 395 395" fill="none" xmlns="http://www.w3.org/2000/svg">
<path d="M176.52 277.009C184.375 285.492 188.738 296.627 188.738 308.188V355.2L125.833 292.436L154.123 253.196L176.52 277.009Z" fill="#155EEF" style="fill:#155EEF;fill-opacity:1;"/>
<path d="M109.162 306.102L59.2571 304.825L96.6385 355.2H188.738L109.162 306.102Z" fill="#155EEF" style="fill:#155EEF;fill-opacity:1;"/>
<path d="M154.123 225.035L95.2411 280.982L94.62 197.47L154.123 168.816V225.035Z" fill="#155EEF" style="fill:#155EEF;fill-opacity:1;"/>
<path d="M28.9354 253.196L95.2411 280.982L57.0442 215.213L1.5166 196.311L28.9354 253.196Z" fill="#155EEF" style="fill:#155EEF;fill-opacity:1;"/>
<path d="M71.4838 122.115L66.9459 197.47L21.7526 135.603L46.3742 78.297L71.4838 122.115Z" fill="#155EEF" style="fill:#155EEF;fill-opacity:1;"/>
<path d="M154.123 149.919L66.9459 197.47L94.9748 135.603H154.123V149.919Z" fill="#155EEF" style="fill:#155EEF;fill-opacity:1;"/>
<path d="M174.041 95.4163V40.3438L96.6385 72.2461L94.62 117.918L174.041 95.4163Z" fill="#155EEF" style="fill:#155EEF;fill-opacity:1;"/>
<path d="M219.996 277.634C212.142 286.117 207.778 297.252 207.778 308.813V355.825L270.683 293.061L242.394 253.821L219.996 277.634Z" fill="#155EEF" style="fill:#155EEF;fill-opacity:1;"/>
<path d="M287.355 306.727L337.259 305.45L299.878 355.825H207.778L287.355 306.727Z" fill="#155EEF" style="fill:#155EEF;fill-opacity:1;"/>
<path d="M242.394 225.66L301.276 281.607L301.897 198.095L242.394 169.441V225.66Z" fill="#155EEF" style="fill:#155EEF;fill-opacity:1;"/>
<path d="M367.581 253.821L301.276 281.607L339.472 215.838L395 196.936L367.581 253.821Z" fill="#155EEF" style="fill:#155EEF;fill-opacity:1;"/>
<path d="M325.033 122.74L329.571 198.095L374.764 136.228L350.142 78.922L325.033 122.74Z" fill="#155EEF" style="fill:#155EEF;fill-opacity:1;"/>
<path d="M242.394 150.544L329.571 198.095L301.542 136.228H242.394V150.544Z" fill="#155EEF" style="fill:#155EEF;fill-opacity:1;"/>
<path d="M222.476 96.0413V40.9688L299.878 72.8711L301.897 118.543L222.476 96.0413Z" fill="#155EEF" style="fill:#155EEF;fill-opacity:1;"/>
</svg>
