<svg width="1000" height="1000" viewBox="0 0 1000 1000" fill="none" xmlns="http://www.w3.org/2000/svg">
<circle cx="500" cy="500" r="500" fill="black"/>
<path fill-rule="evenodd" clip-rule="evenodd" d="M596.992 518.619L744.364 670.51C746.133 672.308 747.542 674.447 748.509 676.806C749.476 679.165 749.982 681.697 750 684.258C750.017 686.819 749.544 689.358 748.609 691.73C747.674 694.103 746.294 696.262 744.549 698.085L733.736 709.192C730.698 712.474 726.683 714.617 722.328 715.281C719.453 715.677 716.528 715.381 713.782 714.418C711.036 713.455 708.543 711.849 706.499 709.728L526.539 524.249C523.41 521.03 520.927 517.206 519.234 512.997C517.54 508.788 516.668 504.275 516.668 499.719C516.668 495.162 517.54 490.65 519.234 486.441C520.927 482.231 523.41 478.408 526.539 475.189L706.499 289.709C708.252 287.9 710.334 286.464 712.626 285.484C714.919 284.504 717.376 284 719.857 284C722.339 284 724.796 284.504 727.088 285.484C729.38 286.464 731.463 287.9 733.216 289.709L744.364 301.39C746.12 303.197 747.513 305.344 748.463 307.706C749.414 310.069 749.903 312.601 749.903 315.159C749.903 317.716 749.414 320.249 748.463 322.611C747.513 324.974 746.12 327.12 744.364 328.927L596.992 480.857C592.158 485.878 589.446 492.665 589.446 499.738C589.446 506.811 592.158 513.597 596.992 518.619ZM403.002 481.018L255.687 329.086C253.899 327.287 252.476 325.139 251.5 322.768C250.524 320.397 250.014 317.849 250 315.273C249.986 312.697 250.469 310.144 251.42 307.762C252.37 305.38 253.77 303.216 255.539 301.396L266.31 290.251C269.378 286.99 273.395 284.851 277.751 284.162C280.625 283.778 283.546 284.079 286.289 285.042C289.032 286.005 291.525 287.603 293.574 289.715L473.465 475.197C476.593 478.416 479.074 482.24 480.767 486.449C482.46 490.658 483.332 495.17 483.332 499.727C483.332 504.284 482.46 508.796 480.767 513.005C479.074 517.214 476.593 521.038 473.465 524.257L293.574 709.739C291.819 711.55 289.734 712.987 287.44 713.967C285.145 714.947 282.686 715.452 280.202 715.452C277.719 715.452 275.26 714.947 272.965 713.967C270.671 712.987 268.586 711.55 266.83 709.739L255.687 698.249C253.93 696.439 252.537 694.289 251.586 691.924C250.636 689.558 250.146 687.022 250.146 684.461C250.146 681.901 250.636 679.365 251.586 676.999C252.537 674.634 253.93 672.484 255.687 670.674L403.002 518.781C407.833 513.759 410.544 506.972 410.544 499.899C410.544 492.826 407.833 486.039 403.002 481.018Z" fill="white"/>
</svg>
