<svg width="385" height="385" viewBox="972 290 385 385" fill="none" xmlns="http://www.w3.org/2000/svg">
  <path d="M1219.46 482.805C1219.44 468.181 1213.62 454.161 1203.27 443.821C1192.92 433.48 1178.88 427.664 1164.25 427.648C1159.16 427.649 1154.1 428.355 1149.21 429.743C1137.49 433.09 1127.2 440.208 1119.94 449.993C1112.85 459.468 1109.02 470.978 1109.02 482.805C1109.04 497.432 1114.86 511.456 1125.22 521.798C1135.57 532.141 1149.61 537.959 1164.25 537.975C1168.93 537.96 1173.59 537.35 1178.12 536.16L1198.76 566.73L1228.43 547.004L1207.87 516.543C1215.39 506.902 1219.47 495.027 1219.46 482.805Z" fill="#E22901"/>
  <path d="M1164.34 300.548C1115.94 300.548 1069.52 319.758 1035.29 353.951C1001.07 388.145 981.837 434.522 981.837 482.879C981.837 531.236 1001.07 577.613 1035.29 611.806C1052.24 628.737 1072.36 642.168 1094.5 651.331C1116.64 660.494 1140.38 665.21 1164.34 665.21C1212.75 665.21 1259.17 646 1293.39 611.806C1327.62 577.613 1346.85 531.236 1346.85 482.879C1346.85 434.522 1327.62 388.145 1293.39 353.951C1259.17 319.758 1212.75 300.548 1164.34 300.548ZM1248.65 576.986L1219.18 596.848L1198.75 566.605C1187.83 571.084 1176.15 573.384 1164.34 573.376C1140.31 573.376 1117.27 563.843 1100.27 546.873C1083.28 529.903 1073.72 506.885 1073.71 482.879C1073.69 459.247 1082.95 436.551 1099.5 419.671C1107.86 411.108 1117.82 404.279 1128.83 399.578C1140.06 394.8 1152.14 392.343 1164.34 392.358C1188.38 392.358 1211.43 401.894 1228.42 418.869C1245.42 435.844 1254.97 458.869 1254.98 482.879C1254.99 494.789 1252.65 506.585 1248.08 517.586C1243.51 528.586 1236.81 538.575 1228.35 546.974L1248.65 576.986Z" fill="#E22901"/>
</svg>
