<svg width="1320" height="1320" viewBox="0 0 1320 1320" fill="none" xmlns="http://www.w3.org/2000/svg">
<g clip-path="url(#clip0_352_2)">
<path fill-rule="evenodd" clip-rule="evenodd" d="M660 524.356L200.373 864.471C186.834 854.801 178 838.905 178 820.934V527.446C178 497.976 201.758 474.084 231.064 474.084H461.009V367.361C461.009 337.891 484.767 314 514.073 314H660H805.927C835.233 314 858.991 337.891 858.991 367.361V474.084H1088.94C1118.24 474.084 1142 497.976 1142 527.446V820.934C1142 838.905 1133.17 854.801 1119.63 864.471L660 524.356ZM647.915 854.978C656.204 848.432 667.81 848.432 676.098 854.978L815.774 965.295C833.025 978.92 823.537 1007 801.682 1007H662.007H522.331C500.477 1007 490.989 978.92 508.239 965.295L647.915 854.978Z" fill="url(#paint0_linear_352_2)" style=""/>
</g>
<defs>
<linearGradient id="paint0_linear_352_2" x1="-240.809" y1="17.5449" x2="1276.98" y2="191.707" gradientUnits="userSpaceOnUse">
<stop offset="0.11" stop-color="#B9E2C4" style="stop-color:#B9E2C4;stop-color:color(display-p3 0.7245 0.8851 0.7696);stop-opacity:1;"/>
<stop offset="0.5" stop-color="#17C247" style="stop-color:#17C247;stop-color:color(display-p3 0.0908 0.7627 0.2789);stop-opacity:1;"/>
<stop offset="0.63" stop-color="#27B7FF" style="stop-color:#27B7FF;stop-color:color(display-p3 0.1529 0.7176 1.0000);stop-opacity:1;"/>
<stop offset="0.7" stop-color="#0095FF" style="stop-color:#0095FF;stop-color:color(display-p3 0.0000 0.5833 1.0000);stop-opacity:1;"/>
<stop offset="1" stop-color="#156F51" style="stop-color:#156F51;stop-color:color(display-p3 0.0805 0.4347 0.3166);stop-opacity:1;"/>
</linearGradient>
<clipPath id="clip0_352_2">
<rect width="1320" height="1320" fill="white" style="fill:white;fill-opacity:1;"/>
</clipPath>
</defs>
</svg>
