<svg width="410" height="410" viewBox="0 0 410 410" fill="none" xmlns="http://www.w3.org/2000/svg">
<path d="M408.768 200.208C407.538 196.561 404.91 193.552 401.462 191.843C398.013 190.133 394.027 189.863 390.38 191.092L219.279 248.77V151.818L304.412 123.414L304.756 123.282C305.034 123.176 305.305 123.078 305.575 122.963L306.132 122.701C306.369 122.586 306.607 122.472 306.836 122.341C307.066 122.21 307.254 122.095 307.459 121.972L308.016 121.612C308.253 121.448 308.482 121.276 308.704 121.104C308.925 120.932 308.998 120.883 309.138 120.76C309.277 120.637 309.613 120.342 309.842 120.121L310.08 119.908C310.129 119.867 310.162 119.818 310.203 119.777C310.415 119.559 310.62 119.329 310.817 119.089C310.94 118.95 311.071 118.81 311.185 118.663L311.644 118.041C311.775 117.852 311.914 117.664 312.037 117.467C312.16 117.271 312.25 117.115 312.348 116.935C312.447 116.755 312.627 116.468 312.75 116.222C312.873 115.977 312.897 115.903 312.979 115.739C313.061 115.575 313.217 115.215 313.323 114.92C313.43 114.625 313.454 114.551 313.511 114.371C313.569 114.191 313.692 113.872 313.765 113.618C313.839 113.364 313.88 113.151 313.937 112.913C313.995 112.676 314.044 112.496 314.085 112.283C314.126 112.07 314.167 111.709 314.208 111.423C314.208 111.259 314.257 111.087 314.273 110.915C314.273 110.612 314.273 110.309 314.314 109.997C314.314 109.842 314.314 109.678 314.314 109.522C314.314 109.236 314.314 108.949 314.314 108.703C314.314 108.458 314.314 108.318 314.273 108.13C314.232 107.942 314.208 107.647 314.167 107.409C314.126 107.172 314.093 106.918 314.044 106.68C313.995 106.443 313.954 106.295 313.905 106.107C313.855 105.918 313.749 105.525 313.659 105.239C313.646 105.18 313.63 105.123 313.61 105.067C313.61 104.96 313.528 104.862 313.487 104.755C313.389 104.461 313.274 104.166 313.151 103.879C313.028 103.592 312.995 103.543 312.914 103.371C312.832 103.199 312.668 102.872 312.529 102.618C312.389 102.364 312.307 102.233 312.185 102.044C312.062 101.856 311.931 101.635 311.791 101.438C311.652 101.242 311.488 101.004 311.325 100.799C311.161 100.595 311.079 100.48 310.948 100.324C310.817 100.169 310.555 99.8738 310.35 99.6609C310.268 99.579 310.194 99.4807 310.104 99.3906L215.094 4.38003C214.758 4.04421 214.414 3.73297 214.045 3.42992C213.873 3.29068 213.693 3.16782 213.521 3.03677C213.349 2.90572 213.12 2.73372 212.907 2.58629C212.694 2.43886 212.481 2.32419 212.268 2.20134C212.055 2.07848 211.883 1.96381 211.686 1.85733C211.49 1.75085 211.244 1.64438 211.023 1.5379L210.4 1.25123C210.187 1.16113 209.958 1.08742 209.737 1.00551L209.065 0.767986L208.386 0.595984C208.148 0.53865 207.927 0.473126 207.689 0.423982L206.87 0.301124C206.666 0.301124 206.469 0.235599 206.264 0.219218C205.311 0.120938 204.351 0.120938 203.397 0.219218C203.193 0.219218 202.996 0.276552 202.791 0.301124C202.587 0.325695 202.259 0.374839 201.972 0.423982C201.686 0.473126 201.505 0.53865 201.268 0.595984C201.03 0.653318 200.817 0.702462 200.596 0.767986L199.917 1.00551L199.253 1.25123C199.04 1.34133 198.844 1.43961 198.639 1.5379C198.434 1.63619 198.188 1.74266 197.967 1.85733C197.746 1.972 197.582 2.08667 197.394 2.20134C197.205 2.316 196.96 2.44705 196.747 2.58629L196.132 3.03677C195.96 3.16782 195.78 3.29068 195.608 3.42992C195.248 3.73297 194.896 4.04421 194.56 4.38003C194.224 4.71584 193.913 5.06803 193.61 5.43661C193.471 5.60042 193.356 5.77242 193.225 5.94442C193.094 6.11643 192.914 6.35395 192.766 6.5751C192.619 6.79624 192.512 6.99282 192.381 7.19758C192.25 7.40235 192.144 7.59073 192.037 7.79549C191.931 8.00026 191.824 8.2214 191.718 8.44255C191.611 8.66369 191.513 8.86027 191.423 9.08141C191.333 9.30256 191.267 9.50732 191.194 9.72028C191.12 9.93323 191.022 10.1789 190.948 10.4165C190.874 10.654 190.833 10.8506 190.784 11.0635C190.735 11.2765 190.653 11.5468 190.604 11.8007C190.555 12.0546 190.522 12.2921 190.489 12.5378C190.456 12.7835 190.415 12.9801 190.391 13.2013C190.35 13.6599 190.325 14.1186 190.325 14.5773C190.325 14.5773 190.325 14.5773 190.325 14.6264V130.932L9.91994 191.076C6.26835 192.294 3.25042 194.914 1.53007 198.358C-0.190284 201.801 -0.47214 205.787 0.746505 209.439C1.96515 213.091 4.58447 216.109 8.02825 217.829C11.472 219.549 15.4582 219.831 19.1098 218.612L190.293 161.5V258.558L105.848 287.02L105.627 287.11C105.291 287.225 104.963 287.356 104.636 287.495L104.234 287.684C103.948 287.823 103.661 287.97 103.415 288.126L102.94 288.404C102.703 288.552 102.473 288.699 102.244 288.863L101.695 289.264L101.13 289.715C100.934 289.879 100.745 290.051 100.565 290.231C100.458 290.329 100.352 290.411 100.254 290.509C100.155 290.608 100.139 290.64 100.082 290.706C100.024 290.771 99.7459 291.066 99.5821 291.255C99.4183 291.443 99.2544 291.623 99.107 291.82C98.9596 292.016 98.8695 292.131 98.7548 292.295C98.6402 292.459 98.4108 292.77 98.2634 293.016C98.116 293.261 98.116 293.261 98.0422 293.384C97.8702 293.671 97.7064 293.958 97.559 294.252C97.5017 294.359 97.4607 294.474 97.4034 294.58C97.2559 294.891 97.1167 295.202 96.9938 295.53C96.9447 295.653 96.9038 295.776 96.8628 295.899C96.7481 296.21 96.6417 296.513 96.5516 296.832C96.5024 297.004 96.4697 297.176 96.4287 297.348C96.3877 297.52 96.2977 297.889 96.2485 298.167C96.1994 298.446 96.1748 298.626 96.1502 298.855C96.1256 299.085 96.0847 299.298 96.0601 299.527C96.0356 299.756 96.0601 300.043 96.0601 300.346C96.0601 300.649 96.0601 300.756 96.0601 300.96C96.0601 301.165 96.0601 301.468 96.0601 301.73C96.0601 301.992 96.0601 302.164 96.1093 302.386C96.1584 302.607 96.1748 302.836 96.2076 303.057C96.2403 303.278 96.2895 303.573 96.3468 303.835C96.4041 304.097 96.4287 304.196 96.4778 304.384C96.527 304.572 96.6335 304.974 96.7317 305.26L96.7809 305.457C96.83 305.596 96.8874 305.719 96.9365 305.85C96.9857 305.981 97.0758 306.252 97.1658 306.448C97.2727 306.713 97.3929 306.973 97.5262 307.226C97.5836 307.357 97.6409 307.488 97.7064 307.611C97.9112 307.996 98.1323 308.365 98.3699 308.725C98.419 308.815 98.4845 308.897 98.5419 308.987C98.7466 309.282 98.9596 309.569 99.1807 309.855L99.3773 310.093C99.6394 310.404 99.9097 310.707 100.196 310.994L100.27 311.076L100.368 311.182L100.458 311.272L194.503 405.357C194.838 405.685 195.191 406.004 195.551 406.299C195.723 406.447 195.903 406.561 196.075 406.692C196.247 406.824 196.476 407.004 196.689 407.151C196.902 407.299 197.115 407.405 197.328 407.536C197.541 407.667 197.713 407.774 197.91 407.88L198.573 408.2L199.196 408.486C199.409 408.576 199.63 408.65 199.851 408.724C200.072 408.797 200.301 408.896 200.539 408.969C200.777 409.043 200.981 409.084 201.194 409.133C201.407 409.182 201.669 409.264 201.915 409.313C202.161 409.363 202.423 409.387 202.677 409.428C202.931 409.469 203.103 409.502 203.316 409.518C204.269 409.617 205.229 409.617 206.182 409.518C206.395 409.518 206.608 409.461 206.821 409.428C207.034 409.395 207.329 409.363 207.583 409.313C207.837 409.264 208.066 409.199 208.304 409.133C208.541 409.068 208.746 409.035 208.959 408.969C209.172 408.904 209.418 408.806 209.647 408.724C209.876 408.642 210.089 408.576 210.302 408.486L210.925 408.2C211.146 408.093 211.375 407.995 211.588 407.88C211.801 407.765 211.973 407.651 212.17 407.536C212.366 407.421 212.604 407.29 212.808 407.151C213.013 407.012 213.218 406.848 213.423 406.692C213.628 406.537 213.775 406.447 213.947 406.299C214.316 406.004 214.66 405.685 214.995 405.357C215.331 405.023 215.648 404.67 215.945 404.301C216.085 404.137 216.199 403.957 216.33 403.793C216.461 403.629 216.65 403.375 216.789 403.162C216.928 402.949 217.051 402.745 217.174 402.532C217.297 402.319 217.412 402.147 217.526 401.942C217.641 401.737 217.731 401.508 217.837 401.295C217.944 401.082 218.042 400.877 218.132 400.656C218.222 400.435 218.288 400.23 218.37 400.017C218.452 399.804 218.542 399.55 218.607 399.313C218.673 399.075 218.722 398.887 218.779 398.666C218.837 398.445 218.902 398.182 218.951 397.937C219.001 397.691 219.033 397.445 219.066 397.191C219.099 396.938 219.14 396.757 219.164 396.536C219.205 396.078 219.23 395.619 219.23 395.16C219.23 395.16 219.23 395.119 219.23 395.103V279.378L399.603 218.58C403.253 217.358 406.27 214.736 407.988 211.291C409.707 207.846 409.987 203.86 408.768 200.208ZM219.279 49.6247L272.968 103.281L219.279 121.194V49.6247ZM190.252 360.047L137.242 307.038L190.252 289.207V360.047Z" fill="black"/>
</svg>
