<?xml version="1.0" encoding="utf-8"?>
<!-- Generator: Adobe Illustrator 27.2.0, SVG Export Plug-In . SVG Version: 6.00 Build 0)  -->
<svg version="1.1" id="Layer_1" xmlns="http://www.w3.org/2000/svg" xmlns:xlink="http://www.w3.org/1999/xlink" x="0px" y="0px"
	 viewBox="0 0 200 200" style="enable-background:new 0 0 200 200;" xml:space="preserve">
<style type="text/css">
	.st0{fill:#E9BC1F;}
	.st1{fill:none;stroke:#E9BC1F;stroke-miterlimit:10;}
</style>
<g id="XMLID_20_">
	<path id="XMLID_18_" class="st0" d="M99.1,38.8c0.4-0.4,0.8-0.6,1.2-0.9L99.1,38.8z"/>
	<path id="XMLID_17_" class="st0" d="M111.2,40.5c0.5,0.2,0.9,0.4,1.4,0.5l-0.5,1.4L111.2,40.5z"/>
	<g id="XMLID_22_">
		<path id="XMLID_16_" class="st0" d="M90.1,39.2l-1.8,4.6L68.8,93.4c-2,0.3-2.9,2.3-2.9,2.3C57.3,98.5,57,96,57,96
			c-2.1,0-7,2.7-7,2.7c-2.4-0.3-7.9-6.1-7.9-6.1c-1.2-2.7-4-6.4-4-6.4c-3,0.9-6.4-4.3-6.4-4.3c-2.7-3,1.5-7.9,1.5-7.9
			c2.1-3.3-1.5-8.5-1.5-8.5C30.3,62.7,40,50.4,40,50.4c7.9-2.4,5.2-8.8,5.2-8.8c-0.3-0.9,7.6-7.9,7.6-7.9l7.3,0.6
			c0.9-2.1,19.8-4.9,19.8-4.9c0.6-0.1,1.2-0.2,1.8-0.2c5.7-0.2,4.1,5.4,3.4,7.4c-0.2,0.5-0.3,0.7-0.3,0.7c0.2,0,0.4-0.1,0.6-0.1
			C87,37.3,88.8,38.3,90.1,39.2z"/>
		<path id="XMLID_15_" class="st0" d="M83.3,102.9h2.6c-0.6,0.4-0.9,0.7-0.9,0.7C84.4,103.5,83.8,103.2,83.3,102.9z"/>
		<path id="XMLID_14_" class="st0" d="M141.6,159.7c-0.1,0.3-0.1,0.6-0.2,0.9l-0.4-0.9H141.6z"/>
		<path id="XMLID_13_" class="st0" d="M152.2,123.4c-0.3,1-0.7,3.4-0.9,5.3l-5.6-12.4h1.7l0.6,2.8L152.2,123.4z"/>
		<path id="XMLID_12_" class="st0" d="M144.3,139.2c0.1,1-0.1,3-0.4,5.5c-0.6,4.5-1.6,10.7-2.3,15H141l-19.8-43.4l-6.1-13.4
			l-14.4-31.8l-11.8,30c-1.1,0.5-2.1,1.1-3,1.8h-2.6c-1.1-0.6-2.1-1.3-3.1-2c-1.4-1-2.9-2.2-4.3-3.2L93,54.2v0l4.5-11.4l1.6-4v0
			l1.2-0.9l2.5,5.5l4.7,10.4l22.3,49.1l6.1,13.4l9.6,21C144.8,138.4,144.3,139.2,144.3,139.2z"/>
		<path id="XMLID_11_" class="st0" d="M141.6,159.7c-0.1,0.3-0.1,0.6-0.2,0.9l-0.4-0.9H141.6z"/>
		<path id="XMLID_10_" class="st0" d="M85.9,102.9c-0.6,0.4-0.9,0.7-0.9,0.7c-0.6-0.1-1.2-0.4-1.7-0.7H85.9z"/>
		<path id="XMLID_9_" class="st0" d="M159.5,96.6c-2.7,1.7-5.2,3.8-7.2,6.3c-4.6,5.4-5.5,10.4-5.5,10.4l0.6,2.9h-1.7l-6.1-13.4
			L112,42.4l0.5-1.4c5.2,1.4,11.7-0.9,11.7-0.9c1.8,0.6,17.3,29.8,17.3,29.8l6.4,5.8c4,1.5,6.4,7.3,6.4,7.3
			c1.5,0.3,12.5-3.7,12.5-3.7C173.5,79.9,159.5,96.6,159.5,96.6z"/>
		<path id="XMLID_5_" class="st0" d="M140.7,165.1c0.3,3.3-5.8,6.7-5.8,6.7c-1.2,1.8-5.8,0-5.8,0l-5.8-3c-1.8-0.9-2.1-7.6-2.1-7.6
			l-0.9-1.4l-3.7-5.6c-2.7-1.5-1.8-7.9-1.8-7.9l-4.5-4l-8-20.1l-6.1-5.7c0,0-0.1-0.1-0.1-0.1h25.1l19.8,43.4l0.4,0.9
			C141,163.3,140.7,165.1,140.7,165.1z"/>
		<path id="XMLID_4_" class="st0" d="M141.6,159.7c-0.1,0.3-0.1,0.6-0.2,0.9l-0.4-0.9H141.6z"/>
		<path id="XMLID_3_" class="st0" d="M83.3,102.9h2.6c-0.6,0.4-0.9,0.7-0.9,0.7C84.4,103.5,83.8,103.2,83.3,102.9z"/>
	</g>
	<path id="XMLID_2_" class="st0" d="M112.6,41l-0.5,1.4l-0.9-1.9C111.6,40.7,112.1,40.9,112.6,41z"/>
</g>
<rect id="XMLID_7_" x="10.4" y="9.9" class="st1" width="178.7" height="180"/>
</svg>
