<svg width="256" height="256" viewBox="0 0 256 256" fill="none" xmlns="http://www.w3.org/2000/svg">
<rect x="24" y="24" width="208" height="208" rx="104" fill="white"/>
<g clip-path="url(#clip0_1441_2836)">
<path fill-rule="evenodd" clip-rule="evenodd" d="M106.218 76H120.823V91.6126H135.303V76H149.908V91.6126H164.388V106.218H180V120.823H164.388V135.303H180V149.908H164.388V164.388H149.908V180H135.303V164.388H120.823V180H106.218V164.388H91.6126V149.908H76V135.303H91.6126V120.823H76V106.218H91.6126V91.6126H106.218V76ZM135.303 106.218H120.823V120.823H106.218V135.303H120.823V149.908H135.303V135.303H149.908V120.823H135.303V106.218Z" fill="#DA291C"/>
</g>
<defs>
<clipPath id="clip0_1441_2836">
<rect width="104" height="104" fill="white" transform="translate(76 76)"/>
</clipPath>
</defs>
</svg>
