<svg width="297" height="70" viewBox="0 0 297 70" fill="none" xmlns="http://www.w3.org/2000/svg">
<g clip-path="url(#clip0_45_4028)">
<path d="M70.6992 26.6C69.4992 26 68.0992 25.7 66.2992 25.7C64.4992 25.7 62.9992 26 61.7992 26.7C60.4992 27.4 59.4992 28.4 58.7992 29.6C58.0992 30.8 57.6992 32.2 57.6992 34C57.6992 35.8 58.0992 37.3 58.7992 38.5C59.4992 39.7 60.4992 40.6999 61.7992 41.2999C63.0992 41.9 64.5992 42.2999 66.3992 42.2999C67.9992 42.2999 69.3992 42.0999 70.5992 41.5999C71.7992 41.0999 72.7992 40.3999 73.4992 39.5999C74.1992 38.7999 74.4992 37.6999 74.4992 36.5999V36.2999H70.9992V36.5999C70.9992 37.5999 70.5992 38.2999 69.8992 38.7999C69.1992 39.2999 67.8992 39.5999 66.2992 39.5999C64.3992 39.5999 62.9992 39.1999 62.1992 38.2999C61.4992 37.4999 61.0992 36.3 60.9992 34.9H74.5992C74.5992 34.7 74.6992 34.4 74.6992 34.2C74.6992 34 74.6992 33.7 74.6992 33.4C74.6992 31.8 74.2992 30.3999 73.6992 29.2999C72.8992 27.9999 71.8992 27.2 70.6992 26.6ZM62.0992 29.7C62.8992 28.8 64.2992 28.4 66.1992 28.4C67.8992 28.4 69.1992 28.8 69.9992 29.5C70.7992 30.2 71.2992 31.2999 71.2992 32.7999V32.9H60.9992C61.0992 31.6 61.3992 30.5 62.0992 29.7Z" fill="white"/>
<path d="M92.4 31.3C91.4 30.8 90.2 30.4 88.8 30.1L83.6 29.2C82.8 29 82.1 28.8 81.5 28.6C81 28.4 80.6 28.1 80.3 27.7C80 27.3 79.9 26.8 79.9 26.2C79.9 25.5 80.1 25 80.4 24.6C80.8 24.2 81.4 23.9 82.2 23.6C83 23.4 84.1 23.3 85.4 23.3C86.9 23.3 88.1 23.4 89 23.7C89.9 24 90.5 24.4 90.9 25C91.3 25.6 91.5 26.3 91.5 27.2V27.6H95V27.4C95 26 94.7 24.7 94 23.6C93.3 22.5 92.3 21.6 91 21C89.7 20.4 87.9 20 85.8 20C84.1 20 82.7 20.2 81.5 20.5C80.3 20.9 79.4 21.3 78.6 21.9C77.9 22.5 77.3 23.2 77 23.9C76.7 24.7 76.5 25.4 76.5 26.2C76.5 27.4 76.8 28.4 77.3 29.2C77.8 30 78.6 30.6 79.5 31.1C80.4 31.6 81.5 31.9 82.7 32.1L88 33C89.4 33.3 90.3 33.6 90.9 34C91.5 34.4 91.8 35.1 91.8 36.1C91.8 36.8 91.6 37.3 91.3 37.8C90.9 38.2 90.4 38.6 89.5 38.8C88.7 39 87.6 39.1 86.2 39.1C84.6 39.1 83.4 39 82.5 38.7C81.6 38.4 81 38 80.6 37.4C80.2 36.8 80 36.1 80 35.3V34.8H76.5V35C76.5 36.5 76.9 37.8 77.6 38.9C78.3 40 79.4 40.9 80.9 41.5C82.4 42.1 84.1 42.4 86.3 42.4C88.4 42.4 90.1 42.1 91.5 41.5C92.8 40.9 93.8 40.1 94.4 39.2C95 38.2 95.3 37.2 95.3 36.1C95.3 35.1 95.1 34.1 94.6 33.3C94.1 32.4 93.4 31.8 92.4 31.3Z" fill="white"/>
<path d="M107.498 34.5001L105.998 38.4001H105.698L104.098 34.6001L99.9977 26.1001H96.0977L103.998 42.1001L103.598 42.9001C103.398 43.4001 103.098 43.8001 102.698 44.0001C102.398 44.2001 101.798 44.3001 101.098 44.3001H97.9977V47.5001H100.298C101.398 47.5001 102.298 47.4001 103.098 47.2001C103.898 47.0001 104.598 46.6001 105.198 46.0001C105.798 45.5001 106.298 44.7001 106.698 43.8001L114.998 26.1001H111.198L107.498 34.5001Z" fill="white"/>
<path d="M130.598 26.6C129.598 26 128.398 25.7 126.898 25.7C125.598 25.7 124.398 26 123.498 26.5C122.598 27 121.798 27.7 121.298 28.5C120.798 29.3 120.398 30.2 120.298 31.1H120.098V26.1H116.898V42.0999H120.398V34C120.398 32.4 120.798 31.1 121.598 30.2C122.398 29.3 123.798 28.9 125.398 28.9C127.098 28.9 128.298 29.3 128.998 30C129.698 30.8 130.098 31.9 130.098 33.4V42H133.598V32.4C133.598 31.2 133.398 30 132.898 29C132.398 28 131.598 27.2 130.598 26.6Z" fill="white"/>
<path d="M149 26.5C147.8 25.9 146.3 25.7 144.7 25.7C142.9 25.7 141.4 26 140.1 26.7C138.8 27.4 137.8 28.4 137.1 29.6C136.4 30.8 136 32.4 136 34C136 35.6 136.4 37.0999 137.1 38.2999C137.8 39.5999 138.8 40.5 140.1 41.2C141.4 41.9 142.9 42.2 144.7 42.2C146.3 42.2 147.7 41.9 149 41.4C150.3 40.9 151.2 40.1 151.9 39C152.6 38 153 36.8 153 35.5V35.0999H149.5V35.2999C149.5 36.4999 149.1 37.4999 148.2 38.0999C147.3 38.6999 146.1 39 144.6 39C142.8 39 141.5 38.6 140.6 37.7C139.8 36.8 139.3 35.5999 139.3 33.7999C139.3 31.9999 139.7 30.8 140.6 29.9C141.4 28.9999 142.8 28.6 144.6 28.6C146.2 28.6 147.4 28.9 148.2 29.5C149.1 30.1 149.5 30.9999 149.5 32.2999V32.5H153V32.2C153 30.8 152.6 29.7 151.9 28.7C151.3 27.9 150.3 27.1 149 26.5Z" fill="white"/>
<path d="M177.398 33.1999L177.598 37.0999H177.298L174.498 33.0999L164.898 20.3999H161.098V41.9999H164.598V29.3999L164.498 25.5999H164.798L167.498 29.3999L177.198 41.9999H180.898V20.3999H177.398V33.1999Z" fill="white"/>
<path d="M196.699 26.6C195.499 26 194.099 25.7 192.299 25.7C190.499 25.7 189.099 26 187.799 26.7C186.499 27.4 185.499 28.4 184.799 29.6C184.099 30.8 183.699 32.2 183.699 34C183.699 35.8 184.099 37.3 184.799 38.5C185.499 39.7 186.499 40.6999 187.799 41.2999C189.099 41.9 190.599 42.2999 192.399 42.2999C193.999 42.2999 195.399 42.0999 196.599 41.5999C197.799 41.0999 198.799 40.3999 199.499 39.5999C200.199 38.6999 200.499 37.6999 200.499 36.5999V36.2999H196.999V36.5999C196.999 37.5999 196.599 38.2999 195.899 38.7999C195.199 39.2999 193.999 39.5999 192.299 39.5999C190.399 39.5999 188.999 39.1999 188.199 38.2999C187.499 37.4999 187.099 36.3 186.999 34.9H200.599C200.699 34.7 200.699 34.4 200.699 34.2C200.699 34 200.699 33.7 200.699 33.4C200.699 31.8 200.399 30.3999 199.699 29.2999C198.999 28.1999 197.999 27.2 196.699 26.6ZM188.199 29.7C188.999 28.8 190.399 28.4 192.299 28.4C193.999 28.4 195.299 28.8 196.099 29.5C196.999 30.2 197.399 31.2999 197.399 32.7999V32.9H186.999C187.099 31.6 187.499 30.5 188.199 29.7Z" fill="white"/>
<path d="M208.599 38.4C208.099 38.1 207.899 37.4 207.899 36.4V28.9H213.699V26H207.899V22.5H204.399V26H201.699V28.9H204.399V36.6C204.399 38.5 204.899 39.9 205.899 40.7C206.899 41.5 208.199 42 209.999 42H213.699V38.9H210.799C209.799 38.9 209.099 38.7 208.599 38.4Z" fill="white"/>
<path d="M236.398 35.1L235.698 39.2H235.398L234.198 34.8L230.898 26H226.398L223.098 34.8L221.898 39.2H221.598L220.898 35.1L218.198 26H214.598L219.398 42H223.698L227.298 32.8L228.498 28.9H228.698L229.998 32.8L233.498 42H237.798L242.598 26H239.098L236.398 35.1Z" fill="white"/>
<path d="M256.799 26.7C255.499 26 253.899 25.7 252.099 25.7C250.299 25.7 248.799 26 247.399 26.7C246.099 27.4 244.999 28.4 244.299 29.6C243.599 30.8 243.199 32.4 243.199 34C243.199 35.6 243.599 37.0999 244.299 38.2999C244.999 39.4999 246.099 40.5 247.399 41.2C248.699 41.9 250.299 42.2 252.099 42.2C253.899 42.2 255.499 41.9 256.799 41.2C258.099 40.5 259.199 39.4999 259.899 38.2999C260.599 37.0999 260.999 35.6 260.999 34C260.999 32.4 260.599 30.9 259.899 29.6C259.199 28.4 258.199 27.4 256.799 26.7ZM256.399 37.9C255.499 38.8 254.099 39.2 252.199 39.2C250.299 39.2 248.899 38.7 247.999 37.9C247.099 37 246.699 35.7 246.699 34C246.699 32.3 247.099 31 247.999 30.1C248.899 29.2 250.199 28.7 252.199 28.7C254.199 28.7 255.599 29.2 256.399 30.1C257.299 31 257.699 32.3 257.699 34C257.699 35.7 257.199 37 256.399 37.9Z" fill="white"/>
<path d="M275.599 26.4001C274.799 25.9001 273.799 25.6001 272.599 25.6001C271.499 25.6001 270.599 25.8001 269.799 26.2001C268.999 26.6001 268.399 27.2001 267.999 27.9001C267.599 28.6001 267.199 29.4001 267.099 30.3001H266.899V26.0001H263.699V42.0001H267.199V33.0001C267.199 31.6001 267.499 30.5001 268.099 29.8001C268.699 29.0001 269.699 28.7001 271.099 28.7001C272.299 28.7001 273.199 29.0001 273.699 29.5001C274.199 30.0001 274.499 30.9001 274.499 32.0001V33.4001H277.999V31.3001C277.999 30.3001 277.799 29.4001 277.499 28.5001C276.899 27.6001 276.399 27.0001 275.599 26.4001Z" fill="white"/>
<path d="M296.9 25.9999H292.9L288.1 32.3999H283.5V20.3999H280V41.9999H283.5V35.4999H288.1L292.8 41.9999H296.9L290.9 33.6999L296.9 25.9999Z" fill="white"/>
<path d="M21.401 69.6L38.701 52.3C41.401 49.6 42.901 45.2 42.601 40.6C42.401 36.8 41.001 31.2 35.601 25.8L34.101 24.3L8.30101 50L8.20101 49.9C1.20101 41.7 4.40101 34.5 8.30101 29.9C12.501 25 29.301 8.5 32.001 6.1L32.101 6L32.201 6.2C33.801 9.3 33.201 13 30.701 15.5L13.201 32.9C12.401 33.7 12.001 34.8 12.001 35.9C12.001 37 12.401 38 13.101 38.8L33.601 18.3C38.201 13.7 38.401 6.3 33.901 1.5L32.601 0L31.101 1.3C31.001 1.5 11.101 20.3 5.20101 27.3C-2.29899 36 -1.69899 45.9 6.80101 54.5L8.30101 56L34.101 30.2L34.201 30.3C37.501 34.3 38.401 38.2 38.501 40.8C38.701 44.3 37.601 47.6 35.801 49.4L21.601 63.6L21.501 63.4C19.901 60.4 20.401 56.6 22.801 54.2L28.301 48.7C29.101 47.9 29.501 46.8 29.501 45.7C29.501 44.6 29.101 43.6 28.301 42.8L19.801 51.3C15.201 56 15.201 63.5 19.801 68.1L21.401 69.6Z" fill="url(#paint0_linear_45_4028)"/>
</g>
<defs>
<linearGradient id="paint0_linear_45_4028" x1="5.85941" y1="1.4303" x2="41.5994" y2="68.7103" gradientUnits="userSpaceOnUse">
<stop offset="0.24" stop-color="#9052D1"/>
<stop offset="0.91" stop-color="#50B0F9"/>
</linearGradient>
<clipPath id="clip0_45_4028">
<rect width="296.9" height="69.6" fill="white"/>
</clipPath>
</defs>
</svg>
