<svg width="800" height="800" viewBox="0 0 800 800" fill="none" xmlns="http://www.w3.org/2000/svg">
<rect x="6" y="6" width="788" height="788" rx="394" fill="white"/>
<rect x="6" y="6" width="788" height="788" rx="394" stroke="#FF8800" stroke-width="12"/>
<path d="M751.955 297.949C752.175 329.037 742.258 359.351 723.706 384.301C706.556 407.553 681.037 423.23 652.539 428.02C670.214 424.424 685.853 414.227 696.272 399.508C707.641 383.788 713.728 364.868 713.656 345.47C713.901 323.792 706.277 302.761 692.197 286.273C685.87 278.715 677.981 272.617 669.072 268.399C660.163 264.18 650.445 261.94 640.588 261.834H512.651V166.792H637.6C668.022 166.792 697.086 180.641 718.545 205.08C740.427 231.05 752.28 263.996 751.955 297.949ZM460.77 213.77L512.651 308.54V119L460.77 213.77Z" fill="#FF9900"/>
<path d="M339.112 567.864L288.046 475.266L287.503 178.466C287.505 170.15 290.384 162.091 295.652 155.656C298.09 152.752 301.12 150.402 304.54 148.763C307.959 147.124 311.689 147.234 315.481 147.152H398.871C404.796 147.105 410.589 148.909 415.44 152.311C420.661 155.773 424.877 160.55 427.663 166.16L507.337 320.756C510.391 326.723 512.519 332.797 512.5 339.5L512.955 631.677H479.001C476.612 631.635 474.26 631.079 472.104 630.048C469.948 629.018 468.039 627.536 466.506 625.703C463.137 621.668 461.308 616.568 461.345 611.311V348.454C461.334 345.424 460.589 342.443 459.172 339.765L384.474 203.72H350.792C347.701 203.741 344.743 204.978 342.557 207.163C340.371 209.348 339.134 212.306 339.112 215.396V567.864Z" fill="url(#paint0_linear_1766_120011)"/>
<path d="M287.862 475.338L313.395 521.772V192.114C313.691 187.657 315.514 183.438 318.556 180.166C322.902 175.55 326.433 175.55 332.409 175.55C353.324 175.55 390.537 176.364 398.686 174.192C417.7 169.304 391.896 146.494 391.896 146.494H315.025C311.223 146.517 307.473 147.381 304.044 149.024C300.616 150.667 297.594 153.049 295.196 155.998C289.847 162.388 286.957 170.477 287.047 178.808L287.862 475.338Z" fill="#D4D4D4"/>
<path d="M335.401 146.495H398.691C404.616 146.449 410.409 148.253 415.26 151.655C420.482 155.116 424.698 159.893 427.483 165.503L508.157 321.1C511.211 327.067 512.794 333.677 512.775 340.38V632.021H478.821C476.432 631.978 474.08 631.423 471.924 630.392C469.768 629.361 467.859 627.879 466.326 626.047C462.957 622.011 461.128 616.912 461.165 611.655V348.526C461.154 345.497 460.409 342.515 458.992 339.837C458.992 339.837 403.309 236.92 384.295 203.792C375.059 187.77 368.268 175.822 358.761 161.159C356.901 158.292 354.61 155.727 351.971 153.555C349.504 151.614 346.756 150.057 343.822 148.939C341.133 147.763 338.302 146.941 335.401 146.495Z" fill="#FF8C01"/>
<path d="M334.944 146.495H374.059C379.985 146.449 385.777 148.253 390.628 151.655C395.85 155.116 400.066 159.893 402.852 165.503L483.525 321.1C486.579 327.067 488.162 333.677 488.143 340.38V632.021H478.093C475.703 631.978 473.351 631.423 471.196 630.392C469.04 629.361 467.131 627.879 465.598 626.047C462.228 622.011 460.399 616.912 460.437 611.655L461 348.5C460.989 345.47 459.68 342.515 458.264 339.837C458.264 339.837 402.58 236.92 383.566 203.792C374.33 187.77 367.54 175.822 358.033 161.159C356.172 158.292 353.882 155.727 351.242 153.555C348.775 151.614 346.027 150.057 343.093 148.939C340.503 147.751 337.761 146.929 334.944 146.495Z" fill="#FF9900"/>
<path fill-rule="evenodd" clip-rule="evenodd" d="M697.545 292.401C687.557 277.876 672.57 267.533 655.443 263.345C666.177 266.569 675.418 273.498 681.519 282.897C688.16 292.865 691.66 304.593 691.57 316.569C691.672 330.787 686.659 344.568 677.445 355.4C673.276 360.36 668.083 364.361 662.223 367.126C656.362 369.892 649.972 371.357 643.491 371.421H512.566V428.989H640.775C650.633 428.883 660.35 426.643 669.259 422.424C678.168 418.205 686.058 412.107 692.385 404.55C705.316 388.955 712.815 369.574 713.746 349.339C714.677 329.104 708.99 309.117 697.545 292.401Z" fill="url(#paint1_linear_1766_120011)"/>
<path d="M460.756 371.49V429.058H155.989C149.508 429.122 143.118 430.587 137.257 433.353C131.397 436.118 126.204 440.119 122.035 445.079C112.821 455.911 107.808 469.692 107.91 483.91C107.82 495.886 111.32 507.614 117.961 517.582C124.144 526.905 133.353 533.81 144.037 537.134C126.941 532.876 111.978 522.549 101.934 508.078C91.0987 492.55 85.313 474.06 85.3651 455.126C85.1197 433.449 92.7436 412.417 106.824 395.929C113.151 388.372 121.04 382.274 129.949 378.055C138.858 373.836 148.576 371.596 158.433 371.49H460.756Z" fill="url(#paint2_linear_1766_120011)"/>
<path d="M682.834 280.453C675.36 272.428 665.895 266.526 655.399 263.345C672.495 267.603 687.458 277.93 697.501 292.401C708.337 307.929 714.123 326.419 714.071 345.353C714.316 367.03 706.692 388.062 692.612 404.55C686.285 412.107 678.396 418.205 669.487 422.424C660.578 426.643 650.86 428.883 641.003 428.989H512.794V400.477H643.719C678.759 399.119 701.848 373.322 701.848 334.219C701.576 299.461 689.896 289.142 682.834 280.453Z" fill="url(#paint3_linear_1766_120011)"/>
<path d="M751.955 297.949C752.175 329.037 742.258 359.351 723.706 384.301C706.556 407.553 681.037 423.23 652.539 428.02C670.214 424.424 685.853 414.227 696.272 399.508C707.641 383.788 713.728 364.868 713.656 345.47C713.901 323.792 706.277 302.761 692.197 286.273C685.87 278.715 677.981 272.617 669.072 268.399C660.163 264.18 650.445 261.94 640.588 261.834H512.651V166.792H637.6C668.022 166.792 697.086 180.641 718.545 205.08C740.427 231.05 752.28 263.996 751.955 297.949ZM460.77 213.77L512.651 308.54V119L460.77 213.77Z" fill="#FF9900"/>
<path d="M48.0036 502.706C47.7838 471.618 57.7006 441.305 76.253 416.355C93.4029 393.103 118.922 377.426 147.42 372.635C129.745 376.232 114.106 386.428 103.687 401.148C92.3182 416.867 86.2314 435.788 86.3032 455.186C86.0578 476.863 93.6816 497.895 107.762 514.383C114.089 521.941 121.978 528.038 130.887 532.257C139.796 536.476 149.514 538.716 159.371 538.822H287.58L287.58 634.015L162.359 633.864C131.937 633.864 102.873 620.015 81.4139 595.575C59.643 569.542 47.8055 536.638 48.0036 502.706ZM339.461 587.158L287.58 492.388V681.927L339.461 587.158Z" fill="#FF9900"/>
<path d="M640.357 213.77H460.539L512.42 119V166.792H637.369C667.792 166.792 696.856 180.641 718.315 205.08C740.272 230.918 752.223 263.776 751.997 297.678C752.216 328.766 742.3 359.079 723.747 384.03C761.775 251.786 669.693 213.77 640.357 213.77Z" fill="#FF8C01"/>
<path d="M159.643 587.23H339.461L287.58 682V634.208H162.631C132.208 634.208 103.144 620.359 81.6855 595.92C59.7286 570.082 47.7768 537.224 48.0036 503.322C47.7838 472.234 57.7006 441.921 76.253 416.97C38.4966 549.214 130.579 587.23 159.643 587.23Z" fill="#FF8C01"/>
<path d="M460.814 371.49V400.274H156.861C121.821 401.632 98.7329 427.429 98.7329 466.803C98.7329 501.289 110.141 511.608 117.475 520.298C124.948 528.322 134.414 534.225 144.91 537.405C127.859 533.209 112.961 522.861 103.079 508.35C92.2432 492.821 86.4576 474.331 86.5097 455.398C86.2642 433.72 93.8881 412.689 107.968 396.201C114.314 388.665 122.207 382.583 131.112 378.366C140.017 374.149 149.725 371.897 159.578 371.762L460.814 371.49Z" fill="url(#paint4_linear_1766_120011)"/>
<defs>
<linearGradient id="paint0_linear_1766_120011" x1="518.55" y1="353.288" x2="245.091" y2="445.039" gradientUnits="userSpaceOnUse">
<stop offset="0.07" stop-color="#797979"/>
<stop offset="0.64" stop-color="#C1C1C1"/>
<stop offset="1" stop-color="#D4D4D4"/>
</linearGradient>
<linearGradient id="paint1_linear_1766_120011" x1="725.55" y1="318.524" x2="569.023" y2="379.192" gradientUnits="userSpaceOnUse">
<stop offset="0.07" stop-color="#797979"/>
<stop offset="0.41" stop-color="#C1C1C1"/>
<stop offset="1" stop-color="#D4D4D4"/>
</linearGradient>
<linearGradient id="paint2_linear_1766_120011" x1="85.4738" y1="461.073" x2="465.969" y2="420.888" gradientUnits="userSpaceOnUse">
<stop offset="0.07" stop-color="#868686"/>
<stop offset="0.37" stop-color="#D7D7D7"/>
<stop offset="1" stop-color="#DEDEDE"/>
</linearGradient>
<linearGradient id="paint3_linear_1766_120011" x1="726.81" y1="338.048" x2="515.892" y2="360.328" gradientUnits="userSpaceOnUse">
<stop offset="0.07" stop-color="#868686"/>
<stop offset="0.37" stop-color="#D7D7D7"/>
<stop offset="1" stop-color="#DEDEDE"/>
</linearGradient>
<linearGradient id="paint4_linear_1766_120011" x1="86.9443" y1="466.749" x2="464.989" y2="392.764" gradientUnits="userSpaceOnUse">
<stop offset="0.07" stop-color="#797979"/>
<stop offset="0.37" stop-color="#C1C1C1"/>
<stop offset="1" stop-color="#D4D4D4"/>
</linearGradient>
</defs>
</svg>
