<svg width="789" height="668" viewBox="0 0 789 668" fill="none" xmlns="http://www.w3.org/2000/svg">
    <path fill-rule="evenodd" clip-rule="evenodd"
        d="M115.185 411.477L118.367 469.444C118.575 473.392 120.055 477.107 122.552 480.15C140.007 501.282 218.264 575.014 394.616 575.014C570.968 575.014 648.278 502.234 666.38 480.544C669.108 477.27 670.68 473.206 670.934 468.933L674.089 411.517C695.084 399.997 716.758 386.98 716.758 386.98C750.835 368.518 788.866 395.038 788.935 433.936C789.051 496.87 739.877 561.545 673.548 602.301C598.758 648.258 487.117 667.324 394.664 667.324C302.211 667.324 190.57 648.258 115.78 602.301C49.4513 561.545 0.277187 496.893 0.392781 433.936C0.462138 395.038 38.4929 368.518 72.5702 386.98C72.5702 386.98 94.207 399.965 115.185 411.477Z"
        fill="#A36EFD" />
    <path fill-rule="evenodd" clip-rule="evenodd"
        d="M394.641 0.113525C538.834 0.113525 577.929 3.48079 636.558 10.2154H636.535C663.561 13.3272 685.224 33.438 683.212 60.6782L661.616 354.872C654.858 356.83 647.488 359.303 639.223 362.077C595.905 376.615 527.997 399.404 394.64 399.404C261.283 399.404 193.376 376.615 150.057 362.077C141.784 359.3 134.407 356.825 127.643 354.866L106.047 60.6782C104.059 33.438 125.652 12.8395 152.724 10.2154C210.637 4.59548 270.932 0.113525 394.641 0.113525ZM137.991 495.835L138.067 496.869L139.557 497.212C139.024 496.748 138.502 496.289 137.991 495.835ZM649.85 497.178L651.193 496.869L651.262 495.928C650.8 496.341 650.329 496.757 649.85 497.178Z"
        fill="#A36EFD" />
</svg>