<?xml version="1.0" encoding="UTF-8"?>
<svg width="640px" height="640px" viewBox="0 0 640 640" version="1.1" xmlns="http://www.w3.org/2000/svg" xmlns:xlink="http://www.w3.org/1999/xlink">
    <title>Group@1x</title>
    <g id="Receipt-Template" stroke="none" stroke-width="1" fill="none" fill-rule="evenodd">
        <g id="Group">
            <rect id="Rectangle" fill="#131415" x="0" y="0" width="640" height="640"></rect>
            <path d="M306.986667,450.133333 C306.986667,457.102609 312.465177,462.79231 319.350503,463.130741 L320,463.146667 C327.187066,463.146667 333.013333,457.320399 333.013333,450.133333 L333.013333,290.72 L219.146667,290.72 C193.991937,290.72 173.6,270.328063 173.6,245.173333 C173.6,220.018604 193.991937,199.626667 219.146667,199.626667 L420.853333,199.626667 C446.008063,199.626667 466.4,220.018604 466.4,245.173333 C466.4,270.328063 446.008063,290.72 420.853333,290.72 L381.813333,290.72 L381.813333,258.186667 L420.853333,258.186667 C428.040399,258.186667 433.866667,252.360399 433.866667,245.173333 C433.866667,237.986268 428.040399,232.16 420.853333,232.16 L219.146667,232.16 C211.959601,232.16 206.133333,237.986268 206.133333,245.173333 C206.133333,252.360399 211.959601,258.186667 219.146667,258.186667 L365.546667,258.186667 L365.546667,450.133333 C365.546667,475.288063 345.154729,495.68 320,495.68 C294.845271,495.68 274.453333,475.288063 274.453333,450.133333 L274.453333,326.506667 L95.612571,326.509569 C99.057235,447.47588 198.200354,544.48 320,544.48 C443.976881,544.48 544.48,443.976881 544.48,320 C544.48,196.023119 443.976881,95.52 320,95.52 C205.945774,95.52 111.75817,180.579122 97.41192,290.722635 L77.738759,290.719876 C92.203786,169.767379 195.15162,76 320,76 C454.757479,76 564,185.242521 564,320 C564,454.757479 454.757479,564 320,564 C185.242521,564 76,454.757479 76,320 C76,315.634958 76.114621,311.296687 76.341016,306.988032 L306.986667,306.986667 L306.986667,450.133333 Z" id="white-icon" fill="#FFFFFF" fill-rule="nonzero"></path>
        </g>
    </g>
</svg>