<svg width="44" height="24" viewBox="0 0 44 24" fill="none" xmlns="http://www.w3.org/2000/svg">
<path fill-rule="evenodd" clip-rule="evenodd" d="M20.451 7.83965C20.451 14.4951 20.4337 15.6597 20.336 15.5499C20.2726 15.4788 18.998 13.2731 17.5033 10.6485C12.9299 2.61753 12.6421 2.12089 12.5622 2.12089C12.4652 2.12089 10.0021 3.52387 9.95361 3.6068C9.934 3.64036 10.6999 5.03963 11.6554 6.71632C12.611 8.393 14.3423 11.4298 15.5026 13.4649C16.6631 15.4999 17.5942 17.184 17.5722 17.2074C17.55 17.2308 14.5152 15.4807 10.8283 13.3186L4.12468 9.38721L3.37154 10.7079C2.95737 11.4343 2.61859 12.056 2.61878 12.0897C2.61897 12.1234 2.92967 12.3327 3.30944 12.555C3.68922 12.7774 6.71246 14.547 10.0278 16.4875L16.0557 20.0157L8.22784 20.0599L0.399902 20.1041V21.6506V23.197L8.36107 23.2196L16.3223 23.2421L19.1373 20.4138C20.6855 18.8583 21.9742 17.5855 22.0011 17.5855C22.0463 17.5855 24.3606 19.8866 26.2278 21.7879C26.6652 22.2333 27.1778 22.7419 27.3668 22.9181L27.7104 23.2386L35.6552 23.2178L43.5999 23.197V21.6506V20.1041L35.772 20.0599L27.9441 20.0157L34.6631 16.0833C38.3585 13.9204 41.3725 12.1077 41.3608 12.0549C41.349 12.0023 41.0192 11.3939 40.6278 10.7032C40.1216 9.80984 39.8785 9.45749 39.7857 9.48287C39.6542 9.51885 27.5325 16.5924 26.7929 17.0648C26.5741 17.2045 26.3953 17.2806 26.3953 17.2338C26.3953 17.1871 28.1107 14.1412 30.2074 10.4654C32.3041 6.78948 34.0277 3.73965 34.0376 3.68806C34.055 3.5976 31.7147 2.13009 31.544 2.12433C31.4754 2.1221 25.5056 12.3469 24.0789 14.9102C23.8563 15.3099 23.6461 15.638 23.6115 15.6392C23.5769 15.6404 23.5488 12.1221 23.5488 7.82069V0H21.9999H20.451V7.83965Z" fill="#D4D4D4"/>
</svg>
