<svg id="a1a91a6b-7118-43d0-87a6-4944c1896f48" data-name="Desing" xmlns="http://www.w3.org/2000/svg" viewBox="0 0 500 550"><defs><style>.b68082d4-49ed-4b10-8ffe-0e763c035207{fill:#ff5050;}</style></defs><title>Redbelly</title><path class="b68082d4-49ed-4b10-8ffe-0e763c035207" d="M462.25,145.56,256.07,26.63a12.13,12.13,0,0,0-12.14,0L37.75,145.56a12.15,12.15,0,0,0-6.07,10.51V393.94a12.16,12.16,0,0,0,6.07,10.51L243.93,523.38a12.18,12.18,0,0,0,12.14,0L462.25,404.45a12.16,12.16,0,0,0,6.07-10.51V156.07A12.15,12.15,0,0,0,462.25,145.56ZM250,51.15l190.63,110c-31.05,17.52-57.25,39.77-79.35,64.57-43.12-50.84-103-101-184.38-132.37ZM404.35,308.91a13.7,13.7,0,0,1-12.55-8.21,13.58,13.58,0,1,1,25.09,0A13.69,13.69,0,0,1,404.35,308.91Zm0-40.73a27.23,27.23,0,0,0-9.54,1.8c-7.77-11.47-16.18-23.14-25.7-34.92a302.36,302.36,0,0,1,70.47-59.29,661.29,661.29,0,0,0-34.27,92.51C405,268.27,404.68,268.18,404.35,268.18ZM353.28,235c-21.9,26.36-39.47,55.19-53.56,84-6.81-98.73-82.7-176.06-123.43-213C254.37,136.94,311.84,185.73,353.28,235Zm-62,127a13.7,13.7,0,0,1-12.55-8.21,13.44,13.44,0,0,1-1-5.12,13.62,13.62,0,1,1,13.57,13.33Zm-3.74-40.35a27.47,27.47,0,0,0-6.81,1.74,480.94,480.94,0,0,0-101.74-102.4,27,27,0,0,0,3.76-13.62,27.38,27.38,0,0,0-21.39-26.68V108.9C198.77,142.06,281.39,220.92,287.49,321.57ZM167.83,212.41a13.7,13.7,0,0,1-25.1,0,13.39,13.39,0,0,1-1-5.11,13.57,13.57,0,0,1,27.14,0A13.39,13.39,0,0,1,167.83,212.41Zm-18.67-103.1v71.33a27.32,27.32,0,0,0-16,10.54A443.27,443.27,0,0,0,63,159ZM56,180.53c18.12,26.84,53.73,84.13,75.31,148.2-.24.15-.51.27-.74.43A452.6,452.6,0,0,0,56,276.69ZM159.56,351.78a13.44,13.44,0,0,1-1,5.12,13.52,13.52,0,1,1,1-5.12Zm-11,88.54L56,386.93V290.67a435.13,435.13,0,0,1,66.24,47.71A27.09,27.09,0,0,0,144.32,379C148.16,399.62,150,420.29,148.53,440.32ZM160.16,447c2.4-22.92.71-46.56-3.55-70a27,27,0,0,0,3.71-2,519.52,519.52,0,0,1,82,119.41Zm88.77,33.57a530.88,530.88,0,0,0-80-113.89A27.35,27.35,0,0,0,146,324.38a27.88,27.88,0,0,0-3.05.31C120.73,258.34,84,199.87,65.54,172.84a432.1,432.1,0,0,1,62.82,29.49,27.89,27.89,0,0,0-.5,5,27.4,27.4,0,0,0,42.91,22.59A467.9,467.9,0,0,1,270.88,330.39a27.08,27.08,0,0,0,6.61,41.78A640.16,640.16,0,0,0,248.93,480.6Zm10.21,13a624.67,624.67,0,0,1,29.79-117.83c.77.07,1.51.23,2.3.23a27.07,27.07,0,0,0,8.71-1.54A523.71,523.71,0,0,1,336.41,449Zm87.91-50.71a537.2,537.2,0,0,0-36.75-74.65A27.14,27.14,0,0,0,309,327.85c13.68-28.59,30.68-57.23,52.16-83.4,8.66,10.82,16.4,21.54,23.57,32.09a27.23,27.23,0,0,0,7.9,43.69,539.65,539.65,0,0,0-10.84,102.63ZM394,415.79A530.34,530.34,0,0,1,404.49,323a27.08,27.08,0,0,0,7.78-1.28,503.15,503.15,0,0,1,30.33,66.08Zm50-57c-5.38-12.38-12.51-27.11-21.24-43.1A27.14,27.14,0,0,0,417,271.39,653.32,653.32,0,0,1,444,195.55Z"/></svg>