<svg width="677" height="687" viewBox="0 0 677 687" fill="none" xmlns="http://www.w3.org/2000/svg">
<path d="M0 34.0313C0 12.2795 19.9173 -3.70673 41.1449 0.748453L518.373 101.645C554.539 109.245 554.539 160.611 518.373 168.211L41.1449 268.845C19.9173 273.301 0 257.314 0 235.563V34.0313ZM0 450.721C0 428.97 19.9173 412.984 41.1449 417.439L518.373 518.335C554.539 525.935 554.539 577.301 518.373 584.901L41.1449 685.536C19.9173 689.991 0 674.005 0 652.253V450.721ZM634.994 476.142C656.222 480.597 676.139 464.349 676.139 442.859V243.687C676.139 221.935 656.222 205.949 634.994 210.404L159.338 309.99C123.173 317.59 123.173 369.218 159.338 376.556L634.994 476.142Z" fill="url(#paint0_linear_7_145)"/>
<defs>
<linearGradient id="paint0_linear_7_145" x1="35.5484" y1="277.998" x2="575.902" y2="541.076" gradientUnits="userSpaceOnUse">
<stop stop-color="#2BDA9B"/>
<stop offset="0.5" stop-color="#3492CF"/>
<stop offset="1" stop-color="#7856FF"/>
</linearGradient>
</defs>
</svg>
