<svg width="70" height="70" fill="none" xmlns="http://www.w3.org/2000/svg"><g clip-path="url(#a)"><path d="M70 35c0 19.33-15.67 35-35 35S0 54.33 0 35 15.67 0 35 0s35 15.67 35 35z" fill="#0B0F14"/><path fill-rule="evenodd" clip-rule="evenodd" d="M35 66.5c17.397 0 31.5-14.103 31.5-31.5S52.397 3.5 35 3.5 3.5 17.603 3.5 35 17.603 66.5 35 66.5zm0 3.5c19.33 0 35-15.67 35-35S54.33 0 35 0 0 15.67 0 35s15.67 35 35 35z" fill="url(#b)"/><path fill-rule="evenodd" clip-rule="evenodd" d="M35.288 17.5c-2.098 0-3.735.79-4.819 2.072-1.049 1.242-1.488 2.835-1.488 4.355 0 1.607.66 3.414 1.68 4.824 1 1.381 2.595 2.706 4.627 2.706 2.028 0 3.624-1.317 4.625-2.698 1.021-1.41 1.681-3.217 1.681-4.832 0-1.516-.42-3.111-1.465-4.358-1.083-1.29-2.727-2.069-4.841-2.069zm-3.432 6.427c0-1.048.306-1.98.847-2.62.507-.6 1.304-1.05 2.584-1.05 1.317 0 2.109.453 2.602 1.04.53.633.83 1.561.83 2.63 0 .97-.427 2.238-1.167 3.258-.76 1.049-1.598 1.515-2.264 1.515-.664 0-1.503-.467-2.265-1.52-.74-1.024-1.167-2.293-1.167-3.253z" fill="#9488F0"/><path d="M25.696 37.686c-2.914-.31-5.321 1.924-5.321 4.212 0 2.276 1.871 4.342 5.39 4.342 1.265 0 2.558-.532 3.978-1.523 1.654-1.155 3.026-2.512 4.4-3.872 1.376-1.362 2.755-2.727 4.422-3.89 1.652-1.154 3.54-2.052 5.67-2.052 4.854 0 8.265 3.069 8.265 7.099 0 4.018-3.988 7.434-8.513 6.953-1.816-.192-3.947-.781-5.66-2.382l2.006-1.975c1.09 1.019 2.516 1.463 3.97 1.616h.001c2.913.31 5.321-1.924 5.321-4.212 0-2.276-1.871-4.342-5.39-4.342-1.265 0-2.558.532-3.978 1.523-1.654 1.155-3.026 2.513-4.4 3.872-1.376 1.362-2.755 2.727-4.422 3.89-1.652 1.154-3.54 2.052-5.67 2.052-4.854 0-8.265-3.068-8.265-7.099 0-4.018 3.988-7.434 8.513-6.952 1.816.191 3.947.78 5.66 2.381l-2.006 1.975c-1.09-1.018-2.516-1.463-3.97-1.616h-.001z" fill="#9488F0"/></g><defs><linearGradient id="b" x1="0" y1="0" x2="82.353" y2="20.588" gradientUnits="userSpaceOnUse"><stop stop-color="#6046FF"/><stop offset="1" stop-color="#22D49F"/></linearGradient><clipPath id="a"><path fill="#fff" d="M0 0h70v70H0z"/></clipPath></defs></svg>