<svg width="166" height="166" viewBox="0 0 166 166" fill="none" xmlns="http://www.w3.org/2000/svg">
<rect width="166" height="166" fill="#111111"/>
<path d="M83 55.0157C99.4702 55.0157 114.993 50.9411 128.626 43.7401V51.4462C128.626 53.3202 127.551 55.0338 125.84 55.7789C122.295 57.3236 118.65 58.6823 114.919 59.843H123.824V62.2566C123.824 64.9224 121.673 67.0838 119.021 67.0838H46.9791C44.3266 67.0838 42.1764 64.9224 42.1764 62.2566V59.843H51.0807C47.3497 58.6823 43.7053 57.3236 40.1597 55.7789C38.4489 55.0338 37.3736 53.3202 37.3736 51.4462V43.7401C51.0065 50.9411 66.5298 55.0157 83 55.0157Z" fill="url(#paint0_linear_1444_37982)"/>
<path d="M109.935 71.3281C112.64 71.3281 114.832 73.4998 114.832 76.1788V117.409C114.832 120.088 112.64 122.26 109.935 122.26H102.589V85.8801C102.589 84.5406 101.493 83.4548 100.141 83.4548H65.8595C64.5071 83.4548 63.4108 84.5406 63.4108 85.8801V122.26H56.0649C53.3601 122.26 51.1676 120.088 51.1676 117.409V76.1788C51.1676 73.4998 53.3601 71.3281 56.0649 71.3281H109.935Z" fill="url(#paint1_linear_1444_37982)"/>
<defs>
<linearGradient id="paint0_linear_1444_37982" x1="37.3736" y1="55.4119" x2="128.626" y2="55.4119" gradientUnits="userSpaceOnUse">
<stop stop-color="#F9F128"/>
<stop offset="0.5" stop-color="#C2F147"/>
<stop offset="1" stop-color="#2CEAA3"/>
</linearGradient>
<linearGradient id="paint1_linear_1444_37982" x1="51.1676" y1="96.794" x2="114.832" y2="96.794" gradientUnits="userSpaceOnUse">
<stop stop-color="#F9F128"/>
<stop offset="0.5" stop-color="#C2F147"/>
<stop offset="1" stop-color="#2CEAA3"/>
</linearGradient>
</defs>
</svg>
