<svg width="32" height="33" viewBox="0 0 32 33" fill="none" xmlns="http://www.w3.org/2000/svg">
<path d="M16 -3.56375e-08C7.16287 -1.59542e-08 1.59549e-08 7.16322 3.56392e-08 16.0008C5.53236e-08 24.8384 7.16287 32.0016 16 32.0016C24.8371 32.0016 32 24.8384 32 16.0008C32 7.16322 24.8355 -5.53172e-08 16 -3.56375e-08ZM11.3469 17.9105L11.9936 18.9365C13.2165 20.8766 11.8223 23.4041 9.52861 23.4041C8.81313 23.4041 8.23209 22.8247 8.23209 22.1075L8.23209 9.89245C8.23209 9.17693 8.81153 8.59587 9.52861 8.59587C11.8223 8.59587 13.2165 11.1234 11.9936 13.0635L11.3469 14.0895C10.6106 15.2565 10.6106 16.7435 11.3469 17.9105ZM16 18.3395C14.7083 18.3395 13.6599 17.2926 13.6599 15.9992C13.6599 14.7058 14.7067 13.6589 16 13.6589C17.2933 13.6589 18.3401 14.7058 18.3401 15.9992C18.3401 17.2926 17.2933 18.3395 16 18.3395ZM23.4254 22.1075C23.4254 22.8231 22.8459 23.4041 22.1289 23.4041C19.8351 23.4041 18.441 20.8766 19.6639 18.9365L20.3105 17.9105C21.0468 16.7435 21.0468 15.2565 20.3105 14.0895L19.6639 13.0635C18.441 11.1234 19.8351 8.59587 22.1289 8.59587C22.8443 8.59587 23.4254 9.17533 23.4254 9.89245L23.4254 22.1075Z" fill="#104499"/>
</svg>
