<svg width="129" height="129" viewBox="0 0 129 129" fill="none" xmlns="http://www.w3.org/2000/svg">
<rect x="0.422852" y="0.591797" width="128" height="128" rx="12" fill="black"/>
<path d="M36.4741 30.6603C37.3935 29.5121 39.0582 29.3205 40.2798 30.14C46.6303 34.4004 54.7101 37.1723 64.177 37.1723C73.779 37.1722 82.2813 34.4146 88.6126 30.171C89.8462 29.3442 91.5311 29.5309 92.4563 30.6925L103.46 44.507C103.77 44.8965 103.705 45.4642 103.31 45.7663C92.8709 53.7364 79.0447 58.3873 64.177 58.3873C49.1513 58.3873 35.7635 53.4104 25.55 45.7663C25.1476 45.4652 25.0799 44.8913 25.394 44.4989L36.4741 30.6603Z" fill="white"/>
<path d="M36.4741 98.5233C37.3935 99.6715 39.0582 99.863 40.2798 99.0436C46.6303 94.7832 54.7101 92.0113 64.177 92.0113C73.779 92.0113 82.2813 94.769 88.6126 99.0126C89.8462 99.8394 91.5311 99.6527 92.4563 98.4911L103.46 84.6766C103.77 84.2871 103.705 83.7194 103.31 83.4172C92.8709 75.4472 79.0447 70.7963 64.177 70.7963C49.1513 70.7963 35.7635 75.7732 25.55 83.4173C25.1476 83.7184 25.0799 84.2923 25.394 84.6847L36.4741 98.5233Z" fill="white"/>
</svg>
