<svg width="390" height="221" viewBox="0 0 390 221" fill="none" xmlns="http://www.w3.org/2000/svg">
<path d="M15.9144 0H186.641C189.73 0 192.231 2.44263 192.231 5.45957V83.5874C192.231 88.4654 189.321 92.8927 184.787 94.921L163.283 104.561C162.233 105.033 161.556 106.058 161.556 107.192C161.556 108.312 162.211 109.322 163.246 109.802L184.944 119.878C189.395 121.943 192.231 126.326 192.231 131.146V215.533C192.231 218.55 189.73 220.993 186.641 220.993H15.9144C7.12352 220.993 0 214.036 0 205.45V15.5427C0 6.95714 7.12352 0 15.9144 0ZM108.513 147.328C112.867 147.328 115.971 146.754 117.817 145.613C119.827 144.464 120.832 142.341 120.832 139.23V138.736C120.832 135.464 119.745 133.167 117.564 131.858C115.554 130.55 112.116 129.896 107.255 129.896H75.426V147.328H108.513ZM107.009 87.6585C114.721 87.6585 118.577 84.9541 118.577 79.5527V78.3241C118.577 75.2127 117.572 73.0827 115.562 71.9413C113.716 70.6328 110.619 69.9785 106.257 69.9785H75.4334V87.6585H107.017H107.009ZM206.701 129.161H277.058C277.058 134.73 278.063 138.576 280.073 140.706C282.254 142.836 285.35 143.897 289.377 143.897C296.248 143.897 299.687 140.051 299.687 132.353C299.687 128.587 298.511 125.89 296.166 124.247C293.985 122.611 290.635 121.79 286.11 121.79H247.388V93.3071L306.974 78.8185H206.701C203.903 78.8185 201.632 76.6012 201.632 73.8678V4.13648C201.632 1.85378 203.53 0 205.868 0H370.818C379.609 0 386.732 6.95714 386.732 15.5427V71.2725C386.732 77.5681 382.303 83.0422 376.036 84.5034L310.748 99.6972L313.763 100.192H376.073C383.762 100.192 390 106.284 390 113.793V205.457C390 214.043 382.876 221 374.086 221H205.868C203.53 221 201.632 219.146 201.632 216.864V134.112C201.632 131.379 203.903 129.161 206.701 129.161Z" fill="#3368EF" style="fill:#3368EF;fill:color(display-p3 0.2000 0.4078 0.9373);fill-opacity:1;"/>
</svg>
