<svg width="72" height="72" viewBox="0 0 72 72" fill="none" xmlns="http://www.w3.org/2000/svg">
<circle cx="36" cy="36" r="36" fill="#05DB4A"/>
<path d="M53.4983 22.4857C49.7123 18.6996 44.8354 16.7255 39.4675 16.6154H25.9926C17.681 16.7255 11.0769 23.3691 11.0769 31.6708C11.0769 39.9724 17.8306 46.7261 26.1323 46.7261H39.466C45.0189 46.7261 49.3948 42.2091 49.3948 36.6563C49.3948 31.1035 44.8777 26.5864 39.3249 26.5864H25.7216L23.7489 34.1642H39.3249C40.6994 34.1642 41.817 35.2818 41.817 36.6563C41.817 38.0307 40.6994 39.1483 39.3249 39.1483H25.9912C21.8678 39.1483 18.6547 35.7941 18.6547 31.6708C18.6547 27.5474 21.8608 24.2595 25.9912 24.1932H39.459C46.3312 24.1932 51.7824 29.7841 51.7824 36.6577C51.7824 43.5313 46.1915 49.1222 39.3179 49.1222H20.9576L18.9849 56.7H39.4675C44.8058 56.5984 49.7123 54.6158 53.4983 50.8297C57.2844 47.0436 59.3687 42.0115 59.3687 36.6577C59.3687 31.3039 57.2844 26.2718 53.4983 22.4857Z" fill="black"/>
</svg>
