<svg width="587" height="174" viewBox="0 0 587 174" fill="none" xmlns="http://www.w3.org/2000/svg">
    <path d="M244.44 141.778L285.137 32.198H302.989L344.29 141.778H327.649L319.025 118.048H268.646L260.174 141.778H244.44ZM293.608 47.7658L273.336 104.899H314.184L293.608 47.7658ZM348.585 60.462V40.0575H362.352V60.462H377.783V71.4953H362.352V119.711C362.352 128.175 362.958 130.291 370.825 130.291H377.783V141.778H367.799C352.216 141.778 348.585 138.302 348.585 121.373V71.4953H335.726V60.462H348.585ZM400.017 32.198V141.778H386.25V32.198H400.017ZM464.065 107.77V102.632C439.102 105.05 423.217 108.828 423.217 120.013C423.217 127.721 429.118 132.86 438.951 132.86C451.811 132.86 464.065 126.966 464.065 107.77ZM435.925 143.743C420.645 143.743 407.937 135.279 407.937 120.315C407.937 101.12 429.723 95.3765 463.006 91.7489V89.784C463.006 74.8207 454.837 69.9841 444.549 69.9841C433.051 69.9841 426.546 76.0296 425.941 86.1564H411.719C412.93 68.6237 428.663 58.7994 444.398 58.7994C466.94 58.7994 476.925 69.3796 476.773 92.3534L476.622 111.095C476.47 124.85 477.076 134.07 478.74 141.778H464.821C464.367 138.755 463.914 135.43 463.762 130.593C458.77 139.057 450.449 143.743 435.925 143.743ZM549.178 84.1915H534.806C532.537 74.5184 525.275 70.74 515.592 70.74C507.574 70.74 498.497 73.6117 498.497 81.0176C498.497 87.5168 503.036 90.3885 510.903 92.0512L522.401 94.3183C537.227 97.0392 550.238 102.934 550.238 118.502C550.238 134.674 535.714 143.743 517.106 143.743C495.774 143.743 483.822 129.686 482.158 115.479H496.682C498.951 125.908 505.305 132.105 517.408 132.105C527.847 132.105 536.319 127.721 536.319 120.013C536.319 111.7 528.603 108.526 519.828 106.561L507.726 104.143C496.682 101.724 484.579 96.8877 484.579 81.6221C484.579 67.2632 499.102 58.9506 517.106 58.9506C534.806 58.9506 546.607 68.6237 549.178 84.1915Z" fill="white"/>
    <path fill-rule="evenodd" clip-rule="evenodd" d="M96.5518 150.126L56.2561 170.922H0L23.3557 132.367H169.748L193.104 170.922H136.839L96.5518 150.126Z" fill="white"/>
    <path fill-rule="evenodd" clip-rule="evenodd" d="M160.503 117.115L96.5448 150.126L32.5867 117.115L96.5448 11.5523L160.503 117.115ZM115.95 104.586L96.5448 72.5593L77.1402 104.586L96.5448 114.599L115.95 104.586Z" fill="white"/>
</svg>
