<svg xmlns="http://www.w3.org/2000/svg" viewBox="0 0 40.02 51.9" width="41" height="52"><path d="M28.81 12.52l9.26 4.91c1.2.74 1.95 1.95 1.95 3.33v21.03c0 1.3-.65 2.41-1.67 3.15l-9.82 6.3c-1.2.83-2.69.83-3.89.19l-7.87-4.26 13.53-8.15.09-15.75L20.2 17.9l8.62-5.37zm-6.02 26.4l2.22 1.11-8.62 5.28-2.22-1.11 8.62-5.28zm-1.48-3.8l2.22 1.11-8.62 5.28-2.32-1.11 8.71-5.28zM15.75.57l7.5 3.98L9.73 12.8l-.09 15.66 10.19 5.47-8.62 5.37-8.89-4.82C.84 33.74 0 32.16 0 30.59v-20.2c0-1.48.74-2.96 2.04-3.8L11.12.76a4.39 4.39 0 0 1 4.63-.19zm10.56 8.89l2.22 1.11-8.62 5.28-2.22-1.11 8.62-5.28zm-1.57-3.8l2.32 1.2-8.62 5.28-2.32-1.2 8.62-5.28z" fill="#373737" fill-rule="evenodd"/></svg>