<svg width="500" height="500" viewBox="0 0 500 500" fill="none" xmlns="http://www.w3.org/2000/svg">
<rect width="500" height="500" fill="white"/>
<path d="M102.163 301.9C76.2601 269.689 78.0642 222.085 107.568 192.014C138.999 159.995 189.949 159.995 221.38 192.014C252.803 224.041 252.803 275.957 221.38 307.984C190.905 339.036 142.071 339.974 110.488 310.811L181.544 238.401L190.079 247.098L146.693 291.313C162.901 298.556 182.5 295.411 195.767 281.893C213.055 264.277 213.055 235.721 195.767 218.113C178.486 200.497 150.461 200.497 133.173 218.113C117.835 233.742 116.11 257.995 128 275.566L102.163 301.9Z" fill="#9200E1"/>
<path d="M315.802 266.314V254.051H416C413.964 296.141 380.7 329.858 339.321 331.645C291.958 333.697 253.021 293.387 255.759 245.162C258.194 202.246 294.247 168.204 335.858 168.204C377.469 168.204 411.674 200.474 415.703 241.788H379.258C375.491 220.858 357.493 205 335.858 205C308.608 205 287.125 230.168 292.581 258.946C295.957 276.731 309.702 290.692 327.171 294.088C349.494 298.422 369.586 285.605 376.983 266.314H315.802Z" fill="#9200E1"/>
</svg>
