<svg width="335" height="335" viewBox="0 0 335 335" fill="none" xmlns="http://www.w3.org/2000/svg">
<circle cx="167.5" cy="167.5" r="167.5" fill="url(#paint0_linear_1_16)"/>
<g filter="url(#filter0_d_1_16)">
<path d="M211.273 57.705L109.961 102.213C101.706 105.839 97.9543 115.47 101.582 123.723C105.209 131.977 114.842 135.728 123.098 132.101L224.409 87.5933C232.664 83.9666 236.416 74.3359 232.788 66.0825C229.161 57.829 219.528 54.0783 211.273 57.705Z" fill="white"/>
</g>
<g filter="url(#filter1_d_1_16)">
<path d="M201.067 130.943L159.459 149.221C151.204 152.848 147.452 162.479 151.08 170.732C154.707 178.986 164.34 182.736 172.596 179.11L214.203 160.831C222.458 157.204 226.21 147.574 222.582 139.32C218.955 131.067 209.322 127.316 201.067 130.943Z" fill="white"/>
</g>
<g filter="url(#filter2_d_1_16)">
<path d="M131.538 179.221C127.911 170.968 118.278 167.217 110.023 170.843C101.767 174.47 98.0159 184.101 101.643 192.354C105.271 200.608 114.904 204.358 123.159 200.732C131.414 197.105 135.166 187.474 131.538 179.221Z" fill="white"/>
</g>
<g filter="url(#filter3_d_1_16)">
<path d="M211.394 200.552L110.082 245.059C101.827 248.686 98.0754 258.317 101.703 266.57C105.33 274.824 114.963 278.574 123.219 274.948L224.53 230.44C232.785 226.813 236.537 217.183 232.909 208.929C229.282 200.676 219.649 196.925 211.394 200.552Z" fill="white"/>
</g>
<defs>
<filter id="filter0_d_1_16" x="96.1983" y="56.3218" width="141.973" height="85.1624" filterUnits="userSpaceOnUse" color-interpolation-filters="sRGB">
<feFlood flood-opacity="0" result="BackgroundImageFix"/>
<feColorMatrix in="SourceAlpha" type="matrix" values="0 0 0 0 0 0 0 0 0 0 0 0 0 0 0 0 0 0 127 0" result="hardAlpha"/>
<feOffset dy="4"/>
<feGaussianBlur stdDeviation="2"/>
<feComposite in2="hardAlpha" operator="out"/>
<feColorMatrix type="matrix" values="0 0 0 0 0 0 0 0 0 0 0 0 0 0 0 0 0 0 0.25 0"/>
<feBlend mode="normal" in2="BackgroundImageFix" result="effect1_dropShadow_1_16"/>
<feBlend mode="normal" in="SourceGraphic" in2="effect1_dropShadow_1_16" result="shape"/>
</filter>
<filter id="filter1_d_1_16" x="145.696" y="129.559" width="82.2695" height="58.9335" filterUnits="userSpaceOnUse" color-interpolation-filters="sRGB">
<feFlood flood-opacity="0" result="BackgroundImageFix"/>
<feColorMatrix in="SourceAlpha" type="matrix" values="0 0 0 0 0 0 0 0 0 0 0 0 0 0 0 0 0 0 127 0" result="hardAlpha"/>
<feOffset dy="4"/>
<feGaussianBlur stdDeviation="2"/>
<feComposite in2="hardAlpha" operator="out"/>
<feColorMatrix type="matrix" values="0 0 0 0 0 0 0 0 0 0 0 0 0 0 0 0 0 0 0.25 0"/>
<feBlend mode="normal" in2="BackgroundImageFix" result="effect1_dropShadow_1_16"/>
<feBlend mode="normal" in="SourceGraphic" in2="effect1_dropShadow_1_16" result="shape"/>
</filter>
<filter id="filter2_d_1_16" x="96.2598" y="169.46" width="40.6621" height="40.6548" filterUnits="userSpaceOnUse" color-interpolation-filters="sRGB">
<feFlood flood-opacity="0" result="BackgroundImageFix"/>
<feColorMatrix in="SourceAlpha" type="matrix" values="0 0 0 0 0 0 0 0 0 0 0 0 0 0 0 0 0 0 127 0" result="hardAlpha"/>
<feOffset dy="4"/>
<feGaussianBlur stdDeviation="2"/>
<feComposite in2="hardAlpha" operator="out"/>
<feColorMatrix type="matrix" values="0 0 0 0 0 0 0 0 0 0 0 0 0 0 0 0 0 0 0.25 0"/>
<feBlend mode="normal" in2="BackgroundImageFix" result="effect1_dropShadow_1_16"/>
<feBlend mode="normal" in="SourceGraphic" in2="effect1_dropShadow_1_16" result="shape"/>
</filter>
<filter id="filter3_d_1_16" x="96.3194" y="199.168" width="141.973" height="85.1624" filterUnits="userSpaceOnUse" color-interpolation-filters="sRGB">
<feFlood flood-opacity="0" result="BackgroundImageFix"/>
<feColorMatrix in="SourceAlpha" type="matrix" values="0 0 0 0 0 0 0 0 0 0 0 0 0 0 0 0 0 0 127 0" result="hardAlpha"/>
<feOffset dy="4"/>
<feGaussianBlur stdDeviation="2"/>
<feComposite in2="hardAlpha" operator="out"/>
<feColorMatrix type="matrix" values="0 0 0 0 0 0 0 0 0 0 0 0 0 0 0 0 0 0 0.25 0"/>
<feBlend mode="normal" in2="BackgroundImageFix" result="effect1_dropShadow_1_16"/>
<feBlend mode="normal" in="SourceGraphic" in2="effect1_dropShadow_1_16" result="shape"/>
</filter>
<linearGradient id="paint0_linear_1_16" x1="33" y1="256" x2="302" y2="84.5" gradientUnits="userSpaceOnUse">
<stop stop-color="#2E5AD0"/>
<stop offset="1" stop-color="#4076F4"/>
</linearGradient>
</defs>
</svg>
