<?xml version="1.0" encoding="UTF-8"?>
<svg id="Layer_2" xmlns="http://www.w3.org/2000/svg" version="1.1" viewBox="0 0 358.2 358.2">
  <!-- Generator: Adobe Illustrator 29.1.0, SVG Export Plug-In . SVG Version: 2.1.0 Build 142)  -->
  <defs>
    <style>
      .st0 {
        fill: #0d0d0d;
        fill-rule: evenodd;
      }
    </style>
  </defs>
  <g id="Layer_1-2">
    <path class="st0" d="M358.2,180.1v5.4h-87.1v-4h-83.9v-5h83.9v-3.9h87c.1,2.5.1,4.9.1,7.4h0ZM185.7,162.2l82-10.1.5,3.9,86.6-10.7c-.8-4.2-1.8-8.4-2.9-12.6l-85.3,10.5.5,3.9-82.4,10.1c.4,1.6.7,3.2,1,4.8h0v.2ZM181.4,146.3l78.4-19.6,1,3.8,83.2-20.8c-1.7-4-3.5-8-5.5-11.9l-80.8,20.2,1,3.8-79.1,19.8c.6,1.5,1.3,3.1,1.8,4.6h0ZM174.4,131.4l73.3-27.7,1.4,3.7,77.6-29.3c-2.5-3.7-5.2-7.3-8-10.7l-74.1,28,1.4,3.7-74.2,28c.9,1.4,1.8,2.8,2.6,4.3h0ZM164.8,117.7l64.7-33.7,1.8,3.5,71.6-37.3c-3.3-3.2-6.7-6.2-10.2-9.2l-67.3,35.1,1.8,3.5-65.8,34.3c1.2,1.2,2.3,2.5,3.4,3.8h0ZM149.2,102.9l58.6-37.3,2.1,3.3,64.7-41.1c-4.1-2.6-8.2-5-12.5-7.3l-59.1,37.6,2.1,3.3-60.3,38.3c1.5,1,2.9,2,4.3,3.1h.1ZM135.4,94.2l49.1-40.3,2.5,3.1,55.3-45.4c-4.7-1.8-9.5-3.4-14.4-4.8l-49.1,40.2,2.5,3.1-50.9,41.8c1.7.7,3.3,1.5,4.9,2.3h0ZM117,87.1l38.8-38.6,2.8,2.8L207.9,2.2c-5.3-.9-10.8-1.5-16.3-1.9l-42.1,41.8,2.8,2.8-41,40.8c1.9.4,3.8.8,5.6,1.3h0ZM95.6,83.8l30.9-37.5,3.1,2.5L169.8,0c-6.1.3-12.1.9-18.1,1.8l-32.1,38.9,3.1,2.5-33.5,40.6h6.4ZM77,84.9l23.8-36.9,3.3,2.2,28.8-44.6c-6.6,1.7-13,3.8-19.3,6.2l-20.3,31.4,3.3,2.2-26.4,40.9c2.2-.5,4.4-.9,6.7-1.3h0ZM56.4,90.6l17.1-32.1,3.5,1.9,22.7-42.5c-7.3,3.5-14.3,7.6-21,12l-13,24.4,3.5,1.9-20.2,37.8c2.4-1.2,4.9-2.3,7.4-3.4h0ZM41.6,98.2l7.3-20.7,3.7,1.3,14.2-40.2c-7.2,5.7-13.9,11.9-20.2,18.7l-6.1,17.3,3.7,1.3-9.5,27.1c2.2-1.7,4.5-3.3,6.9-4.8ZM23.4,113l3.2-15,3.9.8,6.5-30.3c-6.8,8.7-12.9,18-18,27.8l2.9.6-5.9,24.9c2.3-3.1,4.8-6,7.5-8.8h-.1ZM10.1,130.6v-19.9c-4.8,12.7-8.2,28.5-10.1,44.1,2.2-8.6,5.7-16.7,10.1-24.2h0ZM.1,203.9c1.9,13.2,5.2,26,9.8,38.2v-14.7c-4.3-7.3-7.6-15.1-9.8-23.5ZM16.6,237.2l5.1,24.1-2.9.6c5.2,9.9,11.2,19.2,18,27.8l-6.5-30.3-3.9.8-3.3-15.2c-2.4-2.5-4.6-5.1-6.7-7.8h.2ZM34.6,255.1l9.6,27.2-3.7,1.3,6.1,17.3c6.2,6.7,13,13,20.2,18.6l-14.2-40.2-3.7,1.3-7.3-20.8c-2.4-1.5-4.7-3.1-6.9-4.8h0ZM48.8,264.1l20.2,37.9-3.5,1.9,13,24.4c6.7,4.5,13.7,8.5,21,12l-22.7-42.5-3.5,1.9-17.2-32.2c-2.5-1-5-2.1-7.4-3.4h0ZM70.2,271.9l26.4,40.9-3.3,2.1,20.3,31.4c6.3,2.4,12.7,4.5,19.3,6.2l-28.8-44.6-3.3,2.1-23.9-36.9c-2.3-.4-4.5-.8-6.7-1.3h0ZM89.1,274.4l33.5,40.6-3.1,2.5,32.1,38.9c5.9.9,12,1.5,18.1,1.8l-40.3-48.8-3.1,2.5-30.9-37.5h-6.4,0ZM111.3,272.5l41,40.8-2.8,2.8,42.1,41.9c5.5-.4,10.9-1,16.3-1.9l-49.3-49-2.8,2.8-38.8-38.6c-1.8.5-3.7,1-5.6,1.3h0ZM130.4,266.4l50.9,41.7-2.5,3.1,49.1,40.2c4.9-1.4,9.7-3,14.4-4.8l-55.3-45.4-2.5,3.1-49.1-40.3c-1.6.8-3.2,1.6-4.9,2.3h-.1ZM144.8,258.4l60.3,38.3-2.1,3.4,59.1,37.6c4.3-2.3,8.5-4.7,12.5-7.3l-64.7-41.1-2.1,3.4-58.6-37.2c-1.4,1.1-2.9,2.1-4.3,3.1h0v-.2ZM161.4,244.3l65.8,34.3-1.8,3.5,67.3,35.1c3.5-2.9,7-6,10.2-9.1l-71.6-37.3-1.8,3.5-64.7-33.7c-1.1,1.3-2.2,2.6-3.4,3.8h0ZM171.8,231.1l74.1,28-1.4,3.7,74.1,28c2.8-3.5,5.4-7.1,8-10.7l-77.6-29.3-1.4,3.7-73.2-27.6c-.8,1.4-1.7,2.9-2.6,4.3h0ZM179.6,216.5l79,19.7-1,3.9,80.8,20.2c2-3.9,3.8-7.8,5.5-11.9l-83.2-20.8-1,3.9-78.3-19.6c-.6,1.6-1.2,3.1-1.8,4.6h0ZM184.7,200.8l82.3,10.1-.5,3.9,85.3,10.5c1.1-4.1,2.1-8.3,2.9-12.6l-86.6-10.7-.5,3.9-81.9-10.1c-.3,1.6-.6,3.2-1,4.8h0v.2Z"/>
  </g>
</svg>