<?xml version="1.0" encoding="UTF-8"?>
<svg id="Layer_1" data-name="Layer 1" xmlns="http://www.w3.org/2000/svg" viewBox="0 0 165.78 184.59">
  <defs>
    <style>
      .cls-1 {
        fill: #f5bb60;
      }
    </style>
  </defs>
  <path class="cls-1" d="M165.53,57.19v70.22c0,7.8-4.16,15-10.92,18.9l-60.81,35.11c-6.75,3.9-15.07,3.9-21.82,0l-60.82-35.11c-6.75-3.9-10.91-11.1-10.91-18.9V57.19c0-7.8,4.16-15.01,10.91-18.9L71.98,3.17c6.75-3.89,15.07-3.89,21.82,0l60.81,35.12c6.76,3.89,10.92,11.1,10.92,18.9ZM129.95,98.08c2.06-3.57,2.06-7.96,0-11.53l-18.54-32.12c-2.06-3.56-5.86-5.76-9.98-5.76h-37.09c-4.11,0-7.92,2.2-9.98,5.76l-18.54,32.12c-2.06,3.57-2.06,7.96,0,11.53l18.54,32.11c2.06,3.57,5.87,5.77,9.98,5.77h37.09c4.12,0,7.92-2.2,9.98-5.77l18.54-32.11Z"/>
</svg>