<svg width="608" height="608" viewBox="0 0 608 608" fill="none" xmlns="http://www.w3.org/2000/svg">
<rect width="608" height="608" rx="304" fill="black"/>
<path d="M204.405 401.009C206.623 404.856 211.54 406.176 215.387 403.957C219.234 401.738 220.553 396.821 218.334 392.975C216.116 389.128 211.199 387.808 207.352 390.026C203.505 392.246 202.186 397.163 204.405 401.009Z" fill="white"/>
<path d="M180.937 422.222C184.259 427.981 191.621 429.958 197.381 426.636C203.141 423.313 205.116 415.951 201.794 410.191C198.472 404.431 191.11 402.455 185.349 405.777C179.59 409.099 177.614 416.462 180.937 422.222Z" fill="white"/>
<path d="M147.478 452.361C152.47 461.015 163.53 463.983 172.184 458.991C180.837 454 183.806 442.939 178.815 434.286C173.824 425.632 162.763 422.664 154.109 427.655C145.456 432.646 142.487 443.708 147.478 452.361Z" fill="white"/>
<path d="M402.596 207.991C400.377 204.145 395.46 202.825 391.613 205.044C387.766 207.262 386.447 212.179 388.666 216.026C390.885 219.872 395.801 221.193 399.648 218.974C403.495 216.755 404.814 211.838 402.596 207.991Z" fill="white"/>
<path d="M426.063 186.779C422.741 181.019 415.379 179.042 409.619 182.364C403.859 185.687 401.884 193.05 405.206 198.809C408.528 204.569 415.89 206.546 421.651 203.223C427.41 199.901 429.386 192.538 426.063 186.779Z" fill="white"/>
<path d="M459.522 156.639C454.53 147.986 443.47 145.018 434.816 150.009C426.163 155 423.194 166.061 428.185 174.714C433.176 183.368 444.237 186.337 452.891 181.345C461.544 176.354 464.513 165.293 459.522 156.639Z" fill="white"/>
<path d="M206.991 205.405C203.145 207.623 201.824 212.54 204.043 216.387C206.262 220.234 211.179 221.553 215.026 219.334C218.872 217.116 220.192 212.199 217.974 208.352C215.755 204.505 210.837 203.186 206.991 205.405Z" fill="white"/>
<path d="M185.778 181.936C180.019 185.259 178.042 192.621 181.364 198.381C184.687 204.141 192.05 206.116 197.809 202.794C203.569 199.472 205.546 192.11 202.223 186.349C198.901 180.59 191.538 178.614 185.778 181.936Z" fill="white"/>
<path d="M155.639 148.478C146.986 153.47 144.018 164.53 149.009 173.184C154 181.837 165.061 184.807 173.714 179.815C182.368 174.824 185.337 163.763 180.345 155.109C175.354 146.456 164.293 143.487 155.639 148.478Z" fill="white"/>
<path d="M400.009 403.596C403.855 401.377 405.175 396.46 402.956 392.613C400.738 388.766 395.82 387.447 391.974 389.666C388.127 391.885 386.807 396.801 389.026 400.648C391.245 404.495 396.162 405.814 400.009 403.596Z" fill="white"/>
<path d="M421.222 427.064C426.981 423.742 428.958 416.379 425.636 410.62C422.313 404.859 414.95 402.884 409.191 406.206C403.431 409.528 401.455 416.89 404.777 422.651C408.099 428.41 415.462 430.386 421.222 427.064Z" fill="white"/>
<path d="M451.361 460.522C460.014 455.53 462.982 444.47 457.991 435.816C453 427.163 441.939 424.194 433.286 429.185C424.632 434.176 421.663 445.237 426.655 453.891C431.646 462.544 442.707 465.513 451.361 460.522Z" fill="white"/>
<path d="M165.187 302.671C164.036 306.96 166.579 311.37 170.868 312.522C175.157 313.673 179.567 311.128 180.718 306.84C181.869 302.551 179.326 298.141 175.037 296.99C170.748 295.838 166.338 298.383 165.187 302.671Z" fill="white"/>
<path d="M133.593 301.076C131.869 307.498 135.677 314.102 142.099 315.825C148.522 317.549 155.125 313.74 156.848 307.318C158.572 300.896 154.764 294.292 148.341 292.569C141.919 290.845 135.316 294.655 133.593 301.076Z" fill="white"/>
<path d="M88.6228 298.73C86.0332 308.378 91.7557 318.298 101.404 320.887C111.052 323.477 120.973 317.755 123.562 308.107C126.152 298.459 120.43 288.538 110.781 285.948C101.133 283.359 91.2123 289.081 88.6228 298.73Z" fill="white"/>
<path d="M441.813 306.33C442.964 302.041 440.421 297.63 436.131 296.479C431.843 295.328 427.433 297.872 426.282 302.161C425.131 306.45 427.674 310.86 431.963 312.011C436.252 313.162 440.662 310.618 441.813 306.33Z" fill="white"/>
<path d="M473.407 307.924C475.131 301.502 471.323 294.898 464.901 293.175C458.478 291.451 451.875 295.26 450.151 301.682C448.428 308.104 452.236 314.708 458.659 316.432C465.081 318.155 471.684 314.346 473.407 307.924Z" fill="white"/>
<path d="M518.377 310.271C520.967 300.622 515.244 290.703 505.596 288.113C495.948 285.523 486.027 291.245 483.438 300.893C480.848 310.542 486.57 320.462 496.219 323.052C505.867 325.641 515.788 319.919 518.377 310.271Z" fill="white"/>
<path d="M305.329 166.187C301.04 165.036 296.63 167.579 295.479 171.869C294.328 176.157 296.872 180.567 301.16 181.718C305.449 182.869 309.859 180.326 311.01 176.037C312.162 171.748 309.617 167.338 305.329 166.187Z" fill="white"/>
<path d="M306.924 134.593C300.502 132.869 293.898 136.677 292.175 143.099C290.451 149.522 294.26 156.125 300.682 157.849C307.104 159.572 313.708 155.764 315.431 149.341C317.155 142.919 313.346 136.316 306.924 134.593Z" fill="white"/>
<path d="M309.271 89.6228C299.622 87.0332 289.702 92.7557 287.113 102.404C284.523 112.052 290.245 121.973 299.893 124.562C309.541 127.152 319.462 121.43 322.052 111.781C324.641 102.133 318.919 92.2123 309.271 89.6228Z" fill="white"/>
<path d="M301.671 442.813C305.959 443.964 310.37 441.421 311.521 437.132C312.672 432.843 310.128 428.433 305.839 427.282C301.55 426.131 297.14 428.674 295.989 432.963C294.838 437.253 297.382 441.662 301.671 442.813Z" fill="white"/>
<path d="M300.076 474.407C306.498 476.131 313.101 472.323 314.825 465.901C316.549 459.478 312.739 452.875 306.318 451.151C299.896 449.428 293.292 453.236 291.568 459.659C289.845 466.081 293.654 472.684 300.076 474.407Z" fill="white"/>
<path d="M297.729 519.377C307.378 521.967 317.297 516.244 319.887 506.596C322.476 496.948 316.755 487.027 307.107 484.438C297.458 481.848 287.538 487.57 284.948 497.219C282.359 506.867 288.081 516.788 297.729 519.377Z" fill="white"/>
<path d="M252.299 433C255.891 435.61 260.92 434.813 263.53 431.22C266.139 427.627 265.341 422.599 261.748 419.989C258.156 417.38 253.127 418.176 250.518 421.769C247.908 425.363 248.706 430.391 252.299 433Z" fill="white"/>
<path d="M239.504 461.931C244.883 465.839 252.413 464.646 256.32 459.266C260.228 453.886 259.034 446.357 253.654 442.449C248.274 438.542 240.745 439.735 236.837 445.115C232.929 450.495 234.124 458.024 239.504 461.931Z" fill="white"/>
<path d="M221.22 503.084C229.303 508.955 240.614 507.161 246.484 499.078C252.355 490.995 250.562 479.685 242.479 473.814C234.397 467.943 223.085 469.737 217.215 477.819C211.344 485.902 213.137 497.214 221.22 503.084Z" fill="white"/>
<path d="M354.702 176C351.109 173.391 346.081 174.187 343.471 177.781C340.861 181.374 341.659 186.402 345.252 189.011C348.845 191.621 353.873 190.824 356.483 187.231C359.093 183.638 358.295 178.61 354.702 176Z" fill="white"/>
<path d="M367.497 147.069C362.117 143.161 354.588 144.354 350.68 149.734C346.772 155.115 347.967 162.644 353.346 166.551C358.726 170.458 366.255 169.265 370.163 163.885C374.071 158.505 372.876 150.976 367.497 147.069Z" fill="white"/>
<path d="M385.78 105.916C377.697 100.045 366.387 101.839 360.516 109.922C354.645 118.005 356.438 129.316 364.521 135.186C372.604 141.057 383.915 139.264 389.786 131.181C395.656 123.098 393.863 111.787 385.78 105.916Z" fill="white"/>
<path d="M175 253.299C172.391 256.891 173.187 261.92 176.781 264.53C180.373 267.139 185.402 266.341 188.011 262.749C190.62 259.156 189.824 254.127 186.231 251.518C182.638 248.908 177.609 249.706 175 253.299Z" fill="white"/>
<path d="M146.069 240.504C142.161 245.883 143.354 253.413 148.734 257.32C154.115 261.228 161.644 260.034 165.551 254.654C169.458 249.274 168.265 241.745 162.885 237.837C157.505 233.929 149.976 235.124 146.069 240.504Z" fill="white"/>
<path d="M104.916 222.22C99.0456 230.303 100.839 241.614 108.922 247.484C117.005 253.355 128.316 251.562 134.187 243.479C140.057 235.397 138.264 224.085 130.181 218.215C122.098 212.344 110.787 214.137 104.916 222.22Z" fill="white"/>
<path d="M432 355.702C434.609 352.109 433.813 347.081 430.219 344.471C426.626 341.861 421.598 342.659 418.989 346.252C416.379 349.845 417.176 354.873 420.769 357.483C424.362 360.093 429.39 359.295 432 355.702Z" fill="white"/>
<path d="M460.931 368.497C464.839 363.117 463.646 355.588 458.266 351.68C452.886 347.772 445.357 348.967 441.449 354.346C437.542 359.726 438.735 367.255 444.115 371.163C449.495 375.071 457.024 373.876 460.931 368.497Z" fill="white"/>
<path d="M502.084 386.78C507.955 378.697 506.161 367.387 498.078 361.516C489.995 355.645 478.684 357.438 472.814 365.521C466.943 373.604 468.736 384.915 476.819 390.786C484.902 396.656 496.213 394.863 502.084 386.78Z" fill="white"/>
<path d="M176.432 359.159C177.127 363.544 181.246 366.536 185.633 365.841C190.018 365.146 193.009 361.026 192.314 356.641C191.619 352.255 187.5 349.263 183.114 349.958C178.728 350.653 175.737 354.773 176.432 359.159Z" fill="white"/>
<path d="M146.927 370.569C147.968 377.136 154.136 381.616 160.703 380.575C167.271 379.534 171.75 373.365 170.709 366.798C169.668 360.231 163.5 355.751 156.932 356.792C150.365 357.833 145.886 364.002 146.927 370.569Z" fill="white"/>
<path d="M104.899 386.739C106.464 396.606 115.73 403.335 125.597 401.771C135.463 400.207 142.194 390.941 140.629 381.075C139.065 371.208 129.799 364.478 119.932 366.042C110.065 367.606 103.335 376.873 104.899 386.739Z" fill="white"/>
<path d="M430.569 249.842C429.873 245.457 425.754 242.464 421.368 243.16C416.982 243.855 413.991 247.975 414.686 252.36C415.382 256.746 419.5 259.738 423.886 259.043C428.272 258.348 431.264 254.228 430.569 249.842Z" fill="white"/>
<path d="M460.073 238.432C459.032 231.865 452.865 227.384 446.298 228.425C439.73 229.467 435.25 235.635 436.292 242.202C437.333 248.769 443.5 253.249 450.068 252.208C456.635 251.167 461.114 244.999 460.073 238.432Z" fill="white"/>
<path d="M502.101 222.261C500.536 212.394 491.27 205.665 481.404 207.229C471.537 208.793 464.807 218.059 466.371 227.925C467.935 237.792 477.202 244.522 487.068 242.958C496.935 241.394 503.665 232.127 502.101 222.261Z" fill="white"/>
<path d="M248.842 177.432C244.456 178.127 241.464 182.246 242.159 186.633C242.855 191.018 246.974 194.009 251.36 193.314C255.745 192.619 258.738 188.5 258.042 184.114C257.347 179.728 253.227 176.737 248.842 177.432Z" fill="white"/>
<path d="M237.432 147.927C230.865 148.968 226.384 155.135 227.425 161.703C228.467 168.27 234.635 172.75 241.202 171.709C247.769 170.668 252.249 164.5 251.208 157.932C250.167 151.365 243.999 146.886 237.432 147.927Z" fill="white"/>
<path d="M221.261 105.899C211.394 107.464 204.665 116.73 206.229 126.597C207.793 136.463 217.059 143.194 226.925 141.629C236.792 140.065 243.522 130.799 241.958 120.932C240.394 111.065 231.127 104.335 221.261 105.899Z" fill="white"/>
<path d="M358.158 431.569C362.544 430.873 365.536 426.754 364.84 422.368C364.145 417.982 360.026 414.991 355.64 415.686C351.254 416.382 348.262 420.5 348.957 424.886C349.653 429.273 353.772 432.264 358.158 431.569Z" fill="white"/>
<path d="M369.568 461.073C376.135 460.032 380.616 453.865 379.574 447.298C378.533 440.73 372.365 436.25 365.798 437.292C359.231 438.333 354.75 444.5 355.792 451.068C356.833 457.635 363.001 462.114 369.568 461.073Z" fill="white"/>
<path d="M385.739 503.101C395.606 501.537 402.335 492.27 400.771 482.404C399.207 472.537 389.941 465.807 380.074 467.371C370.208 468.935 363.478 478.202 365.042 488.068C366.606 497.935 375.873 504.665 385.739 503.101Z" fill="white"/>
</svg>
