<svg width="250" height="250" viewBox="0 0 250 250" fill="none" xmlns="http://www.w3.org/2000/svg">
    <g clip-path="url(#clip0_4446_23)">
       <path fill-rule="evenodd" clip-rule="evenodd" d="M66.6311 14.1585C66.6311 6.261 73.0555 -0.153809 80.9988 -0.153809C88.942 -0.153809 95.3665 6.24587 95.3665 14.1585V98.1108C95.3665 106.008 88.942 112.423 80.9988 112.423C73.0707 112.423 66.6311 106.023 66.6311 98.1108V14.1585ZM0.155151 14.1587C0.155151 6.2461 6.5948 -0.153582 14.5229 -0.153582C22.4661 -0.153582 28.9057 6.2461 28.8906 14.1587V143.417H98.4198C106.317 143.417 112.732 149.842 112.732 157.785C112.732 165.728 106.332 172.153 98.4198 172.153H14.7003C14.6412 172.153 14.5821 172.154 14.5229 172.154C14.4163 172.154 14.3099 172.153 14.2039 172.15C10.4988 172.083 7.13506 170.602 4.62853 168.22C1.87384 165.613 0.155151 161.929 0.155151 157.841V14.1587ZM147.477 -0.153809C139.534 -0.153809 133.109 6.261 133.109 14.1585V98.1107C133.109 106.023 139.549 112.423 147.477 112.423C155.42 112.423 161.845 106.008 161.845 98.1107V14.1585C161.845 6.24587 155.42 -0.153809 147.477 -0.153809Z" fill="url(#paint0_linear_4446_23)"/>
    </g>
    <defs>
       <linearGradient id="paint0_linear_4446_23" x1="0.155151" y1="86" x2="161.845" y2="-0.154299" gradientUnits="userSpaceOnUse">
          <stop stop-color="#4400E2"/>
          <stop offset="0.421875" stop-color="#F94E6C"/>
          <stop offset="1" stop-color="#FFCB00"/>
       </linearGradient>
       <clipPath id="clip0_4446_23">
          <rect width="250" height="250" fill="white"/>
       </clipPath>
    </defs>
</svg>