<svg width="512" height="512" viewBox="0 0 33 33" fill="none" xmlns="http://www.w3.org/2000/svg">
<circle cx="16.5" cy="16.5" r="16" fill="#D33AD6"/>
<path fill-rule="evenodd" clip-rule="evenodd" d="M19.4471 9.79571C19.277 9.7882 19.0958 9.81482 18.9036 9.87557C18.8075 9.90594 18.6522 9.94771 18.4378 10.0009C18.2381 10.0465 18.0903 10.0844 17.9941 10.1148C17.1586 10.2972 16.6743 10.4035 16.5412 10.4339C16.3267 10.4492 16.0125 10.5062 15.5984 10.6049C15.5555 10.6152 15.5146 10.6249 15.4757 10.6341C15.4691 10.666 15.4611 10.6986 15.4519 10.7318C15.3151 11.1609 15.1157 11.6558 14.8537 12.2166C14.6001 12.792 14.3965 13.2795 14.2429 13.6792C14.143 13.9723 14.0216 14.2611 13.8786 14.5456C13.8763 14.5581 13.8518 14.5989 13.8053 14.6679C13.7743 14.7139 13.7541 14.762 13.7446 14.8123C13.734 14.9275 13.6264 15.232 13.4216 15.7259C13.2311 16.1443 13.0673 16.5094 12.9304 16.8212C12.6147 17.4886 12.4456 17.8526 12.423 17.9133C12.367 18.0326 12.2658 18.2732 12.1194 18.6353C12.0456 18.7901 11.97 18.9837 11.8927 19.216C11.7594 19.5676 11.6334 19.9988 11.5147 20.5098L11.3276 21.2352C11.3181 21.2855 11.295 21.3787 11.2581 21.5147C11.232 21.653 11.2065 21.7587 11.1815 21.832C11.1518 21.9304 11.0965 22.0758 11.0155 22.2683C10.9369 22.4483 10.8953 22.5508 10.8905 22.5759L10.7888 22.8491C10.7457 22.8405 10.6931 22.8236 10.631 22.7982C10.6268 22.7965 10.6228 22.7949 10.6187 22.7933C10.6488 22.9282 10.6816 23.0651 10.7169 23.204C10.7483 23.3394 10.7539 23.4262 10.7337 23.4645C10.7221 23.5189 10.722 23.5759 10.7335 23.6355C10.7127 24.0159 10.6937 24.2469 10.6763 24.3286C10.6589 24.4103 10.6415 24.5205 10.624 24.6592C10.6065 24.7979 10.5891 24.9081 10.5717 24.9897C10.5688 25.0033 10.5717 25.0182 10.5803 25.0344L10.5716 25.0753C10.5109 25.2471 10.4818 25.4687 10.4843 25.7402C10.4783 25.8815 10.4709 26.0011 10.4621 26.0989C10.3817 26.0239 10.3372 25.9783 10.3286 25.9621C10.3085 25.9433 10.2798 25.9084 10.2425 25.8573L10.152 25.7729C10.0946 25.703 10.0444 25.6561 10.0013 25.6322C10.0619 25.5174 10.0493 25.2935 9.9635 24.9606C10.0729 24.8995 10.1535 24.8605 10.2053 24.8436C10.283 24.8182 10.3017 24.7582 10.2616 24.6637C10.253 24.6475 10.2344 24.6219 10.2057 24.587C10.1856 24.5682 10.1669 24.5427 10.1497 24.5103C10.1439 24.5375 10.1309 24.5703 10.1107 24.6085C10.0876 24.6604 10.0674 24.6987 10.0502 24.7233L10.0071 24.6709C9.99007 24.5245 9.95425 24.4381 9.89965 24.4116L9.88675 24.3873C9.93003 24.2972 9.89992 24.2405 9.79642 24.2174C9.71882 24.1858 9.67006 24.1035 9.65014 23.9707C9.61336 23.5775 9.57922 23.3417 9.54771 23.2633C9.53911 23.2472 9.53625 23.2323 9.53915 23.2186C9.54205 23.205 9.5392 23.1901 9.53059 23.1739L9.53494 23.1535C9.52389 22.8659 9.51129 22.642 9.49716 22.482C9.46311 22.1891 9.43182 21.9682 9.4033 21.8193C9.39469 21.8031 9.39333 21.7529 9.39922 21.6686C9.4051 21.5844 9.39514 21.518 9.36933 21.4694C9.35502 21.4234 9.32202 21.3804 9.27031 21.3403C9.28761 21.3157 9.3006 21.2829 9.30929 21.2421C9.33537 21.1196 9.3441 21.0502 9.3355 21.034C9.3269 21.0179 9.31114 20.9787 9.28823 20.9165C9.26242 20.868 9.24667 20.8288 9.24096 20.799L9.26704 20.6765C9.28152 20.6084 9.28447 20.5663 9.27586 20.5501C9.27016 20.5203 9.2688 20.4701 9.27179 20.3995C9.27187 20.3424 9.26477 20.2909 9.25046 20.245C9.23615 20.199 9.20889 20.1572 9.16869 20.1197C9.16009 20.1035 9.15723 20.0886 9.16013 20.075C9.15443 20.0452 9.15302 20.0235 9.15592 20.0099C9.14785 19.6516 9.13671 19.4209 9.12249 19.3179C9.15409 19.3393 9.17134 19.3431 9.17424 19.3295C9.18864 19.3185 9.20018 19.2925 9.20887 19.2517L9.21757 19.2108C9.16867 19.2142 9.13698 19.2499 9.12249 19.3179C9.11679 19.2881 9.11112 19.2298 9.10551 19.143C9.11139 19.0588 9.10718 18.9936 9.09287 18.9477C9.07295 18.8149 9.08893 18.7115 9.14081 18.6375C9.19269 18.5636 9.19858 18.4793 9.15846 18.3848C9.08683 18.2119 9.07126 18.0587 9.11173 17.9251C9.11463 17.9115 9.11322 17.8898 9.10752 17.86C9.0818 17.7544 9.06635 17.5157 9.06118 17.1438C9.06417 17.0731 9.06602 16.8097 9.06673 16.3536C9.07262 16.2693 9.07284 16.1268 9.0674 15.9259C9.07057 15.7412 9.07079 15.5987 9.06807 15.4982C9.06535 15.3978 9.07278 15.2497 9.09034 15.054C9.0546 15.0691 9.02767 15.0841 9.00954 15.099C9.01846 14.3702 8.99716 13.3579 8.90017 12.5033C8.82233 12.5061 8.74446 12.481 8.66657 12.4278C8.563 12.3672 8.50748 12.2724 8.5 12.1435C8.51471 12.0222 8.53683 11.916 8.56635 11.825C8.63282 11.6961 8.63644 11.571 8.5772 11.4497C8.53277 11.3587 8.56229 11.2677 8.66577 11.1767C8.73967 11.1008 8.85793 11.0022 9.02055 10.8808C9.39016 10.6532 9.73763 10.4938 10.063 10.4027C10.1591 10.3723 10.2996 10.3191 10.4844 10.2432L10.9169 10.1066C11.0056 10.061 11.0796 10.042 11.1387 10.0496C11.2275 10.042 11.6785 9.9053 12.4918 9.63955C12.6545 9.59398 12.9022 9.51426 13.2349 9.40038C13.5676 9.28649 13.8153 9.20677 13.9779 9.1612C14.1036 9.11565 14.477 9.02829 15.0981 8.89911C15.1795 8.87633 15.2867 8.84974 15.4198 8.81936C15.4937 8.78141 15.5491 8.76243 15.5861 8.76241C15.7784 8.77749 16.0446 8.73567 16.3847 8.63695C16.7396 8.53064 16.9873 8.46987 17.1278 8.45464C17.2313 8.43943 17.3829 8.40904 17.5826 8.36345L18.0484 8.29501C18.115 8.27981 18.2111 8.24944 18.3368 8.20389C18.4847 8.16591 18.5919 8.13933 18.6584 8.12413C19.8119 7.83549 20.6696 7.6228 21.2315 7.48607C21.3794 7.44809 21.6049 7.39871 21.9081 7.33791C22.2113 7.27712 22.4368 7.22774 22.5847 7.18976C23.5607 6.99218 24.2853 6.8478 24.7586 6.7566L25.5239 6.61978C25.8714 6.57413 26.1303 6.5361 26.3003 6.5057C26.3151 6.49811 26.3336 6.4981 26.3558 6.50567L26.4224 6.52839C26.4593 6.52837 26.4852 6.52457 26.5 6.51698C26.4632 6.74447 26.3782 6.93028 26.2452 7.0744L26.0789 7.24508C25.9533 7.32854 25.8388 7.49162 25.7354 7.7343C25.6763 7.9163 25.4842 8.14766 25.159 8.42835C25.0369 8.53186 24.8596 8.66863 24.6269 8.83866C24.7792 9.17771 24.8157 9.51245 24.7364 9.84291C24.721 9.85833 24.713 9.89722 24.7124 9.95957C24.6564 10.2697 24.6076 10.5385 24.5661 10.7661C24.0999 11.5136 23.0895 12.5653 22.1437 13.5497C21.6222 14.0926 21.1203 14.615 20.7401 15.0546C20.8009 14.8713 20.8092 14.7255 20.7652 14.6171L19.5873 16.0776C19.4333 16.263 19.2175 16.5569 18.9398 16.9592C18.647 17.3458 18.4311 17.6396 18.2923 17.8408C18.0609 18.1657 17.7526 18.5833 17.3673 19.0936C17.3209 19.171 17.1203 19.465 16.7654 19.9756L15.9331 21.0891C15.5632 21.584 14.9933 22.3105 14.2233 23.2687C14.1158 23.3767 13.9395 23.5229 13.6943 23.7073C13.7235 23.8323 13.6692 23.9331 13.5316 24.0095C13.4093 24.0706 13.348 24.1167 13.3477 24.1479C13.3007 24.2877 13.1559 24.3251 12.9132 24.2601C12.8659 24.4311 12.811 24.5942 12.7486 24.7494C12.6856 24.9669 12.5933 25.0751 12.4717 25.0738C12.4262 25.0577 12.3574 25.0959 12.2652 25.1885C12.2345 25.2193 12.2036 25.2657 12.1726 25.3278L12.0574 25.4434C11.8125 25.5967 11.6202 25.8207 11.4804 26.1153C11.3536 26.541 10.8669 26.9375 10.6182 27.14C10.5583 27.1888 10.5121 27.2265 10.4882 27.2504C10.3503 27.3581 10.1137 27.4413 9.77859 27.5C9.85633 27.3294 9.92592 27.2132 9.98737 27.1515C10.0338 27.074 10.103 26.9891 10.1952 26.8965L10.4256 26.6652C10.626 26.4023 10.7496 26.201 10.7966 26.0612C10.8443 25.859 10.9299 25.6651 11.0534 25.4794C11.1455 25.3868 11.3075 25.1625 11.5391 24.8065C11.7861 24.435 11.994 24.18 12.1627 24.0415C12.2257 23.824 12.3804 23.5606 12.6268 23.2515C12.6575 23.2206 12.696 23.1665 12.7424 23.089C12.7888 23.0116 12.8274 22.9575 12.8581 22.9266C13.0431 22.6792 13.136 22.5087 13.137 22.4152L12.1462 23.41L12.0784 23.3391C12.3264 22.8741 12.5193 22.5878 12.6573 22.4801C12.8877 22.2488 13.1115 21.916 13.3288 21.4819C13.3598 21.4199 13.4296 21.2881 13.538 21.0866C13.6468 20.8539 13.7473 20.6913 13.8394 20.5988C14.0244 20.3514 14.1481 20.15 14.2104 19.9948C14.2418 19.9016 14.2728 19.8396 14.3035 19.8088C14.5026 19.6706 14.6039 19.4301 14.6073 19.0871C14.6988 19.0569 14.8291 18.957 14.9981 18.7874C15.1824 18.6023 15.3274 18.5493 15.4331 18.6284C15.4352 18.4101 15.5207 18.2318 15.6893 18.0933C15.7197 18.0936 15.7508 18.0316 15.7824 17.9072C15.7978 17.8918 15.8365 17.8221 15.8986 17.698C15.945 17.6206 16.0299 17.489 16.1534 17.3032C16.2475 17.0237 16.4166 16.8384 16.6608 16.7475C16.6912 16.7478 16.7218 16.7326 16.7525 16.7017C16.7832 16.6709 16.8138 16.6556 16.8442 16.656C16.8006 16.4528 16.8477 16.313 16.9853 16.2366C17.2605 16.0836 17.4143 15.9138 17.4466 15.7271L17.5157 15.6577C17.5618 15.6114 17.585 15.5727 17.5853 15.5415C17.6007 15.5261 17.6699 15.4411 17.7931 15.2866C17.9317 15.1166 18.0319 14.9851 18.0936 14.8923C18.1397 14.846 18.2091 14.7454 18.3019 14.5905C18.3947 14.4356 18.4566 14.3272 18.4877 14.2652C18.8422 13.7857 19.0433 13.4449 19.091 13.2428L19.1615 13.0331C19.6402 12.3055 19.8874 11.9185 19.903 11.8719C20.119 11.5624 20.2819 11.2446 20.3916 10.9184C20.4229 10.8252 20.485 10.7012 20.5778 10.5463C20.686 10.376 20.7477 10.2831 20.7631 10.2677C20.7784 10.2522 20.8248 10.1748 20.9023 10.0353C20.9797 9.89587 21.0341 9.77953 21.0654 9.68633C21.0947 9.59926 21.14 9.50692 21.2012 9.40931C20.6063 9.51743 19.9988 9.66422 19.4436 9.8052C19.444 9.80437 19.4443 9.80353 19.4446 9.80267C19.445 9.80165 19.4454 9.80062 19.4458 9.79957C19.4462 9.79831 19.4467 9.79702 19.4471 9.79571ZM10.4744 11.9317C10.4722 12.0122 10.4696 12.1146 10.4666 12.2388C10.469 12.5103 10.4673 12.7167 10.4613 12.858C10.4438 12.9967 10.4118 13.2319 10.3653 13.5638C10.3187 13.8956 10.2881 14.1526 10.2735 14.3347C10.2821 14.3509 10.2777 14.3713 10.2604 14.3959C10.2431 14.4206 10.2271 14.5525 10.2124 14.7916C10.2152 14.835 10.2136 14.8988 10.2078 14.9831C10.199 15.081 10.1945 15.1584 10.1944 15.2154C10.1886 15.2997 10.1884 15.4137 10.1939 15.5575C10.1994 15.7014 10.205 15.8167 10.2106 15.9035L10.1968 16.478C10.2165 16.7248 10.2235 16.8619 10.2177 16.8891C10.2145 17.1308 10.2125 17.4797 10.2118 17.9359C10.2142 18.2074 10.231 18.5249 10.262 18.8883C10.2734 18.9479 10.2703 19.1041 10.2527 19.3568C10.2465 19.6121 10.2649 19.8088 10.3078 19.9467C10.3164 19.9629 10.3236 19.9859 10.3293 20.0157C10.3321 20.0591 10.3321 20.0876 10.3292 20.1012C10.3277 20.1844 10.3289 20.2841 10.3327 20.4002C10.3862 20.192 10.4482 19.9476 10.5186 19.667C10.5591 19.5708 10.5883 19.5049 10.6061 19.4693L10.6275 19.3562C10.6477 19.3081 10.6602 19.2715 10.6649 19.2463C10.7173 19.0872 10.7803 18.8716 10.8539 18.5994C10.9289 18.3797 10.9687 18.2572 10.9735 18.2321C11.0495 17.9474 11.1221 17.7401 11.1912 17.6105C11.2424 17.5163 11.3037 17.3395 11.375 17.0799C11.4654 16.8371 11.5987 16.4855 11.7748 16.0251C11.813 15.9414 11.8582 15.82 11.9105 15.6609C11.976 15.4914 12.0224 15.3637 12.0497 15.2779C12.1283 15.098 12.2343 14.8322 12.3675 14.4806C12.5116 14.1311 12.6152 13.8779 12.6783 13.721C12.8568 13.248 13.0401 12.8086 13.2283 12.4027C13.3271 12.1746 13.4969 11.8367 13.7376 11.3891C13.7709 11.3306 13.8156 11.2417 13.8716 11.1224C13.8902 11.0874 13.9076 11.055 13.9236 11.0252C13.5683 11.1254 13.1284 11.2512 12.6039 11.4024C11.9458 11.6074 11.3691 11.7518 10.8737 11.8354C10.7376 11.8642 10.6045 11.8963 10.4744 11.9317ZM13.9453 21.4184C13.8675 21.589 13.7755 21.666 13.6693 21.6492C13.7614 21.5567 13.8534 21.4797 13.9453 21.4184ZM11.9483 24.9512L11.9934 24.9984L12.0616 25.0226C12.0767 25.0383 12.084 25.0618 12.0837 25.093C12.053 25.1238 12.0224 25.1391 11.992 25.1387C12.0074 25.1233 11.9928 25.0608 11.9483 24.9512ZM16.233 18.4733C16.2333 18.4421 16.2261 18.4031 16.2113 18.3562C16.2418 18.3565 16.2646 18.3489 16.28 18.3335L16.233 18.4733ZM16.745 17.4499C16.7751 17.4815 16.7825 17.5049 16.7671 17.5203L16.7441 17.5435C16.714 17.512 16.6991 17.4806 16.6994 17.4495C16.7145 17.4652 16.7297 17.4654 16.745 17.4499ZM10.2388 25.45L10.1871 25.4385C10.1642 25.3763 10.1586 25.2895 10.1702 25.178C10.1819 25.0665 10.1863 24.9891 10.1835 24.9457L10.218 24.9534C10.2869 25.0829 10.337 25.1868 10.3685 25.2651C10.3052 25.3365 10.2619 25.3982 10.2388 25.45ZM9.91296 24.1793C9.81526 24.1289 9.75363 23.9939 9.72809 23.7743C9.80578 23.7489 9.85894 23.7822 9.88755 23.8741L9.93917 23.9712C9.96208 24.0334 9.96634 24.07 9.95194 24.081C9.94904 24.0946 9.93605 24.1274 9.91296 24.1793ZM9.6698 22.435C9.6611 22.4759 9.66962 22.5491 9.69533 22.6546C9.73255 22.7628 9.73242 22.8483 9.69493 22.9112C9.60592 22.82 9.59754 22.6613 9.6698 22.435ZM9.64659 23.478C9.66687 23.3827 9.70576 23.3415 9.76326 23.3543L9.78907 23.4029C9.77458 23.4709 9.72709 23.496 9.64659 23.478ZM10.3203 25.7463C10.3117 25.7302 10.3017 25.7208 10.2902 25.7182C10.2931 25.7046 10.3032 25.6855 10.3205 25.6608C10.3349 25.6498 10.3435 25.6374 10.3464 25.6238L10.3722 25.6724L10.3203 25.7463ZM9.82751 23.6468C9.80162 23.6553 9.77717 23.6569 9.75417 23.6518L9.74127 23.6275L9.78446 23.5944L9.80171 23.5982L9.82751 23.6468Z" fill="white"/>
<path d="M12.8798 25.4488C13.1716 25.1558 13.3868 24.9243 13.5254 24.7543C13.6176 24.6617 13.6488 24.5841 13.619 24.5215C13.6042 24.4745 13.5207 24.4658 13.3683 24.4954C13.1545 24.5866 13.0235 24.7645 12.9752 25.0289C12.9592 25.1067 12.9199 25.2388 12.8572 25.4252L12.8798 25.4488Z" fill="white"/>
</svg>
