<svg width="60" height="61" viewBox="0 0 60 61" fill="none" xmlns="http://www.w3.org/2000/svg">
<g id="Logo / Blockchain / BOLT" clip-path="url(#clip0_106_11270)">
<path id="Vector" d="M30 60.3149C46.5685 60.3149 60 46.8858 60 30.3149C60 13.744 46.5685 0.314941 30 0.314941C13.4315 0.314941 0 13.7464 0 30.3149C0 46.8835 13.4315 60.3149 30 60.3149Z" fill="url(#paint0_linear_106_11270)"/>
<g id="Group">
<path id="Vector_2" d="M48.3723 25.8376C48.031 25.4963 47.6677 25.1824 47.2891 24.8959C45.5319 23.5712 43.396 22.8545 41.145 22.8545C38.4077 22.8545 35.8405 23.9136 33.9165 25.8376L27.2632 32.4909L26.4938 33.2603H29.8095L35.5749 27.4949C37.0555 26.0143 39.0344 25.1988 41.145 25.1988C42.732 25.1988 44.2434 25.6598 45.5253 26.517C45.9489 26.8001 46.3474 27.1272 46.7161 27.4949C48.1967 28.9755 49.0122 30.9544 49.0122 33.0649C49.0122 35.1755 48.1967 37.1544 46.7161 38.635L46.4867 38.8644V38.8666C45.0248 40.2232 43.1337 40.9662 41.1285 40.9662H32.6653V40.9695H30.9103H21.9972C16.1209 40.9695 11.3411 36.1886 11.3411 30.3134C11.3411 24.4382 15.942 19.8384 21.6646 19.6617L22.0114 19.6562C22.0235 19.6562 22.0356 19.6562 22.0476 19.6562C23.3757 19.6562 24.6741 19.8966 25.911 20.3718C27.3071 20.9074 28.5528 21.7174 29.6141 22.7776L31.6216 24.7378C31.6216 24.7378 33.2821 23.0806 33.2821 23.0871L31.2736 21.1247C29.9785 19.8296 28.4573 18.8407 26.7517 18.1855C25.225 17.5994 23.6237 17.3064 21.9873 17.3151C18.5201 17.3184 15.2593 18.6695 12.8074 21.1225C10.3522 23.5777 9 26.8418 9 30.3134C9 33.7849 10.3522 37.049 12.8074 39.5043C15.256 41.9529 18.5092 43.304 21.9708 43.3116H30.1991V43.3149H33.3447V43.3116H41.1296C43.8669 43.3116 46.4395 42.2437 48.3723 40.3055L48.6006 40.0772L48.6061 40.0552C50.383 38.1609 51.3577 35.6914 51.3577 33.066C51.3577 30.4407 50.2985 27.7616 48.3745 25.8376H48.3723Z" fill="white"/>
<path id="Vector_3" d="M16.6255 30.6691C16.6255 27.54 19.1718 24.9937 22.3009 24.9937C24.9219 24.9937 27.1323 26.7794 27.7821 29.1973L29.7028 27.2766C28.4143 24.4756 25.5815 22.5264 22.3009 22.5264C17.8108 22.5264 14.1582 26.179 14.1582 30.6691C14.1582 33.9485 16.1074 36.7824 18.9084 38.0709L20.8291 36.1502C18.4112 35.5005 16.6255 33.2889 16.6255 30.6691Z" fill="white"/>
</g>
</g>
<defs>
<linearGradient id="paint0_linear_106_11270" x1="13.7655" y1="6.28777" x2="45.3258" y2="55.0628" gradientUnits="userSpaceOnUse">
<stop stop-color="#FFA502"/>
<stop offset="1" stop-color="#FF705B"/>
</linearGradient>
<clipPath id="clip0_106_11270">
<rect width="60" height="60" fill="white" transform="translate(0 0.314941)"/>
</clipPath>
</defs>
</svg>
