<?xml version="1.0" encoding="UTF-8" standalone="no"?>
<!-- Created with Inkscape (http://www.inkscape.org/) -->

<svg
   version="1.1"
   id="svg2"
   width="258.56268"
   height="48.639999"
   viewBox="0 0 258.56268 48.639999"
   sodipodi:docname="Althea-Logo.ai"
   xmlns:inkscape="http://www.inkscape.org/namespaces/inkscape"
   xmlns:sodipodi="http://sodipodi.sourceforge.net/DTD/sodipodi-0.dtd"
   xmlns="http://www.w3.org/2000/svg"
   xmlns:svg="http://www.w3.org/2000/svg">
  <defs
     id="defs6">
    <clipPath
       clipPathUnits="userSpaceOnUse"
       id="clipPath22">
      <path
         d="M 0,36.48 H 193.922 V 0 H 0 Z"
         id="path20" />
    </clipPath>
  </defs>
  <sodipodi:namedview
     id="namedview4"
     pagecolor="#ffffff"
     bordercolor="#000000"
     borderopacity="0.25"
     inkscape:showpageshadow="2"
     inkscape:pageopacity="0.0"
     inkscape:pagecheckerboard="0"
     inkscape:deskcolor="#d1d1d1"
     showgrid="false" />
  <g
     id="g10"
     inkscape:groupmode="layer"
     inkscape:label="Page 1"
     transform="matrix(1.3333333,0,0,-1.3333333,0,48.64)">
    <g
       id="g12"
       transform="translate(180.5364,26.2323)">
      <path
         d="m 0,0 -6.45,-7.682 3.057,-2.573 5.667,6.713 H 2.61 v -18.123 h -7.159 v -4.36 h 17.935 v 4.36 H 7.421 V 0 Z m -23.191,0 v -26.025 h 15.176 v 4.362 H -18.27 V 0 Z"
         style="fill:#0077ff;fill-opacity:1;fill-rule:nonzero;stroke:none"
         id="path14" />
    </g>
    <g
       id="g16">
      <g
         id="g18"
         clip-path="url(#clipPath22)">
        <g
           id="g24"
           transform="translate(144.046,0.72)">
          <path
             d="m 0,0 c -0.144,3.408 -0.192,5.472 -0.192,7.392 v 9.216 c 0,5.52 -3.696,8.976 -9.504,8.976 -5.76,0 -9.744,-3.264 -10.128,-8.256 h 4.032 c 0.288,2.736 2.688,4.608 6,4.608 3.552,0 5.568,-2.016 5.568,-5.664 v -3.936 c 0,-5.616 -3.024,-9.408 -7.536,-9.408 -2.496,0 -4.32,1.488 -4.32,3.648 0,2.544 1.92,4.272 5.52,4.896 l 2.112,0.384 c 1.056,0.144 1.776,1.056 1.632,2.112 -0.144,1.104 -1.152,1.728 -2.4,1.536 l -1.824,-0.288 c -5.808,-0.912 -9.12,-4.032 -9.12,-8.64 0,-4.32 3.216,-7.296 7.92,-7.296 3.552,0 6.384,1.776 8.208,5.04 V 0 Z m -25.296,11.328 c 0.96,8.112 -3.888,14.256 -11.232,14.256 -7.056,0 -12.144,-5.52 -12.144,-13.152 0,-7.728 4.992,-13.152 12.144,-13.152 5.616,0 9.984,3.264 11.04,8.256 h -4.224 c -0.768,-2.784 -3.36,-4.416 -6.864,-4.416 -4.944,0 -8.064,3.6 -8.064,9.312 0,5.664 3.168,9.312 8.064,9.312 4.128,0 6.816,-2.64 7.056,-6.768 h -9.984 c -1.056,0 -1.872,-0.816 -1.872,-1.824 0,-1.008 0.816,-1.824 1.872,-1.824 z M -59.232,0 h 4.176 v 16.368 c 0,5.664 -3.504,9.216 -9.072,9.216 -3.12,0 -6.336,-1.632 -7.872,-3.792 V 35.76 h -4.176 V 0 H -72 v 14.688 c 0,3.936 3.12,6.96 7.008,6.96 3.552,0 5.76,-2.304 5.76,-6.048 z m -25.151,-0.48 c 1.104,0 2.496,0.192 3.408,0.48 v 3.648 c -0.816,-0.192 -1.872,-0.336 -2.88,-0.336 -2.736,0 -4.224,1.488 -4.224,4.224 v 8.544 c 0,1.104 -0.96,2.016 -2.064,2.016 -1.152,0 -2.112,-0.96 -2.112,-2.016 V 7.44 c 0,-5.04 2.88,-7.92 7.872,-7.92 m -12.672,21.6 h 15.312 v 3.744 h -6.336 v 8.4 l -4.176,-2.16 v -6.24 h -4.8 z M -106.367,0 h 4.176 v 35.76 h -4.176 z m -9.887,0 h 4.608 l -9.792,24.528 c -0.009,0.02 -0.025,0.032 -0.033,0.052 l -3.957,9.966 0.006,0.014 h -4.608 L -144.046,0 h 4.608 l 3.648,8.976 h 9.504 c 1.104,0 2.016,0.912 2.016,1.968 0,1.104 -0.912,2.016 -2.016,2.016 h -7.872 l 6.455,15.961"
             style="fill:#000000;fill-opacity:1;fill-rule:nonzero;stroke:none"
             id="path26" />
        </g>
      </g>
    </g>
  </g>
</svg>
