<?xml version="1.0" encoding="UTF-8"?>
<svg id="_图层_1" data-name="图层_1" xmlns="http://www.w3.org/2000/svg" version="1.1" viewBox="0 0 1417.1 1417.1">
  <!-- Generator: Adobe Illustrator 30.2.1, SVG Export Plug-In . SVG Version: 2.1.1 Build 1)  -->
  <defs>
    <style>
      .st0 {
        fill: #fefefe;
      }

      .st0, .st1 {
        fill-rule: evenodd;
      }

      .st1 {
        fill: #e8393a;
      }
    </style>
  </defs>
  <path class="st1" d="M708.55,1417.1c390.27,0,708.55-318.27,708.55-708.55S1098.82,0,708.55,0,0,318.3,0,708.55s318.3,708.55,708.55,708.55h0Z"/>
  <path class="st0" d="M829.08,1051.74c95.47,22.28,198.28,5.53,279.07-52.84h.03c173.91-125.06,183.29-381.12,23.73-536.03v-.03c-114.15-110.78-279.01-134.84-408.1-71.23-148.37,73.56-212.23,238.48-171.44,391.69.62,2.38,2.92,3.88,5.36,3.52s4.2-2.52,4.08-4.99c-11.65-223.91,282.56-373.38,454.42-199.76,178.04,166.08,38.69,465.22-185.95,460.18-2.47-.06-4.56,1.76-4.85,4.22-.31,2.44,1.28,4.71,3.66,5.27h0ZM1076.94,957.66c90.23-123.96,86.12-296.16-31.1-406.09-113.16-113.75-285.19-113.33-407.23-18.31-1.9,1.47-4.51,1.36-6.24-.26-1.73-1.62-2.04-4.2-.74-6.15,106.53-160.92,332.93-164.61,468.23-35.83,136.77,133.11,141.76,361.59-16.27,473.39-1.93,1.36-4.51,1.13-6.18-.54-1.67-1.7-1.87-4.28-.48-6.21h0Z"/>
  <path class="st0" d="M400.9,835.06c171.89,173.57,465.85,24.26,454.42-199.47-.11-2.47,1.64-4.62,4.08-4.99,2.44-.37,4.73,1.13,5.36,3.52,34.5,130.96-5.95,276.35-120.56,360.26-287.89,213.82-689.67-123.22-542.38-445.92,67.95-148.48,234.26-219.63,387.61-183,2.38.57,3.94,2.81,3.66,5.22-.28,2.49-2.41,4.31-4.9,4.25-225.18-6.15-365.92,293.56-187.29,460.15h0ZM314.93,923.84l-.11-.11c-134.79-130.79-138.95-360,18.54-470.78,1.93-1.36,4.48-1.13,6.15.54,1.67,1.7,1.87,4.28.48,6.21-90.06,123.99-85.86,296.05,31.29,405.89,113.07,113.58,284.83,113.36,406.89,18.57,1.87-1.47,4.51-1.33,6.24.28,1.7,1.62,2.01,4.2.71,6.15-103.58,156.1-330.21,168.63-470.18,33.25h0Z"/>
</svg>