<svg width="343" height="70" viewBox="0 0 343 70" fill="none" xmlns="http://www.w3.org/2000/svg">
<path d="M35.528 34.0519C35.7401 34.402 35.7401 34.8407 35.528 35.1908L18.786 62.8316C18.3575 63.539 17.3304 63.539 16.9019 62.8317L0.159059 35.1926C-0.0530143 34.8426 -0.05302 34.4038 0.159044 34.0537L16.9019 6.41289C17.3304 5.70555 18.3576 5.70555 18.786 6.41288L35.528 34.0519ZM8.03085 32.9465C7.58668 33.6796 8.11504 34.616 8.97282 34.616H26.7159C27.5737 34.616 28.1021 33.6795 27.6579 32.9465L18.786 18.3055C18.3575 17.5984 17.3305 17.5984 16.9021 18.3055L8.03085 32.9465ZM17.844 25.1956C19.5694 25.1956 20.9684 26.5956 20.9684 28.3223C20.9682 30.0489 19.5693 31.4482 17.844 31.4482C16.1186 31.4482 14.7198 30.0489 14.7195 28.3223C14.7195 26.5956 16.1185 25.1956 17.844 25.1956Z" fill="black"/>
<path d="M156.623 14.2735H168.651V54.8534H156.623V14.2735Z" fill="black"/>
<path d="M103.876 14.2735H125.35C140.895 14.2735 150.596 20.6779 150.596 34.3084V34.8186C150.596 48.4774 140.924 54.8534 125.35 54.8534H103.876V14.2735ZM115.904 45.4453H125.18C134.371 45.4453 138.2 41.988 138.2 34.7902V34.3367C138.2 27.1389 134.343 23.6818 125.18 23.6818H115.904V45.4453Z" fill="black"/>
<path d="M45.1763 54.8534L65.0616 14.2735H79.3585L99.2721 54.8534H86.2801L82.6206 46.9188H61.317L57.6577 54.8534H45.1763ZM65.2601 38.4457H78.6777L71.9831 23.9368L65.2601 38.4457Z" fill="black"/>
<path d="M210.75 55.6213C198.41 55.6213 192.452 47.0366 192.452 34.8657V34.6963C192.452 22.4688 198.438 13.9407 210.779 13.9407C221.425 13.9407 227.524 20.3227 228.343 30.5169H222.837C222.159 23.4007 218.516 18.4871 210.807 18.4871C201.488 18.4871 198.015 25.3209 198.015 34.6398V34.8374C198.015 44.241 201.544 51.0466 210.779 51.0466C218.798 51.0466 222.413 45.7941 222.893 38.2826H228.371C227.835 48.9004 221.679 55.6213 210.75 55.6213ZM235.542 55V14.5619H240.653V31.3641C242.432 28.2013 245.623 26.1399 250.283 26.1399C256.806 26.1399 260.025 30.1216 260.025 36.1364V55H254.914V36.9554C254.914 32.9454 253.219 30.3757 248.701 30.3757C243.138 30.3757 240.653 34.1315 240.653 38.8756V55H235.542ZM286.38 55V50.1429C284.827 53.108 281.382 55.6213 276.44 55.6213C271.103 55.6213 267.29 52.5432 267.29 47.2908C267.29 42.6596 269.747 40.2875 273.418 38.7626C276.948 37.3225 281.212 36.673 286.239 36.4188V36.1082C286.239 32.4936 284.685 29.9804 279.687 29.9804C275.282 29.9804 273.136 31.8441 272.853 35.967H267.968C268.335 29.2462 272.515 26.1399 279.8 26.1399C287.594 26.1399 291.322 29.9239 291.322 36.1647V55H286.38ZM272.458 46.9519C272.458 50.0864 274.745 51.6396 277.908 51.6396C282.624 51.6396 286.239 48.3356 286.239 44.2975V39.7792C282.172 40.0052 278.812 40.5135 276.411 41.5301C273.87 42.6031 272.458 44.2128 272.458 46.9519ZM299.986 55V26.7611H305.097V55H299.986ZM299.704 21.1698V15.6915H305.38V21.1698H299.704ZM313.869 55V26.7611H318.868V31.5617C320.619 28.3425 323.838 26.1399 328.638 26.1399C335.162 26.1399 338.353 30.1216 338.353 36.1364V55H333.241V36.9554C333.241 32.9454 331.575 30.3757 327.029 30.3757C321.494 30.3757 318.981 34.1315 318.981 38.8756V55H313.869Z" fill="black"/>
</svg>
