<svg width="128" height="128" viewBox="0 0 128 128" fill="none" xmlns="http://www.w3.org/2000/svg">
<rect width="128" height="128" fill="#0E0E0E"/>
<path d="M50.8688 86.458L50.5852 85.9397L50.5182 85.8105L50.4511 85.6772L50.2497 85.289L50.123 85.0302L50.0598 84.897L50.0002 84.7677L49.9365 84.6385L49.8172 84.3796L49.7575 84.2467L49.4779 83.6006L49.2175 82.9551L49.1204 82.6969L49.072 82.5715L49.0234 82.4424L48.9787 82.3134L48.9305 82.1841L48.8856 82.059L48.7961 81.8011L48.7554 81.6759L48.7145 81.547L48.6732 81.4217L48.6323 81.2929L48.55 81.0425L48.5129 80.9138L48.3636 80.4136L48.2965 80.1633L48.2592 80.0385L48.2295 79.9135L48.1957 79.7922L48.1622 79.6671L48.132 79.5423L48.0987 79.4208L48.0686 79.296L48.0425 79.175L48.0126 79.0539L47.9828 78.9289L47.9301 78.6867L47.9002 78.5656L47.8778 78.4443L47.8253 78.2024L47.8027 78.085L47.7766 77.964L47.7542 77.8428L47.7318 77.7257L47.709 77.6046L47.6903 77.4874L47.6677 77.37L47.6451 77.2493L47.5885 76.8976L47.5695 76.7842L47.532 76.5496L47.5171 76.4324L47.4978 76.3192L47.4828 76.2059L47.4679 76.0887L47.4217 75.7489L47.4105 75.6357L47.3952 75.522L47.3836 75.409L47.3685 75.2957L47.3569 75.186L47.3454 75.073L47.3338 74.9633L47.3225 74.8501L47.3109 74.7405L47.3028 74.6311L47.2798 74.4121L47.2558 74.0838L47.2444 73.9744L47.2365 73.8687L47.2375 73.8422L47.1202 73.7647L46.8562 73.5786L46.7642 73.5164L46.6769 73.4543L46.5886 73.3886L46.501 73.3266L46.4093 73.261L46.3216 73.1948L46.23 73.1291L46.142 73.0632L46.0507 72.9973L45.963 72.9279L45.8714 72.8622L45.7835 72.7924L45.692 72.7228L45.6047 72.6532L45.3302 72.4445L45.2427 72.3712L45.1514 72.2978L45.0599 72.2282L44.9685 72.1548L44.881 72.0815L44.7899 72.0042L44.6985 71.9308L44.4252 71.6993L44.3375 71.6224L44.1551 71.4678L43.6996 71.0632L43.6125 70.9822L43.1576 70.5588L43.0668 70.4705L42.9759 70.3855L42.8885 70.2975L42.7069 70.1203L42.6162 70.0282L42.5253 69.9398L42.4384 69.8478L42.2568 69.6631L42.079 69.4752L41.9923 69.3793L41.9019 69.2869L41.547 68.8957L41.3735 68.6963L41.2827 68.5966L41.1962 68.4968L40.7629 67.9797L40.5897 67.7651L40.5069 67.6579L40.3339 67.4437L40.2513 67.3326L40.1647 67.222L40.0824 67.1108L39.9956 66.9998L39.9135 66.8889L39.5006 66.3156L39.4179 66.1971L39.3393 66.0789L39.2566 65.9604L39.0995 65.7236L39.0172 65.6015L38.7029 65.1129L38.6279 64.9871L38.5496 64.8612L38.4746 64.7354L38.3963 64.6095L38.3219 64.4799L38.2469 64.3541L38.1726 64.2245L38.1403 64.1712L38.1165 64.212L38.0415 64.3427L37.97 64.4769L37.8948 64.6072L37.8194 64.7413L37.7482 64.8754L37.6762 65.0137L37.605 65.1478L37.5334 65.2859L37.4618 65.4201L37.3942 65.5578L37.322 65.7L37.2545 65.838L37.1863 65.9797L37.1185 66.118L36.9823 66.4018L36.9181 66.5473L36.8538 66.6892L36.6606 67.1261L36.5999 67.2719L36.5356 67.4213L36.4749 67.5671L36.4141 67.7168L36.3571 67.8666L36.296 68.016L36.2392 68.1694L36.182 68.3189L36.0679 68.6257L36.0147 68.7789L35.9576 68.9326L35.904 69.086L35.8507 69.2431L35.8009 69.4005L35.7472 69.5578L35.6979 69.7111L35.648 69.8718L35.5979 70.0294L35.5521 70.1906L35.502 70.3477L35.4099 70.6699L35.3672 70.8349L35.321 70.9963L35.2789 71.1572L35.2362 71.3222L35.1973 71.4873L35.1547 71.6524L35.0773 71.9824L35.0423 72.1476L35.0035 72.3161L34.9683 72.4852L34.9333 72.6504L34.8983 72.8189L34.867 72.9881L34.8353 73.1609L34.8041 73.3295L34.7759 73.5026L34.7448 73.6712L34.6891 74.0169L34.5928 74.7083L34.5725 74.8853L34.5521 75.058L34.5113 75.4115L34.4781 75.7652L34.4652 75.942L34.4482 76.1189L34.4227 76.4761L34.3857 77.1914L34.369 77.7336L34.363 78.2798L34.3705 79.011L34.3761 79.1921L34.3819 79.3768L34.391 79.5615L34.4005 79.7427L34.4192 80.1123L34.4582 80.6671L34.5085 81.2219L34.5172 81.2975L34.5652 81.3321L34.8651 81.549L35.1655 81.7585L35.3195 81.8632L35.4699 81.9643L35.6239 82.069L35.7744 82.1701L36.3911 82.5591L36.8541 82.8395L37.0121 82.9291L37.1669 83.0187L37.3248 83.1088L37.4794 83.1948L37.6374 83.2843L37.7924 83.3668L37.9506 83.4525L38.4259 83.6992L38.7427 83.8563L38.9014 83.9313L39.0601 84.0097L39.2186 84.0843L39.381 84.1591L39.8573 84.3719L40.0201 84.4393L40.1785 84.5103L40.3411 84.5774L40.5003 84.6408L40.663 84.7046L40.9812 84.8311L41.1439 84.8949L41.3027 84.9543L41.4659 85.014L41.6288 85.07L41.9471 85.1818L42.1101 85.2379L42.2694 85.2899L42.5957 85.3943L42.9148 85.491L43.0778 85.5395L43.2373 85.5877L43.4006 85.6327L43.72 85.7217L43.8831 85.7663L44.2025 85.8478L44.3661 85.8851L44.5259 85.9223L44.6857 85.9627L44.8452 85.9962L45.005 86.0334L45.4848 86.1333L45.9653 86.2219L46.1215 86.2513L46.2814 86.277L46.4377 86.3031L46.5983 86.3284L46.7545 86.3544L46.9149 86.3761L47.2275 86.4201L47.3845 86.4382L47.5447 86.4605L47.7011 86.4784L47.8582 86.4926L48.0109 86.5108L48.4814 86.5539L48.6345 86.5685L48.7914 86.5791L49.0975 86.6L49.2508 86.6069L49.4039 86.6174L49.8635 86.6381L50.6196 86.6528L50.919 86.6512L50.9785 86.6522L50.9434 86.5874L50.8688 86.458ZM38.2751 63.9453L38.3503 63.815L38.429 63.6883L38.5042 63.5614L38.7404 63.1818L38.8189 63.059L38.8978 62.9327L38.9802 62.81L39.0591 62.687L39.1413 62.5682L39.2198 62.4454L39.6311 61.8502L39.717 61.7354L39.7992 61.6199L39.8847 61.5053L39.9669 61.3897L40.4819 60.7217L40.653 60.5065L40.7426 60.399L40.8283 60.2913L40.9175 60.1873L41.0031 60.0802L41.0923 59.9761L41.178 59.8727L41.2672 59.7686L41.3565 59.6688L41.4457 59.5647L41.7133 59.2649L41.8023 59.1689L41.8914 59.0688L42.0694 58.8765L42.1621 58.7803L42.2516 58.6841L42.3403 58.5916L42.4331 58.4997L42.522 58.4033L42.6111 58.3107L42.7035 58.2222L43.0665 57.8599L43.1591 57.7751L43.2481 57.6863L43.3405 57.5978L43.5254 57.4284L43.6141 57.3434L43.9799 57.0074L44.257 56.7642L44.3455 56.687L44.4378 56.6057L44.622 56.4508L44.7107 56.3739L44.8949 56.219L44.9874 56.1456L45.0795 56.0681L45.1678 55.9948L45.352 55.8474L45.44 55.7775L45.5321 55.7043L45.6243 55.6344L45.7124 55.5607L45.8963 55.421L45.9849 55.3513L46.0767 55.2816L46.1648 55.2154L46.257 55.1455L46.3486 55.0797L46.437 55.0138L46.5287 54.9474L46.7053 54.8154L46.7967 54.7492L46.8847 54.6869L46.9765 54.6247L47.0649 54.5588L47.3287 54.3715L47.3325 54.3717L47.3376 54.3342L47.3445 54.2288L47.3767 53.9016L47.384 53.7927L47.3948 53.6835L47.4058 53.5705L47.4206 53.4615L47.4311 53.3525L47.4423 53.2399L47.457 53.1308L47.4677 53.018L47.5412 52.454L47.5561 52.3378L47.571 52.2249L47.5895 52.1084L47.6078 51.9958L47.6225 51.8793L47.6413 51.7626L47.6597 51.65L47.7152 51.3007L47.7376 51.1805L47.76 51.0642L47.7785 50.9478L47.8234 50.7074L47.8458 50.591L47.8683 50.4708L47.8942 50.351L47.9167 50.2308L48.0215 49.7503L48.0476 49.6266L48.0774 49.5068L48.1039 49.3829L48.1335 49.2628L48.1938 49.0153L48.2236 48.8956L48.2537 48.7714L48.2875 48.6479L48.3176 48.5204L48.3514 48.3969L48.3889 48.2731L48.4227 48.1496L48.4564 48.0219L48.494 47.8985L48.5278 47.775L48.603 47.5198L48.6441 47.3967L48.6817 47.2691L48.7232 47.1416L48.7606 47.0146L48.8059 46.8872L48.8884 46.6324L48.9336 46.505L48.9749 46.3781L49.0201 46.2507L49.0691 46.1198L49.1592 45.8652L49.2081 45.7343L49.2569 45.6072L49.3058 45.4763L49.3584 45.3493L49.4072 45.2184L49.4602 45.0913L49.5653 44.8298L49.6217 44.6988L49.6743 44.5718L49.8438 44.1794L50.1445 43.5258L50.2082 43.3952L50.2686 43.2646L50.3361 43.1341L50.4641 42.873L50.5995 42.6118L50.6672 42.4775L50.7385 42.3471L50.8064 42.2164L50.9489 41.9552L51.0241 41.825L51.0955 41.6946L51.1707 41.5643L51.2021 41.512L51.1835 41.5115L51.0336 41.5124L50.884 41.517L50.7303 41.5178L50.4306 41.5271L50.277 41.5315L50.1272 41.5399L49.9733 41.5479L49.8235 41.5563L49.5158 41.5731L49.2085 41.5973L49.0509 41.6093L48.8967 41.625L48.7429 41.6372L48.5891 41.6526L48.4312 41.6685L48.2773 41.6879L48.1194 41.7038L47.9618 41.7234L47.8077 41.7466L47.6495 41.766L47.4918 41.7894L47.3341 41.809L47.1758 41.8356L47.018 41.859L46.5439 41.9402L46.3821 41.9707L46.2242 41.998L46.0659 42.0288L45.904 42.0632L45.7459 42.0943L45.5837 42.1283L45.4253 42.163L45.2632 42.2012L45.1048 42.2359L44.9427 42.2741L44.7845 42.3125L44.46 42.3966L44.3014 42.4385L44.1392 42.4805L43.8148 42.5722L43.656 42.6179L43.4936 42.6639L43.1687 42.7629L43.0098 42.8125L42.5222 42.9727L42.3633 43.0298L42.0375 43.1439L41.8787 43.201L41.553 43.3227L41.3939 43.3837L41.2309 43.4483L41.0681 43.5092L40.9091 43.5777L40.7461 43.6424L40.5865 43.7107L40.4237 43.779L40.2642 43.8473L40.1012 43.9196L39.7822 44.0637L39.6193 44.1402L39.1404 44.3679L38.8211 44.5273L38.6615 44.6112L38.5017 44.6906L38.3457 44.7743L38.1858 44.8617L38.026 44.9453L37.8696 45.0324L37.7099 45.1235L37.5535 45.2107L37.241 45.3935L37.0809 45.4881L36.9247 45.579L36.7681 45.6739L36.6155 45.7726L36.4589 45.8675L36.3023 45.9699L36.1497 46.0686L35.9932 46.1672L35.8401 46.27L35.6872 46.3764L35.5343 46.4786L35.2284 46.6914L35.079 46.8014L34.9259 46.9075L34.7765 47.0175L34.6843 47.0875L34.6839 47.1099L34.6426 47.4783L34.6258 47.6663L34.6088 47.8508L34.5959 48.0351L34.5786 48.2197L34.5656 48.4037L34.5562 48.5883L34.5431 48.7728L34.5337 48.9575L34.5278 49.1415L34.5185 49.3262L34.513 49.5067L34.511 49.6918L34.5054 49.8723L34.5015 50.2377L34.5033 50.4187L34.5016 50.5993L34.5034 50.7803L34.5205 51.3233L34.5263 51.5006L34.5358 51.6818L34.5415 51.859L34.5548 52.0361L34.5639 52.2175L34.5906 52.572L34.6042 52.7456L34.638 53.1003L34.6721 53.4481L34.693 53.6254L34.7345 53.9727L34.7594 54.143L34.8085 54.4906L34.8332 54.6605L34.947 55.3408L34.979 55.5112L35.0116 55.6775L35.0436 55.8478L35.0758 56.0143L35.1842 56.5139L35.2204 56.6766L35.26 56.843L35.3797 57.3318L35.4672 57.6574L35.5983 58.1347L35.7409 58.6125L35.7883 58.7677L35.9938 59.3897L36.0454 59.5415L36.1002 59.6971L36.2658 60.1524L36.3215 60.3005L36.3806 60.4488L36.4393 60.6007L36.5575 60.8966L36.6164 61.0413L36.6757 61.1891L36.9273 61.7672L36.9903 61.9076L37.1909 62.3298L37.2538 62.4707L37.3245 62.6114L37.4584 62.8853L37.5289 63.0223L37.5996 63.1554L37.6703 63.2927L37.8824 63.6921L37.9568 63.8259L38.0278 63.9555L38.1449 64.1652L38.1961 64.0754L38.2751 63.9453ZM76.5041 86.4821L75.7674 86.4674L75.1841 86.4408L75.042 86.4305L74.8963 86.4238L74.7548 86.4137L74.6088 86.4033L74.4671 86.3929L74.3252 86.3788L74.1831 86.3685L74.0415 86.3542L73.9034 86.3402L73.7615 86.3261L73.6237 86.3085L73.4818 86.2944L72.9302 86.2233L72.7956 86.2054L72.658 86.184L72.5239 86.1663L72.3861 86.1445L72.2557 86.1232L72.1179 86.1015L71.9876 86.0763L71.8533 86.0549L71.7197 86.0298L71.5894 86.0046L71.4554 85.983L71.3253 85.954L71.0646 85.9037L70.9383 85.8748L70.808 85.8496L70.6781 85.8209L70.2987 85.7344L70.1726 85.7016L70.0463 85.6727L69.9197 85.6402L69.7973 85.6114L69.6711 85.5786L69.1811 85.4484L69.0624 85.4122L68.9397 85.3797L68.7027 85.3071L68.5839 85.2748L68.2276 85.1658L68.1129 85.1258L67.9942 85.0896L67.8793 85.0535L67.7647 85.0136L67.6496 84.9772L67.5349 84.9372L67.4237 84.8976L67.309 84.8576L67.1981 84.8178L67.0831 84.778L66.7499 84.6584L66.6427 84.6183L66.5317 84.5748L66.4241 84.5349L66.3172 84.4913L66.206 84.4517L66.0989 84.4078L65.9955 84.3645L65.888 84.3246L65.7807 84.2813L65.5741 84.1942L65.4667 84.1504L65.1563 84.0203L65.0567 83.9729L64.9532 83.9293L64.8536 83.8861L64.754 83.8388L64.5547 83.7521L64.4548 83.7049L64.355 83.6614L64.2556 83.6144L64.1597 83.571L64.0601 83.5236L63.964 83.4766L63.942 83.4687L63.9304 83.4722L63.8317 83.5191L63.7365 83.5663L63.4403 83.7075L63.338 83.7546L63.2394 83.7976L63.1366 83.8446L63.0381 83.8918L62.9356 83.9386L62.833 83.982L62.6282 84.0759L62.5255 84.119L62.4193 84.166L62.3172 84.2093L62.2108 84.2559L61.9984 84.3424L61.8921 84.389L61.6801 84.4753L61.4604 84.5614L61.3541 84.6047L61.1344 84.6908L61.0207 84.7337L60.911 84.7728L60.7976 84.8161L60.6879 84.8553L60.4605 84.9411L60.2333 85.0198L60.116 85.0587L60.0027 85.0981L59.4165 85.2938L59.2993 85.3289L59.1783 85.3681L58.9367 85.4387L58.8157 85.4779L58.574 85.5485L58.4493 85.5837L58.3287 85.6151L58.0793 85.6855L57.8305 85.7485L57.7058 85.7837L57.4493 85.8465L57.3248 85.8779L57.1968 85.9056L57.0687 85.9372L56.9366 85.9644L56.8085 85.996L56.6805 86.0237L56.2844 86.1063L56.1531 86.1298L56.0213 86.1574L55.8896 86.1812L55.4829 86.2526L55.3513 86.2763L55.2158 86.2999L55.0768 86.3199L54.9414 86.3397L54.8019 86.3596L54.6669 86.3833L54.5275 86.3993L54.3885 86.4193L54.2497 86.4354L54.1102 86.4553L53.9678 86.4711L53.829 86.4872L53.686 86.5035L53.5469 86.5159L53.4046 86.5317L52.9767 86.5684L52.8307 86.577L52.6879 86.5893L52.3957 86.606L52.253 86.6145L52.1028 86.6231L51.9567 86.6275L51.8108 86.636L51.6644 86.6405L51.5143 86.6453L51.3686 86.6461L51.2186 86.6509L51.0691 86.6515L50.9791 86.6533L51.0182 86.7186L51.0929 86.8479L51.1714 86.9774L51.2457 87.107L51.4807 87.4963L51.7271 87.8855L51.8092 88.0114L51.8954 88.1411L51.9774 88.271L52.0634 88.397L52.1528 88.5267L52.2388 88.6528L52.3285 88.7828L52.5076 89.035L52.6009 89.1648L52.8813 89.5435L52.9786 89.6696L53.0719 89.7961L53.1728 89.9186L53.3672 90.1712L53.4682 90.2937L53.5693 90.4199L53.6741 90.5425L53.7748 90.6689L53.9844 90.9141L54.093 91.0369L54.1977 91.1595L54.3063 91.2822L54.4147 91.4013L54.5233 91.524L54.6359 91.643L54.7482 91.7655L54.9727 92.0039L55.321 92.3613L55.4409 92.4765L55.557 92.5958L55.6768 92.711L55.7968 92.8304L55.9205 92.9457L56.0405 93.0613L56.1644 93.1727L56.2883 93.2884L56.4156 93.4002L56.5393 93.5155L56.7942 93.7394L56.9258 93.8511L57.0534 93.9626L57.185 94.071L57.3162 94.1829L57.5865 94.3992L57.7178 94.5072L57.8568 94.6154L57.9918 94.7199L58.127 94.8281L58.2661 94.9324L58.4088 95.0372L58.5481 95.1377L58.6869 95.2423L58.8299 95.3468L59.1155 95.5485L59.2625 95.6492L59.4089 95.7465L59.5557 95.8469L59.849 96.0413L59.9996 96.1385L60.15 96.2321L60.3004 96.3289L60.4509 96.4225L60.6055 96.516L60.7599 96.6058L60.914 96.6991L61.0687 96.7887L61.2266 96.8788L61.3814 96.9684L61.6977 97.1404L61.8598 97.2304L62.0184 97.3126L62.1804 97.3984L62.6667 97.6454L62.8326 97.728L63.3305 97.9639L63.4967 98.0388L63.8366 98.1885L63.8697 98.2045L63.957 98.1648L64.1278 98.0889L64.2987 98.0092L64.8001 97.7706L64.9638 97.6872L65.1307 97.6037L65.2943 97.5203L65.4581 97.4329L65.6179 97.3494L65.7814 97.2623L65.9415 97.1752L66.1016 97.0839L66.2612 96.9967L66.4212 96.9059L66.734 96.7235L66.89 96.6284L67.0465 96.5373L67.3518 96.3475L67.5044 96.2488L67.6572 96.1538L67.8098 96.0551L68.1078 95.8576L68.2571 95.7548L68.4023 95.6562L68.9837 95.2454L69.1255 95.1426L69.4091 94.9296L69.5474 94.8232L69.689 94.7168L69.8269 94.6065L69.965 94.4997L70.0997 94.3894L70.2336 94.2828L70.3722 94.1687L70.5027 94.0584L70.6371 93.9477L70.7679 93.8373L71.0295 93.6088L71.1563 93.4946L71.2872 93.3803L71.414 93.266L71.7881 92.919L72.035 92.6831L72.5135 92.2099L72.6298 92.0881L72.7456 91.9694L72.9777 91.7257L73.4267 91.2372L73.6442 90.9926L73.7525 90.8666L73.8611 90.7445L74.0711 90.4925L74.176 90.3698L74.6819 89.7396L74.7794 89.6095L74.9746 89.3572L75.0682 89.227L75.1622 89.1008L75.2558 88.9706L75.3495 88.8446L75.4399 88.7144L75.5333 88.5881L75.6198 88.4578L75.7098 88.3278L75.7963 88.1975L75.8862 88.0714L75.9688 87.941L76.1415 87.6807L76.307 87.4202L76.3855 87.2899L76.4682 87.1595L76.7051 86.7687L76.8553 86.5078L76.871 86.4816L76.8 86.4802L76.5041 86.4821ZM77.172 41.4894L77.2465 41.6227L77.4591 42.0114L77.5263 42.1409L77.5971 42.2701L77.6643 42.3996L77.7275 42.5329L77.7947 42.6624L78.0486 43.1797L78.1116 43.3126L78.2904 43.7008L78.3464 43.8298L78.4059 43.959L78.4618 44.0886L78.5177 44.2214L78.5701 44.3506L78.6258 44.4797L78.8344 44.9962L78.8829 45.1253L78.9313 45.2507L79.0767 45.6382L79.1214 45.7671L79.17 45.892L79.2147 46.021L79.2558 46.1502L79.3004 46.2755L79.3413 46.4043L79.3862 46.5294L79.4271 46.6583L79.4645 46.7835L79.5055 46.9085L79.5428 47.0376L79.5839 47.1626L79.6582 47.4129L79.6921 47.5378L79.7295 47.663L79.8637 48.1631L79.8972 48.284L79.927 48.409L79.9607 48.5303L80.0206 48.7801L80.0505 48.9012L80.0768 49.0226L80.1067 49.1437L80.1327 49.2648L80.159 49.3895L80.2113 49.6319L80.2378 49.7494L80.26 49.8703L80.2864 49.9911L80.3089 50.1124L80.3538 50.3468L80.3766 50.4679L80.3954 50.5852L80.4178 50.7022L80.4367 50.8231L80.4555 50.9404L80.4781 51.0578L80.4968 51.1751L80.5123 51.2882L80.5498 51.5228L80.5652 51.6359L80.584 51.7532L80.6141 51.9798L80.6294 52.0968L80.6408 52.2103L80.6713 52.4367L80.6828 52.5503L80.698 52.6597L80.721 52.8863L80.7444 53.1051L80.7558 53.2186L80.7674 53.3283L80.7753 53.4373L80.7869 53.547L80.7947 53.6566L80.8064 53.7657L80.8142 53.8753L80.8221 53.981L80.8302 54.0904L80.8355 54.1585L80.9015 54.2047L80.9895 54.2632L81.3411 54.5111L81.4329 54.5772L81.5205 54.6391L81.6086 54.705L81.6999 54.7709L81.7878 54.8326L81.8793 54.9022L81.967 54.9683L82.0586 55.034L82.1467 55.1L82.2343 55.1694L82.5084 55.3783L82.5961 55.4477L82.7789 55.5874L82.8664 55.6607L83.0489 55.8072L83.137 55.8806L83.3195 56.0271L83.4106 56.1044L83.502 56.1778L83.6844 56.3324L83.7717 56.4128L83.9541 56.5674L84.4095 56.972L84.5002 57.0566L84.5877 57.1375L84.7696 57.3069L84.8605 57.3952L84.9514 57.4802L85.0422 57.5685L85.1335 57.6533L85.2205 57.7415L85.4021 57.9187L85.4928 58.0109L85.5797 58.103L85.6706 58.1913L85.7615 58.2838L86.2073 58.7558L86.5619 59.1473L86.8223 59.4462L86.9129 59.5498L86.9994 59.6495L87.173 59.8564L87.2594 59.9634L87.3458 60.067L87.4324 60.1743L87.5152 60.2815L87.6882 60.4958L87.771 60.603L87.8574 60.7141L87.9402 60.8246L88.0266 60.9358L88.1093 61.0469L88.1919 61.1612L88.2745 61.2723L88.357 61.3872L88.4394 61.5054L88.6045 61.7347L88.6872 61.8533L88.7658 61.9714L88.8481 62.0902L88.9267 62.2083L89.0054 62.3306L89.0877 62.4527L89.1665 62.5711L89.245 62.6931L89.3233 62.8189L89.3985 62.9409L89.5553 63.193L89.6301 63.3185L89.7046 63.4484L89.783 63.5742L89.9325 63.8333L89.9838 63.7364L90.059 63.6061L90.1343 63.472L90.2057 63.3416L90.2809 63.2071L90.3524 63.0728L90.4241 62.9347L90.4958 62.8008L90.7104 62.3867L90.7783 62.2485L90.8465 62.1067L90.9143 61.9685L91.0501 61.6849L91.1145 61.543L91.179 61.3973L91.247 61.2552L91.3112 61.1097L91.3719 60.9639L91.4364 60.8182L91.4971 60.669L91.5614 60.5229L91.6224 60.3736L91.679 60.224L91.8009 59.925L91.8576 59.7754L91.9721 59.4684L92.0252 59.3152L92.0826 59.1618L92.1361 59.0084L92.1894 58.8513L92.2427 58.6975L92.2928 58.5405L92.3461 58.3834L92.4458 58.0686L92.4916 57.9074L92.5416 57.7504L92.6799 57.2668L92.7222 57.102L92.7686 56.9409L92.8109 56.7794L92.8532 56.6146L93.0085 55.9547L93.0475 55.7857L93.0825 55.6205L93.1526 55.2829L93.1841 55.114L93.2193 54.9449L93.2508 54.776L93.2783 54.6034L93.3099 54.4345L93.3934 53.916L93.4654 53.3972L93.4894 53.2209L93.5096 53.0479L93.5301 52.8713L93.5503 52.6982L93.6007 52.168L93.6136 51.9912L93.6304 51.8106L93.6433 51.6338L93.6523 51.4569L93.6653 51.2762L93.6841 50.9187L93.7062 50.1956L93.7097 49.8338L93.706 49.4682L93.7082 49.2834L93.7022 49.1026L93.7008 48.9181L93.6952 48.737L93.6855 48.5521L93.6803 48.3675L93.671 48.1825L93.6579 48.0015L93.6486 47.8165L93.6224 47.447L93.6056 47.2621L93.5925 47.0769L93.5721 46.8922L93.5557 46.7071L93.4162 46.6062L93.2701 46.4978L93.1199 46.3933L92.9658 46.2849L92.8155 46.18L92.6652 46.0793L92.5112 45.9779L92.361 45.8771L92.2067 45.7759L91.5899 45.3869L91.2812 45.2002L91.1268 45.1104L90.9686 45.0204L90.8143 44.931L90.6561 44.8411L90.4977 44.755L90.3431 44.6691L90.1847 44.583L89.8681 44.4188L89.7132 44.3364L89.5512 44.2581L89.2339 44.1008L88.5992 43.802L88.4367 43.7311L88.1191 43.5891L87.9568 43.5218L87.6389 43.3876L87.4762 43.3238L87.3173 43.2608L87.1546 43.197L86.9954 43.1336L86.8327 43.074L86.6734 43.0145L86.5106 42.9546L86.3514 42.8986L86.1884 42.8426L86.0293 42.7867L85.8661 42.7345L85.7068 42.6825L85.5437 42.6303L85.3844 42.5783L85.2214 42.5298L85.0618 42.4812L84.8985 42.4329L84.7392 42.3884L84.5755 42.3436L84.2565 42.2544L84.0932 42.2136L83.7736 42.1317L83.4543 42.0578L83.2906 42.0205L83.1305 41.9835L82.4908 41.8504L82.3345 41.821L82.0147 41.762L81.8543 41.736L81.6982 41.7104L81.538 41.6848L81.3814 41.659L81.2213 41.6371L80.7516 41.5714L80.5912 41.553L80.2777 41.5166L80.125 41.4984L79.6548 41.4551L79.5016 41.441L79.3447 41.4305L79.1918 41.4161L79.0387 41.4057L78.8815 41.3986L78.7285 41.3882L78.2723 41.3678L78.1193 41.3649L77.9659 41.358L77.6628 41.3523L77.5133 41.353L77.3636 41.35L77.2137 41.3509L77.0938 41.3522L77.0975 41.3595L77.172 41.4894ZM51.4771 41.5171L51.6266 41.5197L51.7763 41.5194L52.0719 41.5252L52.2178 41.5313L52.3633 41.5344L52.9466 41.5611L53.0887 41.5713L53.2343 41.5819L53.8017 41.623L54.2275 41.6653L54.365 41.6792L54.5035 41.6972L54.6451 41.7115L55.0591 41.7646L55.1932 41.7823L55.331 41.8041L55.4689 41.8219L56.0052 41.9076L56.1393 41.9329L56.2733 41.9545L56.5339 42.0049L56.6681 42.0301L57.0584 42.1055L57.1848 42.1344L57.3149 42.1634L57.4414 42.1884L57.5715 42.2175L57.6977 42.2502L57.9507 42.3079L58.0767 42.3403L58.1997 42.3692L58.3256 42.4016L58.8159 42.5322L58.9382 42.5682L59.0569 42.6011L59.1794 42.6332L59.8913 42.851L60.1212 42.9235L60.2396 42.9632L60.3546 42.9996L60.4658 43.0393L60.5805 43.0792L60.6956 43.1157L60.8064 43.1555L60.9215 43.1953L61.1434 43.2753L61.2545 43.3188L61.3653 43.3586L61.4729 43.3985L61.584 43.442L61.691 43.4817L61.7982 43.5251L61.9054 43.5652L62.1199 43.6519L62.2271 43.692L62.3305 43.7353L62.4379 43.779L62.8519 43.9528L62.9553 44.0003L63.0551 44.0438L63.1584 44.087L63.2582 44.1305L63.3578 44.1779L63.4573 44.2211L63.5569 44.2684L63.6567 44.3119L63.7564 44.3587L63.8523 44.4021L63.9519 44.4495L64.0479 44.4929L64.1291 44.5321L64.1821 44.5068L64.2773 44.4596L64.5735 44.3184L64.6724 44.2752L64.7711 44.2283L64.8734 44.1812L64.9725 44.1341L65.075 44.0874L65.1771 44.0441L65.3823 43.95L65.4847 43.9071L65.587 43.86L65.6934 43.8167L65.7959 43.7699L66.0079 43.6836L66.114 43.6366L66.3264 43.5501L66.4364 43.5075L66.5424 43.4643L67.092 43.249L67.2055 43.2099L67.3153 43.1669L67.429 43.124L67.6558 43.0455L67.7695 43.0026L67.8828 42.9632L68.1173 42.885L68.2312 42.8458L68.5829 42.7282L68.7037 42.6929L68.8209 42.6536L68.9417 42.6183L69.0629 42.5795L69.5462 42.4383L69.6709 42.4031L69.7917 42.3678L69.9162 42.3364L70.0409 42.3012L70.1652 42.2695L70.2936 42.2383L70.4182 42.2031L70.5425 42.1714L70.6709 42.1402L70.7989 42.1125L71.0554 42.0497L71.1834 42.022L71.3152 41.9944L71.4432 41.9667L71.9707 41.8567L72.1024 41.8329L72.2379 41.8093L72.3697 41.7817L72.5052 41.7581L72.6404 41.738L72.9118 41.6905L73.0471 41.6708L73.1861 41.6508L73.3215 41.631L73.7386 41.5714L74.0167 41.5389L74.1595 41.5233L74.2984 41.5071L74.4414 41.4909L74.5801 41.4786L74.7227 41.4626L74.8651 41.4501L75.012 41.4382L75.1543 41.4257L75.2972 41.4176L75.4433 41.4052L75.5893 41.3966L75.7322 41.3885L75.8782 41.3799L76.0244 41.3751L76.1743 41.3667L76.4665 41.3575L76.6162 41.3529L76.7624 41.3522L76.9124 41.3475L77.062 41.3468L77.0919 41.3472L77.0209 41.2251L76.8715 40.9664L76.7932 40.8363L76.7149 40.7105L76.6364 40.581L76.5544 40.4512L76.4762 40.3215L76.3119 40.0621L76.2259 39.936L76.1439 39.8062L76.0577 39.6765L75.9721 39.5502L75.8826 39.4205L75.7966 39.2944L75.707 39.1644L75.6174 39.0386L75.5237 38.9123L75.4339 38.7861L75.3371 38.656L75.15 38.4038L75.053 38.2775L74.956 38.1551L74.7615 37.9025L74.6604 37.7763L74.4585 37.5313L74.3576 37.4046L74.0433 37.0367L73.9347 36.914L73.8299 36.7914L73.7213 36.6686L73.3882 36.3042L73.0511 35.9468L72.7028 35.5895L72.5829 35.4743L72.4632 35.3552L72.1032 35.0089L71.7319 34.6626L71.094 34.1034L70.9629 33.9915L70.8315 33.8835L70.7004 33.7716L70.2948 33.4472L70.1593 33.3426L70.0241 33.2345L69.4684 32.8168L69.3254 32.7156L69.1826 32.6115L69.0398 32.5106L68.8932 32.4097L68.7504 32.3088L68.31 32.0176L67.8587 31.7261L67.5575 31.5392L67.4028 31.4457L67.2486 31.3563L67.0944 31.2626L66.9363 31.173L66.7819 31.0832L66.6235 30.9972L66.4652 30.9072L66.1486 30.7355L65.9867 30.6491L65.5 30.4023L65.3343 30.3201L65.1721 30.2414L64.84 30.0839L64.6704 30.0054L64.5042 29.9305L64.3343 29.8516L64.2012 29.7927L64.1825 29.8036L64.0115 29.8791L63.8405 29.9588L63.6736 30.0348L63.5066 30.1141L63.3393 30.1978L63.172 30.2773L62.8451 30.444L62.6813 30.5313L62.5177 30.6147L62.3544 30.7022L62.0347 30.8765L61.8745 30.9678L61.7144 31.0549L61.5585 31.1461L61.398 31.2409L61.2421 31.3321L61.0893 31.4271L60.9333 31.5183L60.7803 31.613L60.6277 31.7117L60.4749 31.8067L60.3223 31.9054L59.8751 32.2019L59.7299 32.301L59.5807 32.4033L59.1444 32.7113L59.0029 32.8139L58.5774 33.1335L58.3015 33.3467L58.1634 33.4567L58.0253 33.5635L57.4878 34.0051L57.3568 34.1195L57.2264 34.2297L56.9648 34.4582L56.4567 34.9157L56.2097 35.1516L56.0864 35.2662L55.9666 35.3843L55.8433 35.5022L55.7234 35.6242L55.6038 35.7428L55.4878 35.861L55.372 35.983L55.256 36.1013L55.1399 36.2234L55.0276 36.3457L54.9113 36.4675L54.799 36.5898L54.6905 36.7121L54.5786 36.8342L54.4699 36.9562L54.3611 37.0821L54.2562 37.2048L54.1477 37.3305L54.0427 37.4565L53.9377 37.5792L53.8364 37.705L53.7314 37.831L53.5291 38.0832L53.4318 38.2094L53.3307 38.3355L53.233 38.4653L53.1354 38.5917L53.0419 38.7181L52.9481 38.8479L52.8541 38.9741L52.7604 39.1043L52.6664 39.2305L52.4866 39.4908L52.3964 39.6171L52.3099 39.7474L52.22 39.8774L52.1337 40.008L52.0474 40.1339L51.6345 40.7857L51.3979 41.1763L51.3227 41.3066L51.2439 41.4371L51.2002 41.5192L51.3311 41.5181L51.4771 41.5171ZM93.4202 80.5897L93.4411 80.4054L93.4577 80.2212L93.4709 80.0367L93.4882 79.8487L93.5142 79.4799L93.5425 78.9305L93.565 78.1959L93.5707 77.6499L93.565 77.1071L93.5537 76.745L93.548 76.5678L93.5424 76.3867L93.5234 76.0323L93.5139 75.8511L93.4741 75.3189L93.4572 75.1454L93.4438 74.9679L93.4266 74.7946L93.406 74.6171L93.3889 74.4431L93.3682 74.2695L93.3437 74.0957L93.3224 73.9219L93.2978 73.7481L93.2731 73.5782L93.2486 73.4044L93.2242 73.2343L93.1388 72.7236L93.0742 72.3837L93.0096 72.0503L92.9736 71.8804L92.9378 71.7175L92.9053 71.5512L92.8654 71.3845L92.8292 71.2217L92.7896 71.0554L92.7099 70.7295L92.6661 70.5665L92.6223 70.4077L92.5826 70.2447L92.5348 70.0855L92.4913 69.9265L92.4436 69.7634L92.3998 69.608L92.3487 69.4488L92.3011 69.2932L92.2538 69.1342L92.0996 68.6675L92.0481 68.516L91.9928 68.3602L91.9414 68.2088L91.831 67.9051L91.7719 67.7567L91.7166 67.6051L91.4803 67.0125L91.4212 66.8683L91.3585 66.7202L91.1699 66.2868L91.1067 66.146L91.0398 66.0055L90.9773 65.861L90.9102 65.7201L90.8435 65.5832L90.7764 65.4423L90.643 65.1686L90.4309 64.7575L90.1477 64.2243L90.0732 64.091L89.9989 63.9614L89.9279 63.8318L89.9045 63.8653L89.7541 64.1258L89.6753 64.2564L89.6004 64.3831L89.285 64.8892L89.1279 65.1348L89.0456 65.2575L88.9667 65.3805L88.8845 65.4993L88.8021 65.622L88.5554 65.979L88.4733 66.0939L88.391 66.2133L88.3051 66.3281L88.2229 66.4436L88.137 66.5585L88.0549 66.6701L87.9691 66.7849L87.7118 67.1193L87.626 67.227L87.5403 67.338L87.4546 67.4456L87.3654 67.553L87.2796 67.6607L87.1941 67.7645L87.1045 67.872L87.0153 67.9761L86.9297 68.0799L86.7513 68.287L86.4839 68.5872L86.3985 68.6872L86.3093 68.787L86.2164 68.8871L85.86 69.2718L85.7675 69.3642L85.6782 69.4607L85.5857 69.5531L85.4967 69.6452L85.4038 69.7377L85.315 69.8302L85.2226 69.9186L85.1337 70.0074L85.0409 70.0961L84.9523 70.1847L84.5861 70.5356L84.4937 70.6166L84.4049 70.7015L84.2202 70.8713L84.1278 70.9523L84.0391 71.0334L83.762 71.2766L83.6698 71.354L83.5812 71.4351L83.3047 71.6671L83.2162 71.7443L83.1241 71.8218L82.9397 71.9688L82.8516 72.0425L82.6671 72.1895L82.579 72.2632L82.4869 72.3332L82.3949 72.4067L82.3026 72.4763L82.2146 72.5461L82.1224 72.6161L82.0345 72.6859L81.9425 72.752L81.8507 72.8217L81.7624 72.8875L81.6706 72.954L81.5822 73.0198L81.4904 73.0895L81.4024 73.1518L81.3143 73.218L81.2223 73.2841L81.0463 73.4087L80.9543 73.4748L80.8663 73.5371L80.7784 73.5955L80.7366 73.6247L80.7297 73.7226L80.7188 73.8317L80.7118 73.941L80.6576 74.4862L80.6466 74.5992L80.6319 74.7083L80.61 74.9337L80.5955 75.0464L80.5808 75.1555L80.5514 75.381L80.5367 75.4976L80.5072 75.7228L80.4887 75.8393L80.4738 75.9522L80.4368 76.1851L80.422 76.298L80.385 76.5309L80.3626 76.6472L80.344 76.7675L80.3217 76.8838L80.3032 77.0003L80.2807 77.1205L80.2583 77.2368L80.2137 77.477L80.1874 77.597L80.1651 77.7134L80.1128 77.9533L80.0901 78.0774L80.0641 78.1973L80.0342 78.3176L80.0081 78.4413L79.9817 78.5614L79.9518 78.685L79.9218 78.8053L79.8319 79.1762L79.7642 79.4238L79.7342 79.5474L79.6668 79.7947L79.6294 79.9185L79.5954 80.0459L79.558 80.1696L79.5202 80.2969L79.4828 80.4206L79.4077 80.6753L79.3663 80.8028L79.3248 80.926L79.2876 81.0535L79.2423 81.1808L79.2007 81.308L79.1595 81.4391L79.0244 81.8209L78.9788 81.9518L78.8813 82.2059L78.8362 82.3369L78.7871 82.4642L78.7344 82.595L78.6859 82.7224L78.5804 82.984L78.5278 83.111L78.4751 83.2418L78.3625 83.5033L78.3097 83.6342L78.2497 83.7612L78.1931 83.8919L77.8924 84.5455L77.7004 84.9374L77.6327 85.0718L77.5688 85.202L77.4334 85.4632L77.3623 85.594L77.2945 85.7241L77.0803 86.1159L77.0049 86.25L76.9297 86.3803L76.8705 86.4847L76.9493 86.4825L77.0988 86.4818L77.2527 86.4771L77.4022 86.4764L77.5522 86.4717L77.7057 86.4672L77.8556 86.4588L78.0091 86.4544L78.1595 86.4461L78.3131 86.4378L78.467 86.4256L78.6206 86.4173L79.0819 86.3814L79.2398 86.3655L79.5476 86.334L79.7056 86.3184L79.8592 86.3026L80.175 86.2636L80.3288 86.2439L80.9608 86.151L81.1187 86.1237L81.2767 86.1006L81.4348 86.0737L81.5964 86.0428L81.7547 86.012L81.9128 85.9851L82.0747 85.9507L82.2328 85.9195L82.3913 85.8849L82.5532 85.8505L82.7116 85.8158L82.8735 85.7815L83.0318 85.7432L83.3559 85.6667L83.5149 85.6247L83.839 85.5407L83.9976 85.4947L84.16 85.4529L84.3224 85.407L84.4813 85.3574L84.6437 85.3115L84.9686 85.2124L85.131 85.159L85.2897 85.1058L85.7778 84.9457L85.9367 84.8886L86.0995 84.8278L86.2622 84.7708L86.4213 84.7098L86.747 84.5882L86.9062 84.5233L87.0692 84.4587L87.232 84.3903L87.3914 84.3258L87.5545 84.2573L87.7135 84.1888L87.8732 84.1166L88.036 84.0483L88.1959 83.9722L88.3588 83.9L88.8375 83.6719L88.9971 83.5922L89.1566 83.5164L89.3164 83.4328L89.4761 83.3531L89.6359 83.2695L89.7918 83.1859L90.1116 83.0116L90.2679 82.9277L90.4279 82.8369L91.053 82.4722L91.2093 82.3775L91.3658 82.2789L91.5222 82.1837L91.675 82.0853L91.988 81.8876L92.4465 81.5803L92.9054 81.2614L93.0549 81.1514L93.2081 81.0415L93.3576 80.9314L93.3841 80.9093L93.3996 80.7777L93.4202 80.5897Z" fill="white"/>
<path opacity="0.5" d="M34.3341 80.5726L34.3483 79.8027L34.356 79.6132L34.3664 79.419L34.3895 78.8496L34.4135 78.475L34.4282 78.2834L34.4446 78.0987L34.456 77.9114L34.4887 77.5415L34.5071 77.3526L34.6092 76.4414L34.7327 75.5434L34.7901 75.1889L34.8166 75.0159L34.8453 74.8386L34.8783 74.664L34.9075 74.4868L34.9378 74.3164L35.0038 73.9672L35.039 73.7995L35.0763 73.6275L35.1109 73.4592L35.1482 73.2873L35.2174 72.9513L35.259 72.782L35.4146 72.1207L35.5011 71.7948L35.54 71.6297L35.5875 71.4694L35.628 71.3107L35.6712 71.1478L35.7182 70.9875L35.7593 70.8288L35.8062 70.6685L35.8554 70.5151L35.9002 70.3591L35.9477 70.1988L36.0454 69.8914L36.0902 69.7354L36.1437 69.5841L36.2414 69.2773L36.2921 69.1303L36.3413 68.9769L36.3947 68.8256L36.4454 68.6791L36.4983 68.5278L36.5534 68.3834L36.6041 68.2364L36.657 68.0856L36.8216 67.6525L36.8739 67.5124L36.984 67.2236L37.0433 67.0818L37.0952 66.9417L37.1518 66.8042L37.2111 66.6625L37.38 66.2495L37.441 66.1147L37.4976 65.9766L37.558 65.8418L37.6147 65.7043L37.6729 65.5732L37.7334 65.4384L37.7916 65.3072L37.8526 65.1724L37.9108 65.0413L37.9729 64.9128L38.0894 64.6511L38.276 64.2657L38.3343 64.1351L38.3941 64.0109L38.4124 63.9817L38.3292 63.8172L38.1491 63.4343L38.0847 63.3038L38.0256 63.1765L37.9675 63.0444L37.9079 62.9171L37.8461 62.7829L37.7892 62.6509L37.7274 62.5167L37.6699 62.3846L37.6086 62.2504L37.5538 62.1146L37.492 61.9804L37.4373 61.8441L37.3782 61.7056L37.3239 61.5698L37.1466 61.1545L37.0945 61.0145L37.0381 60.8718L36.979 60.7333L36.9226 60.5907L36.8705 60.4506L36.8168 60.3037L36.7604 60.161L36.5993 59.7207L36.5494 59.5764L36.442 59.2825L36.1859 58.5277L36.1392 58.3791L35.896 57.6036L35.8498 57.4444L35.8015 57.289L35.7591 57.1325L35.6674 56.8137L35.6239 56.6503L35.5777 56.4911L35.5386 56.3304L35.4517 56.003L35.3712 55.6747L35.3347 55.5097L35.2918 55.3463L35.1417 54.6725L35.0736 54.334L35.035 54.1621L35.0012 53.9929L34.8438 53.1259L34.7859 52.7705L34.7613 52.5954L34.7035 52.2404L34.6816 52.0611L34.6548 51.8797L34.6335 51.7003L34.6067 51.5183L34.5853 51.3395L34.4876 50.4227L34.4706 50.2348L34.4578 50.0502L34.4408 49.8624L34.4158 49.4925L34.4014 49.301L34.3612 48.5443L34.3576 48.3533L34.3502 48.1602L34.3466 47.9691L34.3393 47.776L34.3389 47.5812L34.3353 47.3902L34.3349 47.1955L34.3329 47.1143L34.279 47.1446L34.1082 47.2424L33.9391 47.3465L33.7684 47.4438L33.5949 47.5453L33.4263 47.6495L33.254 47.7579L33.0854 47.862L32.9135 47.9704L32.7444 48.0746L32.5774 48.1851L32.4023 48.2978L32.2354 48.4088L32.0651 48.5236L31.8976 48.6347L31.5572 48.8647L31.3891 48.9864L31.2232 49.1038L30.7179 49.4689L30.5536 49.5932L30.3828 49.7191L30.2185 49.8434L30.0515 49.972L29.8888 50.1032L29.7218 50.2312L29.5569 50.3667L29.3942 50.4974L29.064 50.7678L28.9034 50.9054L28.738 51.0408L28.5769 51.1784L28.4137 51.3202L28.2542 51.4647L28.0904 51.6066L27.9342 51.7468L27.7725 51.895L27.6125 52.0395L27.4552 52.1908L27.2957 52.3348L26.9805 52.637L26.8242 52.7948L26.6664 52.9461L26.5133 53.0996L26.3571 53.2574L26.2051 53.4178L26.0489 53.5755L25.7455 53.8963L25.5978 54.0593L25.4437 54.2234L25.2934 54.3907L25.1457 54.5538L24.9959 54.7205L24.8499 54.8905L24.7011 55.0641L24.5556 55.2335L24.4106 55.4098L24.2651 55.5792L23.9763 55.9319L23.4157 56.6471L23.2772 56.833L23.1414 57.0141L22.8643 57.3852L22.5959 57.7617L22.466 57.9523L22.3312 58.1403L22.0693 58.5258L21.5609 59.3068L21.1884 59.9062L20.8255 60.5173L20.3575 61.3456L20.2458 61.5531L20.1321 61.765L20.022 61.9789L19.9147 62.1892L19.6952 62.6176L19.3781 63.2679L19.0739 63.9257L19.0345 64.0164L19.0667 64.087L19.2677 64.5283L19.474 64.9616L19.5815 65.1807L19.6874 65.3934L19.7948 65.6124L19.9007 65.8251L20.3511 66.6684L20.6967 67.2884L20.8187 67.4931L20.937 67.6957L21.0585 67.901L21.1789 68.0993L21.3009 68.304L21.424 68.4987L21.5487 68.6991L21.9304 69.2894L22.1896 69.6744L22.3218 69.8632L22.4519 70.0557L22.5842 70.2439L22.7208 70.4348L23.1256 70.9874L23.2676 71.1703L23.402 71.3543L23.544 71.5367L23.6843 71.7128L23.8285 71.8915L24.1092 72.243L24.2533 72.4217L24.3958 72.593L24.5431 72.7674L24.6927 72.9376L24.9831 73.2727L25.1326 73.4429L25.2805 73.6062L25.5849 73.9381L25.8861 74.2568L26.0404 74.4185L26.191 74.5775L26.3481 74.7355L26.6547 75.0457L26.8117 75.2031L27.1232 75.5048L27.2856 75.6542L27.4438 75.8011L27.5997 75.9517L27.76 76.0942L27.9182 76.2411L28.4007 76.6689L28.8913 77.0844L29.0505 77.2201L29.2162 77.3542L29.3776 77.4862L29.5444 77.6203L29.7058 77.7523L29.8747 77.8821L30.2029 78.1371L30.3702 78.2606L30.5386 78.391L30.7053 78.5139L30.8754 78.6331L31.0378 78.754L31.5468 79.1117L31.712 79.2288L31.8841 79.3438L32.2199 79.5685L32.3904 79.6771L32.5583 79.7895L33.0694 80.1148L33.9228 80.6282L34.2655 80.8232L34.3328 80.8634L34.335 80.7674L34.3341 80.5726ZM34.6339 46.9484L34.8047 46.8512L34.977 46.7603L35.1456 46.6667L35.6627 46.3946L35.8323 46.3079L36.0047 46.2176L36.1787 46.1336L36.3488 46.0469L36.5201 45.9672L36.6898 45.8805L37.5472 45.4807L37.7201 45.4078L37.8892 45.3318L38.0615 45.2589L38.2306 45.1829L39.2539 44.7691L39.5894 44.6393L39.7617 44.5771L39.9297 44.5122L40.0993 44.4537L40.2668 44.3893L40.4365 44.3308L40.6018 44.2707L40.7714 44.2121L40.9384 44.1584L41.108 44.0999L41.6088 43.9381L41.773 43.8886L41.94 43.8343L42.2685 43.7348L42.437 43.6874L42.6018 43.6379L42.7633 43.5921L42.9292 43.5495L43.0934 43.4995L43.2555 43.4537L43.4187 43.4148L44.0691 43.2455L44.2301 43.2108L44.3895 43.1693L44.5527 43.1304L44.8741 43.0611L45.0308 43.0239L45.6673 42.8858L46.1422 42.7941L46.2935 42.7653L46.4518 42.7344L46.763 42.6811L46.9143 42.6528L47.2255 42.5995L47.379 42.5776L47.5346 42.5509L47.6832 42.5263L47.9896 42.4815L48.1355 42.4606L48.2884 42.4388L48.4391 42.4206L48.5877 42.3955L48.8887 42.3591L49.0352 42.3388L49.1854 42.3207L49.3291 42.3041L49.4799 42.2859L49.6274 42.272L49.7712 42.2559L49.9192 42.2415L50.2067 42.2088L50.3542 42.1944L50.4953 42.182L50.6407 42.1723L50.7844 42.1563L51.2076 42.1188L51.2119 42.1214L51.2421 42.0826L51.3186 41.9685L51.5687 41.6212L51.648 41.5033L51.7315 41.3876L51.8178 41.2676L51.9056 41.1545L51.9886 41.0387L52.0749 40.9192L52.1627 40.8061L52.2484 40.6861L52.7001 40.0994L52.7928 39.9783L52.8834 39.8609L52.9804 39.742L53.0747 39.6273L53.1674 39.5057L53.2649 39.3867L53.3592 39.272L53.6503 38.9152L53.7543 38.7946L53.8556 38.6783L53.9526 38.5594L54.1606 38.3183L54.2619 38.202L54.3659 38.0814L54.4737 37.9635L54.5777 37.843L55.0104 37.3708L55.1209 37.2487L55.233 37.1334L55.344 37.0113L55.4561 36.8955L55.6862 36.6565L55.7983 36.5412L55.9136 36.4212L56.0327 36.3044L56.1501 36.1806L56.2692 36.0638L56.3926 35.949L56.5117 35.8322L56.6334 35.7106L56.7568 35.5964L56.8759 35.4795L57.1281 35.2416L57.2552 35.13L57.3813 35.011L57.5117 34.8947L57.6372 34.7762L57.7719 34.6626L58.0321 34.4299L58.1668 34.3162L58.2967 34.2004L58.4314 34.0867L58.5725 33.9715L58.8414 33.7441L58.9825 33.6288L59.121 33.5178L59.2621 33.4025L59.4049 33.2941L59.546 33.1789L59.6893 33.0705L59.9797 32.8452L60.1295 32.7347L60.2722 32.6263L60.7215 32.2959L61.4907 31.7576L61.6486 31.6524L61.8026 31.5451L61.9648 31.4425L62.281 31.2326L62.6058 31.0275L62.7706 30.9207L62.9371 30.8208L63.0997 30.7182L63.4326 30.5179L63.6033 30.4206L63.7698 30.3207L63.9405 30.2234L64.0105 30.1851L63.9896 30.1724L63.8179 30.075L63.6441 29.9817L63.4682 29.8816L63.12 29.6951L62.9419 29.5992L62.7654 29.5103L62.5846 29.4181L62.4081 29.3291L62.046 29.1458L61.6795 28.9711L61.4917 28.881L61.3055 28.7974L61.122 28.71L60.9363 28.6263L60.7459 28.5405L60.5575 28.4611L60.367 28.3753L60.1744 28.2938L59.9833 28.2186L59.7901 28.1365L59.5948 28.0592L59.4021 27.9777L59.2041 27.9036L59.0087 27.8263L58.4146 27.6061L58.21 27.5341L58.012 27.461L57.8113 27.3917L57.6041 27.324L57.4033 27.2552L57.1961 27.1869L56.9927 27.1218L56.7828 27.0584L56.5793 26.9933L56.3694 26.9298L56.1638 26.869L55.7386 26.7505L55.5304 26.6934L55.3178 26.6341L54.8877 26.5241L54.6767 26.4713L54.4614 26.4163L54.026 26.3143L53.8123 26.2657L53.1514 26.1256L52.9328 26.0855L52.4866 26L52.2681 25.9598L51.817 25.8828L51.5958 25.8469L51.3675 25.8126L51.142 25.7741L50.9159 25.7467L50.6877 25.7124L50.4611 25.6845L50.2307 25.6545L50.0041 25.6265L49.771 25.6008L49.3129 25.5534L49.0771 25.5324L48.3822 25.4741L47.9138 25.4438L47.677 25.4334L47.4428 25.4177L47.2102 25.4094L46.9707 25.4027L46.7338 25.3918L46.4985 25.3873L46.2568 25.3848L46.0216 25.3803L45.5457 25.3807L45.3013 25.382L45.0638 25.3817L44.8232 25.3856L44.5847 25.3964L44.3441 25.4004L44.0986 25.4128L43.8601 25.4236L43.6173 25.4318L43.3755 25.4469L43.1316 25.4662L42.8904 25.4808L42.4027 25.5194L42.1604 25.5451L41.9165 25.5639L41.6742 25.5896L41.5235 25.6078L41.5084 25.6327L41.2211 26.0204L41.0793 26.2211L40.9397 26.4176L40.8049 26.6167L40.6648 26.8131L40.53 27.0117L40.399 27.2135L40.2637 27.4126L40.1327 27.6144L40.006 27.8177L39.875 28.0195L39.751 28.2191L39.6281 28.4262L39.5041 28.6258L39.2615 29.0346L39.1455 29.2395L39.0258 29.4418L38.9099 29.6468L38.5756 30.2695L38.4667 30.4728L38.3593 30.6831L38.2504 30.8864L38.1501 31.0945L38.0422 31.3047L37.8416 31.7215L37.744 31.9259L37.5514 32.3474L37.3637 32.7614L37.272 32.9748L37.0929 33.3931L37.0103 33.6012L36.8398 34.0248L36.7573 34.2324L36.4437 35.0732L36.3692 35.2861L36.298 35.4947L36.2235 35.7075L36.1517 35.9161L35.9498 36.5499L35.885 36.7569L35.8219 36.9703L35.6399 37.5993L35.5275 38.0233L35.366 38.647L35.2174 39.2786L35.1704 39.4845L34.9995 40.3199L34.9595 40.5248L34.9205 40.736L34.8128 41.3575L34.7798 41.5607L34.7506 41.7666L34.7186 41.9763L34.6606 42.387L34.6335 42.5887L34.6048 42.7941L34.5153 43.6103L34.4957 43.8098L34.4494 44.4169L34.4293 44.617L34.4183 44.8218L34.3927 45.2183L34.3839 45.4188L34.3778 45.6152L34.369 45.8163L34.3507 46.4053L34.3484 46.6049L34.345 46.7975L34.342 47.1106L34.4589 47.0431L34.6339 46.9484ZM63.5778 97.4467L62.7465 96.946L62.0982 96.5327L61.9427 96.4277L61.7807 96.3244L61.6258 96.22L61.466 96.1124L61.311 96.0075L61.1583 95.8983L61.0028 95.7934L60.8505 95.6843L60.702 95.5777L60.5492 95.4686L60.4034 95.3583L60.2506 95.2492L59.6675 94.8066L59.5254 94.6979L59.3823 94.5835L59.2408 94.4753L59.0977 94.3603L58.9627 94.2506L58.8196 94.1356L58.6873 94.0216L58.548 93.9093L58.4119 93.7932L58.2795 93.6792L58.1407 93.5668L58.0111 93.4486L57.7464 93.2207L57.6211 93.1051L57.4888 92.9912L57.3591 92.8735L56.9826 92.5268L56.86 92.407L56.7346 92.2914L56.6115 92.1716L56.4904 92.0587L56.3678 91.9389L55.8934 91.4702L55.7815 91.3515L55.6626 91.2343L55.4394 90.9968L55.3249 90.8823L54.9893 90.5254L54.8844 90.4051L54.7725 90.2863L54.665 90.1702L54.5601 90.0499L54.4525 89.9332L54.3476 89.8129L54.2465 89.6952L54.1417 89.5748L54.0411 89.4571L53.9357 89.3367L53.6335 88.9831L53.5372 88.8675L53.4388 88.7455L53.342 88.6299L53.2484 88.5106L53.1473 88.3929L53.0538 88.2731L52.964 88.1564L52.8672 88.0408L52.7731 87.9215L52.594 87.6877L52.4999 87.5678L52.2305 87.2173L52.1477 87.0985L52.0579 86.9814L51.9724 86.8673L51.8896 86.7486L51.7186 86.52L51.6353 86.4012L51.5498 86.2867L51.467 86.1684L51.3858 86.0565L51.303 85.9378L51.2239 85.8216L51.204 85.7983L51.1884 85.7946L51.0452 85.7825L50.9058 85.7731L50.4757 85.7374L50.3282 85.7232L50.1877 85.7069L50.0397 85.6922L49.8965 85.6806L49.749 85.6659L49.6037 85.6475L49.3087 85.6185L49.1633 85.5996L49.0115 85.5827L48.8667 85.5643L48.7149 85.5469L48.4162 85.5047L48.2644 85.4874L47.9662 85.4452L47.6594 85.3977L47.5097 85.3766L47.2029 85.3292L47.0452 85.3028L46.8945 85.2748L46.7368 85.2489L46.5861 85.2209L46.2706 85.1682L45.9601 85.1074L45.8007 85.0741L45.6457 85.044L44.8491 84.8792L44.6925 84.8417L44.5289 84.8063L44.207 84.727L44.0434 84.6916L43.7215 84.6123L43.5563 84.57L43.398 84.5261L43.0676 84.4415L42.7425 84.3489L42.5772 84.3066L42.2436 84.2087L42.081 84.1622L41.9169 84.1093L41.75 84.0606L41.5816 84.0045L41.4147 83.9559L41.2506 83.9029L40.7447 83.7357L40.5795 83.6759L40.411 83.6204L40.2452 83.5605L39.7345 83.3737L39.5688 83.3139L39.3987 83.2514L39.227 83.1826L39.0597 83.1159L38.8874 83.0465L38.7179 82.9846L38.5484 82.911L38.3767 82.8422L38.2078 82.7691L38.0355 82.6998L37.8628 82.624L37.6938 82.551L37.52 82.4752L37.3532 82.3979L37.1804 82.3222L36.6681 82.0823L36.496 81.996L36.3248 81.916L35.9804 81.7428L35.812 81.6586L35.635 81.5696L35.4655 81.4785L35.2933 81.3921L35.1232 81.301L34.9489 81.2078L34.7821 81.113L34.6078 81.0197L34.4367 80.9222L34.3328 80.865L34.3349 80.9643L34.3358 81.159L34.341 81.3564L34.3413 81.5511L34.3559 82.1438L34.3833 82.744L34.395 82.9398L34.4088 83.1425L34.4178 83.3425L34.4338 83.5409L34.4514 83.7458L34.4673 83.9442L34.4849 84.1495L34.5249 84.5512L34.5468 84.7587L34.62 85.3694L34.6489 85.5752L34.6729 85.779L34.7083 85.9832L34.7655 86.3955L34.8009 86.5997L34.8341 86.8082L34.8737 87.0152L34.9064 87.2237L34.9857 87.6375L35.0296 87.8471L35.0693 88.054L35.1132 88.2635L35.1594 88.4689L35.2033 88.6784L35.2543 88.8864L35.3025 89.0981L35.4034 89.514L35.5681 90.1453L35.6298 90.3538L35.6845 90.5644L35.7463 90.7729L35.8053 90.9861L35.8713 91.1973L35.933 91.4063L36.0018 91.6132L36.0678 91.8248L36.1403 92.0344L36.2063 92.2455L36.3513 92.6651L36.4286 92.8773L36.5016 93.0868L36.5811 93.2953L36.6579 93.5075L36.8255 93.9287L36.905 94.1366L36.9931 94.3498L37.0791 94.5562L37.1628 94.7668L37.2536 94.9757L37.3482 95.1874L37.4417 95.3921L37.5319 95.6011L37.627 95.8127L37.8216 96.2275L37.9237 96.4376L38.0274 96.6434L38.1295 96.8529L38.3374 97.2645L38.446 97.4729L38.5567 97.6771L38.6653 97.885L38.776 98.0892L38.8916 98.296L39.0093 98.4986L39.1243 98.7049L39.2426 98.9075L39.364 99.1128L39.4823 99.3154L39.7312 99.7168L39.8575 99.9247L39.9849 100.121L40.114 100.325L40.508 100.922L40.6435 101.124L41.0581 101.717L41.1989 101.911L41.4893 102.303L41.5167 102.342L41.6421 102.355L41.8865 102.382L42.1336 102.404L42.8614 102.465L43.1026 102.479L43.3475 102.495L43.5887 102.508L43.8325 102.518L44.0694 102.528L44.3127 102.538L44.5523 102.545L44.7945 102.547L45.0336 102.554L45.2753 102.557L45.7512 102.557L45.9913 102.553L46.2292 102.553L46.7014 102.54L46.9399 102.529L47.1762 102.522L47.4147 102.512L47.8836 102.485L48.1211 102.467L48.351 102.452L49.2824 102.371L49.5112 102.349L49.9737 102.295L50.2009 102.267L50.4319 102.24L50.6612 102.206L50.8885 102.177L51.1141 102.141L51.3364 102.109L51.569 102.072L51.7898 102.033L52.0154 101.997L52.2367 101.958L52.6841 101.873L52.9033 101.828L53.1273 101.785L53.3464 101.74L53.9996 101.595L54.4352 101.492L55.2897 101.273L55.5019 101.213L55.7114 101.155L56.1352 101.033L56.9661 100.778L57.3737 100.646L57.5794 100.575L57.783 100.509L58.1869 100.363L58.3867 100.294L59.3749 99.9169L59.5709 99.8345L59.9581 99.6787L60.1499 99.5936L60.3394 99.5133L60.5311 99.4282L60.7202 99.3479L60.9081 99.2607L61.0972 99.1799L61.2808 99.09L61.4683 99.0028L61.6519 98.913L61.8366 98.83L62.016 98.7375L62.3828 98.5578L62.7415 98.3734L62.916 98.2782L63.0953 98.1858L63.6205 97.9014L63.962 97.7063L63.997 97.6872L63.9168 97.639L63.5778 97.4467ZM93.6665 47.2265L93.6647 47.4255L93.6539 48.0028L93.6462 48.1928L93.6428 48.3849L93.6351 48.5748L93.6204 48.7664L93.6127 48.9564L93.5652 49.7057L93.5505 49.8967L93.5015 50.4513L93.4815 50.6333L93.4651 50.818L93.4445 51.0006L93.4217 51.1868L93.3974 51.3668L93.3767 51.5488L93.2781 52.2674L93.2494 52.4446L93.2229 52.6176L93.1363 53.1494L93.1033 53.324L93.0773 53.4965L93.0443 53.6711L93.007 53.8436L92.9762 54.014L92.9389 54.1859L92.9086 54.3563L92.8713 54.5283L92.8323 54.6939L92.7977 54.8616L92.7561 55.0314L92.7215 55.1991L92.6432 55.5298L92.6005 55.6927L92.5616 55.8583L92.3887 56.5096L92.3482 56.6677L92.3007 56.828L92.2602 56.9867L92.1657 57.3073L92.1209 57.4634L92.0717 57.6173L92.0269 57.7734L91.9778 57.9268L91.9265 58.0844L91.8282 58.3917L91.7818 58.5414L91.7284 58.6922L91.6798 58.8456L91.6264 58.9968L91.5249 59.2904L91.472 59.4417L91.4169 59.586L91.3662 59.7325L91.309 59.8812L91.254 60.0256L91.2032 60.1726L91.1482 60.317L91.0921 60.4545L90.982 60.7432L90.9259 60.8807L90.8709 61.0251L90.7576 61.3001L90.6987 61.4418L90.6378 61.5772L90.525 61.8522L90.4641 61.9875L90.4101 62.1208L90.2888 62.391L90.1728 62.6527L90.1118 62.7881L90.0536 62.9192L89.9915 63.0471L89.9333 63.1782L89.8707 63.3067L89.813 63.4373L89.7504 63.5658L89.6906 63.69L89.6285 63.8185L89.5902 63.8986L89.6354 63.9941L89.6977 64.1177L89.9374 64.6279L89.9992 64.7627L90.0588 64.89L90.1163 65.022L90.1775 65.1562L90.2377 65.2835L90.2968 65.422L90.3538 65.554L90.4155 65.6882L90.473 65.8203L90.5278 65.9561L90.7046 66.3714L90.7594 66.5072L90.877 66.7847L90.9291 66.9247L91.0419 67.2095L91.0945 67.3501L91.2073 67.635L91.261 67.7819L91.3174 67.9246L91.4248 68.2185L91.4721 68.3665L91.5795 68.6603L91.8356 69.4152L91.8839 69.5701L91.9312 69.7187L92.0283 70.029L92.0745 70.1881L92.1228 70.3436L92.169 70.5027L92.2178 70.6582L92.2597 70.8146L92.3514 71.1335L92.3949 71.2969L92.434 71.4576L92.4802 71.6168L92.5237 71.7807L92.7248 72.6051L92.8744 73.2789L92.9768 73.7866L93.0127 73.9628L93.0464 74.132L93.1097 74.479L93.1386 74.6562L93.1696 74.8297L93.1986 75.0074L93.2232 75.1825L93.281 75.5375L93.3056 75.7125L93.3318 75.8945L93.3543 76.0733L93.3805 76.2553L93.4024 76.4347L93.4221 76.6177L93.4441 76.797L93.4633 76.9806L93.4803 77.1679L93.5193 77.5346L93.5364 77.7224L93.5491 77.907L93.5656 78.0949L93.5784 78.2795L93.5884 78.469L93.6028 78.6605L93.6156 78.8457L93.6256 79.0346L93.633 79.2277L93.6393 79.4145L93.654 79.8013L93.6576 79.9918L93.658 80.1871L93.6653 80.3802L93.6671 80.7703L93.7889 80.6948L93.9596 80.5975L94.1331 80.496L94.2995 80.3961L94.4729 80.2941L94.6421 80.1899L94.8139 80.0815L94.983 79.9779L95.498 79.6526L95.6655 79.5416L95.8357 79.4268L96.0033 79.3158L96.3432 79.0857L96.5091 78.9683L96.6777 78.8466L96.8479 78.7313L97.016 78.6096L97.1803 78.4853L97.3489 78.3636L97.5154 78.2356L97.684 78.1134L97.851 77.9853L98.0132 77.8541L98.3472 77.5975L98.5093 77.4663L98.8401 77.1959L99.0007 77.0583L99.1661 76.9234L99.3271 76.7858L99.4904 76.644L99.6515 76.5059L99.811 76.3619L99.9742 76.2201L100.293 75.9311L100.451 75.7798L100.61 75.6358L101.083 75.1822L101.239 75.0245L101.397 74.8736L101.55 74.7196L101.706 74.5618L102.313 73.9208L102.468 73.7562L102.616 73.5931L102.916 73.2591L103.062 73.0897L103.212 72.9224L103.358 72.753L103.502 72.5767L103.648 72.4073L104.081 71.8783L104.502 71.3415L104.644 71.1588L104.78 70.9772L104.918 70.7919L105.054 70.6103L105.457 70.0464L105.587 69.8558L105.724 69.6635L105.854 69.4729L105.98 69.2797L106.112 69.0848L106.367 68.6945L106.863 67.8949L107.103 67.4898L107.337 67.0757L107.46 66.8692L107.571 66.6616L107.69 66.453L107.802 66.2454L107.911 66.0309L108.025 65.8196L108.135 65.6051L108.238 65.3928L108.348 65.1783L108.559 64.7451L108.661 64.5259L108.766 64.3087L108.864 64.0874L108.965 63.8681L108.872 63.6628L108.776 63.4448L108.673 63.2284L108.567 63.0051L108.464 62.7882L108.358 62.576L108.249 62.3607L108.143 62.1485L108.033 61.9332L107.582 61.0899L107.352 60.6767L107.234 60.4742L107.112 60.2689L106.994 60.0668L106.872 59.8616L106.747 59.6606L106.627 59.4622L106.502 59.2613L106.248 58.8683L106.125 58.6736L105.991 58.479L105.731 58.0935L105.202 57.3399L105.063 57.1533L104.793 56.7847L104.651 56.6023L104.376 56.2423L104.232 56.0636L104.091 55.8881L103.947 55.7094L103.807 55.5333L103.66 55.3594L103.517 55.1876L103.37 55.0132L103.225 54.8456L103.076 54.6754L102.93 54.5079L102.778 54.3419L102.63 54.1786L102.478 54.0127L102.33 53.8494L102.176 53.6877L102.025 53.5281L101.87 53.3664L101.718 53.2116L101.56 53.0536L101.254 52.7435L101.094 52.5902L100.783 52.2881L100.466 51.9949L100.304 51.8454L100.145 51.6986L99.5019 51.1282L99.3427 50.9925L99.0162 50.7158L98.8499 50.5812L98.6885 50.4497L98.5223 50.3156L98.3604 50.1837L98.192 50.0538L97.6987 49.6711L97.5276 49.545L97.1935 49.298L97.031 49.1772L96.5226 48.8195L96.3569 48.7029L96.1847 48.5879L96.0196 48.4713L95.8517 48.359L95.6768 48.2477L95.509 48.1354L95.0016 47.8127L94.8289 47.7088L94.6583 47.6002L94.3161 47.3946L94.145 47.2971L93.9761 47.1954L93.8044 47.0979L93.6667 47.0206L93.6661 47.0312L93.6665 47.2265ZM64.321 30.3716L64.49 30.4728L64.6611 30.5709L64.9947 30.7717L65.1572 30.8745L65.3213 30.9735L65.9696 31.3868L66.1251 31.4918L66.2844 31.5993L66.9052 32.0185L67.3636 32.346L67.5116 32.452L67.6579 32.5633L67.8102 32.6725L68.2481 33.0043L68.3896 33.1124L68.5327 33.2274L68.6785 33.3382L69.2347 33.7871L69.3713 33.9037L69.5101 34.0161L69.7748 34.244L69.9114 34.3606L70.3079 34.702L70.4332 34.8176L70.5629 34.9358L70.6909 35.0471L70.8205 35.1653L70.9432 35.2851L71.1944 35.5163L71.317 35.6355L71.4386 35.749L71.5612 35.8683L72.0356 36.3374L72.1518 36.4583L72.2658 36.5734L72.3847 36.69L73.0554 37.4031L73.2705 37.6358L73.3797 37.7583L73.4873 37.875L73.5883 37.9927L73.6932 38.113L73.8008 38.2297L73.9014 38.3474L74.0068 38.4677L74.2079 38.7037L74.3063 38.8256L74.4069 38.9434L74.5037 39.0589L74.6021 39.1809L74.6983 39.296L74.7924 39.4153L74.8887 39.5309L75.0769 39.7695L75.1732 39.8851L75.263 40.0017L75.3571 40.1216L75.7163 40.5893L75.8034 40.7107L75.8889 40.8252L75.9787 40.9419L76.0642 41.0564L76.147 41.1752L76.2325 41.2892L76.3153 41.408L76.4008 41.5226L76.4841 41.6408L76.5653 41.7527L76.6481 41.8715L76.7293 41.9834L76.7965 42.081L76.8735 42.0872L77.0129 42.0967L77.443 42.1324L77.584 42.1487L77.7272 42.1608L77.8747 42.1749L78.0185 42.187L78.1659 42.2017L78.3107 42.2202L78.6063 42.2491L78.7511 42.2681L78.8986 42.2823L79.0482 42.3033L79.1957 42.3181L79.4939 42.3602L79.6457 42.3771L79.9445 42.4193L80.0979 42.4435L80.247 42.4646L81.0145 42.5833L81.1696 42.6139L81.323 42.6377L81.4807 42.6641L81.7907 42.7248L81.9484 42.7512L82.1035 42.7813L82.4221 42.8473L82.5777 42.878L83.0556 42.9768L83.2166 43.0164L83.3759 43.0492L83.5368 43.0888L83.7004 43.1248L84.3442 43.2834L84.5094 43.3257L84.6703 43.3653L84.8329 43.4119L84.9981 43.4542L85.1606 43.5002L85.3275 43.5494L85.4927 43.5917L85.6553 43.6377L85.8221 43.6869L85.9863 43.7398L86.32 43.8376L86.4841 43.8906L86.6526 43.9461L86.8167 43.999L87.4905 44.2218L87.6563 44.2816L87.8263 44.3441L87.9948 44.3996L88.1649 44.4621L88.3322 44.5283L88.6729 44.6532L88.8403 44.7199L89.0119 44.7887L89.1793 44.8554L89.6943 45.0625L90.0328 45.2086L90.2061 45.2849L90.3751 45.3579L90.5489 45.4336L90.7152 45.511L90.8884 45.5867L91.059 45.6661L91.2344 45.7493L91.405 45.8287L91.5735 45.9135L91.7484 45.9956L91.9206 46.0819L92.089 46.1666L92.2612 46.253L92.4312 46.3436L92.6077 46.4325L92.9472 46.6142L93.1211 46.7075L93.2884 46.8028L93.4627 46.8961L93.6338 46.9935L93.6677 47.0137L93.6663 46.8295L93.6645 46.4401L93.6598 46.2421L93.6525 46.049L93.6472 45.8516L93.6383 45.6516L93.6336 45.4542L93.6151 45.0541L93.5991 44.8556L93.5902 44.6556L93.5764 44.4529L93.5609 44.2545L93.5433 44.0496L93.5274 43.8512L93.5098 43.6459L93.4895 43.4453L93.4649 43.2416L93.4446 43.0405L93.419 42.8304L93.3698 42.4234L93.3415 42.2175L93.3104 42.0159L93.2532 41.6037L93.22 41.3952L93.1493 40.9866L93.1167 40.7776L92.9977 40.1568L92.9538 39.9473L92.9141 39.7404L92.8701 39.5308L92.7275 38.9016L92.5757 38.2777L92.411 37.6464L92.3493 37.4379L92.2902 37.2252L92.1051 36.5987L91.907 35.9647L91.5435 34.916L91.4667 34.7038L91.3872 34.4959L91.3104 34.2837L91.059 33.6519L90.9725 33.4451L90.8887 33.2345L90.5266 32.3991L90.4294 32.1911L90.3343 31.98L90.237 31.7726L90.1354 31.5626L90.0382 31.3552L89.7254 30.7378L89.4003 30.113L89.1783 29.7046L89.0628 29.4978L88.945 29.2957L88.83 29.0889L88.708 28.8842L88.5903 28.6816L88.4656 28.4806L88.3435 28.2753L88.0941 27.8739L87.9656 27.6702L87.571 27.0726L87.4355 26.871L87.3016 26.6759L87.0253 26.2803L86.8828 26.0804L86.7419 25.8868L86.5994 25.6864L86.486 25.5326L86.4575 25.5326L86.2131 25.5052L85.966 25.4826L85.7259 25.4585L85.4837 25.438L85.2382 25.4223L84.9954 25.4018L84.5136 25.3747L84.2698 25.3653L84.0286 25.3518L83.7853 25.343L83.3067 25.3291L83.0644 25.3267L82.8249 25.3194L82.5874 25.3197L82.3425 25.3209L82.1051 25.3212L81.8687 25.3277L81.6313 25.328L81.395 25.334L81.1565 25.3449L80.9202 25.3514L80.6816 25.3623L79.978 25.4022L79.7476 25.4183L79.5107 25.4355L78.8118 25.4956L78.5836 25.5181L77.8896 25.5983L77.4357 25.6571L77.2063 25.6902L76.9791 25.7196L76.0778 25.8637L75.8538 25.9064L75.633 25.9448L75.1856 26.0301L74.3074 26.2113L73.8717 26.3146L73.6564 26.3626L73.4426 26.4169L73.225 26.4686L73.0086 26.5272L72.7948 26.582L72.5853 26.639L72.3737 26.7002L72.1642 26.7572L71.9521 26.8184L71.7442 26.8823L71.5321 26.9429L71.3242 27.0068L71.1206 27.0733L70.9133 27.1372L70.7098 27.2032L70.5035 27.2734L70.3037 27.3426L70.098 27.4128L69.8961 27.4857L69.6963 27.5549L69.4986 27.6299L69.2967 27.7027L68.9014 27.8538L68.7081 27.932L68.5104 28.0075L68.3144 28.0894L68.1205 28.1676L67.9315 28.2484L67.7398 28.333L67.5502 28.4133L67.3584 28.4984L67.1689 28.5787L66.794 28.7536L66.6088 28.8365L66.4251 28.9264L66.2377 29.0136L66.054 29.104L65.8736 29.189L64.9774 29.6515L64.4528 29.9359L64.282 30.0331L64.107 30.1283L64.0035 30.1921L64.1537 30.2768L64.321 30.3716ZM86.7261 101.929L86.87 101.735L87.0091 101.539L87.1444 101.34L87.2867 101.139L87.5568 100.741L87.9471 100.141L88.4517 99.3288L88.814 98.7177L89.1613 98.1029L89.3845 97.6878L89.4934 97.4844L89.6051 97.2769L89.8143 96.8654L89.9216 96.6552L90.2231 96.0298L90.317 95.8233L90.4173 95.6147L90.5106 95.4082L90.6029 95.1948L90.6967 94.9877L90.7863 94.7786L90.8715 94.5668L90.9605 94.3571L91.0458 94.1453L91.1283 93.9377L91.2136 93.7259L91.2967 93.5184L91.532 92.8872L91.6799 92.4621L91.8234 92.0443L91.8931 91.8293L91.9584 91.6223L92.0297 91.4137L92.0928 91.1998L92.1576 90.9928L92.2208 90.7794L92.3423 90.3601L92.3985 90.1478L92.452 89.9403L92.513 89.7306L92.5622 89.5199L92.6162 89.3124L92.6681 89.0974L92.7194 88.8936L92.7648 88.6808L92.8118 88.4743L92.8615 88.2641L92.9897 87.6373L93.0297 87.433L93.0681 87.2213L93.1081 87.0169L93.1801 86.6024L93.2094 86.3965L93.2451 86.1895L93.3616 85.3669L93.3881 85.1658L93.4131 84.9578L93.4804 84.3459L93.4999 84.1458L93.5152 83.9436L93.538 83.7398L93.5532 83.5371L93.5663 83.3392L93.5816 83.1365L93.6078 82.7406L93.6336 82.1383L93.658 81.3519L93.6598 81.1529L93.6594 80.9581L93.6628 80.7655L93.6144 80.7878L93.2729 80.9823L93.0978 81.0775L92.9298 81.171L92.2398 81.5336L91.9005 81.7069L91.7266 81.7909L91.5564 81.8775L91.3851 81.9573L91.2111 82.0413L90.6968 82.2811L90.5282 82.3566L90.3564 82.4369L90.1835 82.5097L90.0144 82.5857L89.8416 82.6586L89.6751 82.7304L89.5023 82.8032L88.9906 83.0107L88.8226 83.0756L88.6524 83.1442L88.4844 83.2091L88.3126 83.2713L88.1446 83.3362L87.9793 83.3968L87.8069 83.4591L87.6373 83.5176L87.472 83.5782L87.1333 83.6942L86.6325 83.8565L86.4698 83.9129L86.3029 83.9667L86.1316 84.0183L85.4741 84.2174L85.3083 84.2605L85.1435 84.3105L84.9777 84.3537L84.8161 84.3989L84.6497 84.4421L84.4882 84.4878L84.325 84.5267L84.1656 84.5683L84.0019 84.6072L83.8431 84.6487L83.1964 84.8032L83.0381 84.8336L82.8814 84.8708L82.5599 84.9407L82.4016 84.9711L82.2476 85.0041L81.7727 85.0958L81.6171 85.1225L81.4631 85.1555L80.9963 85.235L80.845 85.2638L80.6894 85.2905L80.383 85.3348L80.2344 85.3599L79.9281 85.4042L79.7795 85.4293L79.6287 85.4475L79.4758 85.4699L79.325 85.4875L79.1791 85.5084L79.0284 85.5265L78.8825 85.5474L78.7344 85.5613L78.5842 85.5795L78.4404 85.5955L78.2924 85.61L78.1486 85.626L77.9984 85.6442L77.8573 85.6566L77.7136 85.6731L77.5655 85.6871L77.2834 85.7117L77.1354 85.7257L76.9943 85.738L76.8559 85.7461L76.7892 85.7515L76.7175 85.8571L76.6339 85.9729L76.5547 86.0913L76.1375 86.6695L76.0512 86.7895L75.9634 86.9026L75.7915 87.1421L75.7014 87.2595L75.6136 87.3726L75.433 87.6073L75.3403 87.7289L75.1598 87.9631L75.0628 88.082L74.9722 88.1994L74.7782 88.4373L74.6876 88.5546L74.4936 88.7925L74.3923 88.9088L74.2926 89.032L74.1913 89.1483L74.0943 89.2673L73.9903 89.3878L73.889 89.5041L73.6815 89.7453L73.5732 89.8632L73.4719 89.9795L73.2558 90.2153L73.1491 90.3401L73.0413 90.458L72.9287 90.5737L72.8182 90.6959L72.7099 90.8138L72.5951 90.9333L72.4825 91.0491L72.1382 91.4076L71.8995 91.6418L71.7847 91.7613L71.5465 91.9955L71.4231 92.1103L71.3014 92.2314L71.178 92.3461L71.0519 92.4645L70.9285 92.5793L70.6769 92.8167L70.5465 92.933L70.4188 93.0446L70.2933 93.1635L70.1586 93.2772L70.0282 93.393L69.8957 93.5136L69.4927 93.8546L69.3553 93.972L69.0784 94.1941L68.9415 94.312L68.8025 94.4231L68.6571 94.5357L68.5186 94.6472L68.2277 94.8725L68.085 94.9809L67.9395 95.0935L67.6405 95.314L67.4951 95.4266L67.3437 95.5302L67.1939 95.6402L66.4247 96.1785L65.9501 96.4936L65.7853 96.6004L65.6275 96.7051L65.3026 96.9102L65.1362 97.0106L64.9741 97.1127L64.4742 97.4129L64.3008 97.5144L64.13 97.6117L63.9943 97.6904L64.0858 97.7396L64.2569 97.8371L64.4355 97.933L64.6066 98.0305L64.781 98.1237L64.9591 98.2196L65.1356 98.3086L65.3137 98.4045L65.4907 98.494L65.6715 98.5856L65.855 98.673L66.0358 98.7646L66.5858 99.0273L66.7763 99.1131L67.1481 99.2799L67.3386 99.3662L67.5243 99.4494L67.9101 99.613L68.0985 99.6919L68.8804 100.003L69.0785 100.076L69.2738 100.154L69.4719 100.227L69.6764 100.299L69.8771 100.368L70.0752 100.441L70.2824 100.509L70.4831 100.578L70.6866 100.643L70.8938 100.711L71.0972 100.776L71.3044 100.844L71.51 100.904L71.9298 101.031L72.1386 101.089L72.5633 101.207L72.7743 101.259L72.9869 101.319L73.2022 101.374L73.4158 101.423L73.6311 101.478L74.0666 101.58L74.2867 101.626L74.5026 101.671L75.1641 101.811L75.3826 101.851L75.6081 101.89L75.831 101.933L76.0522 101.968L76.5033 102.046L76.7272 102.077L76.9554 102.111L77.1858 102.141L77.4097 102.174L77.6407 102.204L77.8667 102.231L78.0961 102.255L78.3264 102.285L78.5585 102.304L78.7915 102.33L79.4865 102.388L79.7207 102.403L79.9521 102.422L80.189 102.433L80.4232 102.448L80.66 102.459L80.8926 102.468L81.3712 102.481L81.6043 102.49L81.846 102.493L82.7973 102.493L83.0374 102.489L83.2802 102.481L83.5208 102.476L83.7593 102.466L84.2455 102.449L84.969 102.404L85.7007 102.347L85.943 102.321L86.1896 102.298L86.4319 102.273L86.4766 102.265L86.58 102.127L86.7261 101.929Z" fill="white"/>
<path d="M74.4143 58.0795C74.4925 58.1244 74.368 58.1879 74.4143 58.2635C74.4605 58.3391 74.4122 58.4242 74.4143 58.5104L74.4143 69.4148C74.4186 69.5908 74.5702 69.7512 74.4143 69.8357L63.9624 75.0912C63.886 75.1327 64.0518 75.1536 63.9624 75.1518C63.8731 75.15 64.0409 75.1256 63.9624 75.081L53.4946 69.4278C53.4158 69.383 53.5413 69.3195 53.4946 69.2436C53.4478 69.1678 53.4967 69.0823 53.4946 68.9958L53.4946 58.0552C53.4925 57.9689 53.4517 57.8846 53.4946 57.8108C53.5374 57.7369 53.4182 57.6761 53.4946 57.6345L63.9624 52.3526C64.0393 52.3108 63.8724 52.2898 63.9624 52.2918C64.0524 52.2938 63.8836 52.3187 63.9624 52.364L74.4143 58.0795Z" fill="#EA5CF7"/>
</svg>
