<svg width="301" height="300" viewBox="0 0 301 300" fill="none" xmlns="http://www.w3.org/2000/svg">
<path d="M169.36 231.123C155.527 234.445 141.073 234.167 127.378 230.313C113.682 226.46 101.203 219.161 91.1294 209.112C77.7929 196.375 69.2199 179.454 66.8376 161.165C64.4553 142.876 68.4073 124.323 78.0359 108.594C84.3592 98.3403 91.9773 88.9448 100.702 80.6394C128.393 53.052 179.226 2.86643 179.226 2.86643C141.437 -4.62833 102.212 2.70349 69.6789 23.3432C37.1454 43.9829 13.7957 76.3489 4.46625 113.737C-4.86316 151.125 0.542735 190.67 19.5641 224.18C38.5856 257.69 69.7649 282.599 106.644 293.745L169.36 231.123Z" fill="black"/>
<path d="M130.74 68.9371C144.573 65.6111 159.028 65.8881 172.724 69.7416C186.42 73.5951 198.9 80.8965 208.971 90.9484C236.405 118.389 241.76 159.11 221.954 191.32C215.62 201.576 208.003 210.983 199.288 219.311C171.598 246.861 120.764 297.083 120.764 297.083C158.588 304.652 197.874 297.36 230.464 276.72C263.054 256.079 286.446 223.678 295.781 186.242C305.117 148.806 299.679 109.211 280.598 75.6795C261.517 42.1477 230.257 17.2546 193.31 6.16846L130.74 68.9371Z" fill="black"/>
</svg>
