<svg width="178" height="177" viewBox="0 0 178 177" fill="none" xmlns="http://www.w3.org/2000/svg">
<circle cx="89.0198" cy="88.4095" r="88.305" fill="#06061B"/>
<path d="M68.0815 75.158C67.5149 74.5153 66.8174 74.1932 65.9874 74.1932H49.0126C48.8618 74.1932 48.7384 74.1459 48.6455 74.0512C48.5511 73.9581 48.5039 73.8528 48.5039 73.7398V62.3958C48.5039 62.2828 48.5511 62.179 48.6455 62.0844C48.7384 61.9897 48.8618 61.9424 49.0126 61.9424H66.9499C71.4761 61.9424 75.381 63.7773 78.6629 67.4442L83.0201 72.7185L74.5327 82.9848L68.0815 75.158ZM99.4299 67.3877C102.712 63.7575 106.635 61.9424 111.199 61.9424H129.08C129.231 61.9424 129.344 61.9805 129.42 62.0553C129.495 62.1317 129.533 62.2446 129.533 62.3958V73.7398C129.533 73.8528 129.495 73.9581 129.42 74.0512C129.344 74.1459 129.231 74.1932 129.08 74.1932H112.105C111.275 74.1932 110.578 74.5153 110.011 75.158L97.5064 90.2452L110.068 105.445C110.634 106.051 111.312 106.354 112.105 106.354H129.08C129.231 106.354 129.344 106.401 129.42 106.496C129.495 106.59 129.533 106.714 129.533 106.864V118.208C129.533 118.321 129.495 118.426 129.42 118.519C129.344 118.614 129.231 118.661 129.08 118.661H111.199C106.635 118.661 102.73 116.828 99.4863 113.159L89.0754 100.568L78.6629 113.159C75.381 116.828 71.4578 118.661 66.8936 118.661H49.0126C48.8618 118.661 48.7476 118.614 48.673 118.519C48.5968 118.424 48.5603 118.302 48.5603 118.15V106.806C48.5603 106.693 48.5968 106.589 48.673 106.494C48.7476 106.399 48.8618 106.352 49.0126 106.352H65.9874C66.7793 106.352 67.4768 106.032 68.0815 105.387L80.3595 90.5276L99.4299 67.3877Z" fill="#00D1FF"/>
<path fill-rule="evenodd" clip-rule="evenodd" d="M1.62306 101.122C1.02459 96.9706 0.714844 92.7262 0.714844 88.4095C0.714844 85.5803 0.84789 82.7823 1.10807 80.0212L11.5198 67.3877C14.8017 63.7575 18.7248 61.9424 23.2891 61.9424H41.1701C41.3209 61.9424 41.4336 61.9805 41.5097 62.0553C41.5844 62.1317 41.6224 62.2446 41.6224 62.3958V73.7398C41.6224 73.8528 41.5844 73.9581 41.5097 74.0512C41.4336 74.1459 41.3209 74.1932 41.1701 74.1932H24.1953C23.3653 74.1932 22.6678 74.5153 22.1012 75.158L9.59627 90.2452L22.1576 105.445C22.7241 106.051 23.4018 106.354 24.1953 106.354H41.1701C41.3209 106.354 41.4336 106.401 41.5097 106.496C41.5844 106.59 41.6224 106.714 41.6224 106.864V118.208C41.6224 118.321 41.5844 118.426 41.5097 118.519C41.4336 118.614 41.3209 118.661 41.1701 118.661H23.2891C18.7248 118.661 14.82 116.828 11.5761 113.159L1.62306 101.122Z" fill="#00D1FF"/>
<path fill-rule="evenodd" clip-rule="evenodd" d="M176.393 101.284C177.007 97.0816 177.325 92.7827 177.325 88.4095C177.325 85.5791 177.192 82.7799 176.931 80.0176L168.27 90.5276L155.992 105.387C155.387 106.032 154.689 106.352 153.898 106.352H136.923C136.772 106.352 136.658 106.399 136.583 106.494C136.507 106.589 136.47 106.693 136.47 106.806V118.15C136.47 118.302 136.507 118.424 136.583 118.519C136.658 118.614 136.772 118.661 136.923 118.661H154.804C159.368 118.661 163.291 116.828 166.573 113.159L176.393 101.284ZM153.898 74.1932C154.728 74.1932 155.425 74.5153 155.992 75.158L162.443 82.9848L170.93 72.7185L166.573 67.4442C163.291 63.7773 159.386 61.9424 154.86 61.9424H136.923C136.772 61.9424 136.649 61.9897 136.556 62.0844C136.461 62.179 136.414 62.2828 136.414 62.3958V73.7398C136.414 73.8528 136.461 73.9581 136.556 74.0512C136.649 74.1459 136.772 74.1932 136.923 74.1932H153.898Z" fill="#00D1FF"/>
</svg>
