<svg width="500" height="500" viewBox="0 0 500 500" fill="none" xmlns="http://www.w3.org/2000/svg">
<path d="M416.667 131.047H392.858V166.761H357.144V202.475H321.429V166.761H285.715V131.047H250.001V166.761H214.286V202.475H178.572V166.761H142.858V131.047H107.144V381.047H428.572V131.047H416.667ZM321.429 250.094V273.904H250.001V309.618H321.429V345.333H214.286V238.19H321.429V250.094Z" fill="#9F7AF8"/>
<path d="M71.4291 95.332V131.046H35.7148V416.761H71.4291V131.046H107.143V95.332H71.4291Z" fill="#371D70"/>
<path d="M214.286 238.189V345.332H321.429V309.618H250.001V273.903H321.429V238.189H214.286Z" fill="#371D70"/>
<path d="M250.001 131.046H214.286V95.332H250.001V131.046Z" fill="#371D70"/>
<path d="M214.286 131.046V166.761H178.572V131.046H214.286Z" fill="#371D70"/>
<path d="M357.143 95.332V131.046H321.429V166.761H357.143V131.046H392.858V95.332H357.143Z" fill="#371D70"/>
<path d="M142.857 131.046H107.143V95.332H142.857V131.046Z" fill="#CBBBFB"/>
<path d="M178.572 166.761H142.857V131.046H178.572V166.761Z" fill="#CBBBFB"/>
<path d="M214.286 166.761V202.475H178.572V166.761H214.286Z" fill="#CBBBFB"/>
<path d="M250 131.046V166.761H214.286V131.046H250Z" fill="#CBBBFB"/>
<path d="M285.714 131.046H250V95.332H285.714V131.046Z" fill="#CBBBFB"/>
<path d="M321.429 166.761V131.046H285.714V166.761H321.429Z" fill="#CBBBFB"/>
<path d="M357.143 166.761H321.429V202.475H357.143V166.761Z" fill="#CBBBFB"/>
<path d="M392.857 131.046V166.761H357.143V131.046H392.857Z" fill="#CBBBFB"/>
<path d="M428.572 131.046H392.857V95.332H428.572V131.046Z" fill="#CBBBFB"/>
<path d="M428.572 131.046V381.046H107.143V131.046H71.4287V416.761H464.286V131.046H428.572Z" fill="#CBBBFB"/>
<path d="M71.4286 95.2416V59.5273H142.857V95.2416H71.4286Z" fill="#170738"/>
<path d="M214.286 95.2416V130.956H142.857V95.2416H214.286Z" fill="#170738"/>
<path d="M285.714 95.2416H214.286V59.5273H285.714V95.2416Z" fill="#170738"/>
<path d="M357.143 95.2416V130.956H285.714V95.2416H357.143Z" fill="#170738"/>
<path d="M428.571 95.2416H357.143V59.5273H428.571V95.2416Z" fill="#170738"/>
<path d="M464.286 130.956V95.2416H428.571V130.956H464.286Z" fill="#170738"/>
<path d="M464.286 416.67V130.956H500V416.67H464.286Z" fill="#170738"/>
<path d="M35.7143 416.67H464.286V452.384H35.7143V416.67Z" fill="#170738"/>
<path d="M35.7143 130.956V416.67H0V130.956H35.7143Z" fill="#170738"/>
<path d="M35.7143 130.956H71.4286V95.2416H35.7143V130.956Z" fill="#170738"/>
</svg>
