<svg width="800" height="800" viewBox="0 0 800 800" fill="none" xmlns="http://www.w3.org/2000/svg">
<path fill-rule="evenodd" clip-rule="evenodd" d="M800 400C800 620.914 620.914 800 400 800C179.086 800 0 620.914 0 400C0 179.086 179.086 0 400 0C620.914 0 800 179.086 800 400ZM488.816 323.521L543.168 417.532H542.994L543.83 418.96L569.283 404.266L473.593 238.532L473.6 238.528C459.882 214.747 408.732 126.098 408.628 126.028C407.784 124.543 406.588 123.288 405.146 122.372C403.617 121.505 401.89 121.049 400.132 121.049C398.368 121.036 396.635 121.506 395.118 122.407C393.673 123.243 392.472 124.444 391.636 125.889L333.837 225.715L373.774 248.8C381.729 253.42 388.144 260.286 392.213 268.536C396.283 276.786 397.826 286.055 396.65 295.179C395.818 301.222 393.832 307.05 390.801 312.344C389.41 314.694 387.851 316.94 386.135 319.064C384.435 321.105 382.56 322.993 380.529 324.705C378.482 326.431 376.292 327.98 373.983 329.336C371.647 330.699 369.201 331.863 366.671 332.818L289.373 361.404L343.726 267.393V267.289L344.526 265.861L319.074 251.167L223.322 417.01L376.908 360.255C385.157 357.189 392.823 352.738 399.575 347.094C402.922 344.228 406.031 341.096 408.872 337.727C411.66 334.378 414.164 330.803 416.358 327.038C426.409 309.593 429.121 288.87 423.897 269.426C418.674 249.981 405.943 233.407 388.503 223.347L373.809 214.886L399.993 169.621L448.182 253.187L473.503 238.584L446.128 399.949C444.596 408.61 444.596 417.472 446.128 426.133C446.908 430.464 448.073 434.717 449.61 438.842C451.073 442.95 452.914 446.913 455.111 450.68C460.079 459.311 466.699 466.878 474.593 472.949C482.486 479.02 491.499 483.477 501.116 486.063C510.732 488.65 520.764 489.317 530.638 488.025C540.512 486.733 550.035 483.509 558.663 478.535L573.356 470.039L599.54 515.304H503.127V544.517L377.187 439.851C373.811 437.039 370.2 434.523 366.393 432.33C354.931 425.742 341.939 422.284 328.719 422.303C308.645 422.293 289.387 430.247 275.171 444.418C260.954 458.589 252.938 477.821 252.883 497.894V515.304H200.654L248.879 431.738L223.461 417.08C220.934 421.454 217.135 428.028 212.618 435.845C192.612 470.467 158.524 529.46 158.524 529.545C157.658 531.062 157.202 532.778 157.2 534.524C157.201 536.282 157.657 538.009 158.524 539.538C159.404 541.035 160.661 542.276 162.17 543.138C163.679 543.999 165.387 544.45 167.124 544.447H282.27V498.208C282.256 492.107 283.446 486.063 285.77 480.422C288.094 474.781 291.507 469.654 295.815 465.333C300.123 461.013 305.24 457.584 310.874 455.243C316.508 452.902 322.548 451.694 328.649 451.69C331.379 451.697 334.105 451.93 336.797 452.386C339.419 452.817 341.995 453.493 344.492 454.406C349.561 456.219 354.275 458.906 358.419 462.344L421.894 515.095H313.363H311.622V544.517H503.127V544.656H632.966C634.71 544.667 636.426 544.223 637.946 543.368C639.459 542.479 640.716 541.213 641.594 539.693C642.473 538.174 642.943 536.453 642.96 534.698C642.951 532.948 642.482 531.231 641.602 529.719L584.011 429.928L544.039 452.978C533.358 459.136 520.669 460.801 508.76 457.608C496.852 454.416 486.698 446.626 480.529 435.952C479.132 433.61 477.965 431.138 477.047 428.57C476.117 426.072 475.406 423.497 474.923 420.875C474.448 418.244 474.215 415.575 474.227 412.901C474.204 410.206 474.425 407.514 474.888 404.858L488.816 323.521ZM473.503 238.584L473.531 238.424L473.593 238.532L473.503 238.584Z" fill="#010B3A"/>
</svg>
