<svg width="210" height="210" viewBox="0 0 210 210" fill="none" xmlns="http://www.w3.org/2000/svg">
<circle cx="105" cy="105" r="105" fill="black"/>
<path d="M153.769 77.1576C153.273 78.466 132.48 65.3325 113.491 74.2927C99.6846 80.8073 93.9808 93.4368 93.9808 104.206C93.9808 112.691 96.9121 119.103 100.116 123.28C105.328 130.075 110.176 132.631 114.363 134.903C121.107 138.561 132.578 138.683 136.06 138.502C142.545 138.163 150.163 136.278 156.588 133.264C159.04 132.113 163.023 129.617 166.513 126.824C172.47 122.057 177.958 116.059 177.862 116.523C177.71 117.259 177.772 117.841 174.792 123.096C165.965 138.668 151.289 145.46 151.289 145.46C130.614 156.455 112.267 150.752 108.701 149.383C93.0455 143.374 84.8807 132.109 82.9731 128.526C79.8621 122.682 74.2848 101.221 81.7576 84.162C87.2956 71.5204 100.134 65.3093 101.552 64.7149C124.427 55.1175 154.218 75.9686 153.769 77.1576Z" fill="url(#paint0_linear_2471_7686)"/>
<path d="M154.422 76.0687C153.493 76.9345 146.815 68.8785 136.094 63.0605C133.028 61.3977 121.334 55.4206 107.051 55.7275C83.3734 56.2338 67.6386 73.6919 64.8328 76.9275C50.8085 93.0983 44.2056 117.999 52.0938 137.376C62.3452 162.555 96.6455 177.038 94.0375 177.324L91.0366 176.359C87.4163 174.924 42.9841 154.811 41.3927 114.733C40.4955 92.1493 47.7198 73.8599 52.0938 68.8672C59.7364 60.1438 65.8644 55.9441 71.0305 53.1704C81.4113 47.6005 100.934 42.8277 115.423 45.0202C131.68 47.481 141.885 58.8881 146.861 64.4509C151.351 69.4678 155.173 75.3689 154.422 76.0687Z" fill="url(#paint1_linear_2471_7686)"/>
<path d="M154.304 77.1358C155.402 76.6457 153.936 61.6493 144.24 50.2453C140.329 45.637 136.029 41.4468 130.75 38.5143C108.925 26.6313 82.0912 36.1871 76.2825 38.5143C70.3323 40.8972 57.6363 47.4084 46.9777 60.768C34.9631 75.8289 33.1838 91.9866 32.4998 99.0593C29.5767 129.26 45.2083 152.977 46.3209 152.62C46.9693 152.412 39.8776 137.321 41.3922 114.733C41.9691 106.134 43.1542 90.3838 54.0089 75.2662C60.5842 66.3503 68.1908 58.9288 78.1139 54.029C83.8559 51.1793 104.401 41.9944 124.976 49.2889C131.244 51.5569 137.016 55.0188 141.973 59.4838C150.93 67.708 153.406 77.5379 154.304 77.1358Z" fill="url(#paint2_linear_2471_7686)"/>
<path d="M122.693 161.729C122.178 162.61 86.581 152.405 73.2084 127.254C71.1957 123.471 61.9014 103.303 67.9991 87.6021C70.5493 81.0347 75.57 73.6825 77.5978 71.3989C80.8735 67.7106 86.4307 64.3948 93.4873 61.3901C96.6579 60.0718 102.45 58.6996 105.853 58.2451C109.226 57.828 114.407 57.9175 117.789 58.2451C124.366 58.882 133.254 66.5961 133.004 66.5961C132.936 66.5961 125.949 64.3459 118.725 63.8472C112.737 63.4339 106.242 64.8307 103.938 65.6488C98.8551 67.454 91.8883 71.3989 87.86 76.383C83.8318 81.3671 80.3932 88.4116 79.6608 97.8548C79.1239 104.777 79.8607 114.875 82.8477 122.747C84.2796 126.521 86.7457 131.323 91.4854 137.647C101.574 151.109 123.066 161.098 122.693 161.729Z" fill="url(#paint3_linear_2471_7686)"/>
<path d="M103.407 55.0884C109.582 54.1941 114.867 53.8858 120.99 55.0884C128.018 56.5062 131.904 57.9675 136.69 60.4263C144.864 64.626 155.21 75.3948 154.422 77.011C153.018 79.8922 131.236 56.7419 101.31 64.7089C92.8474 67.6106 87.628 70.3201 82.2233 74.4586C73.018 81.5074 68.4563 90.779 67.015 94.5706C64.5404 101.08 63.8683 104.743 63.5688 111.671C63.5688 120.998 65.3064 126.409 67.408 132.339C70.3978 140.78 75.9737 150.429 75.0779 149.804C64.8341 142.655 58.4327 120.599 57.7254 116.027C57.0182 111.456 53.9981 91.655 67.0149 75.1672C78.882 60.1367 98.8032 55.7619 103.407 55.0884Z" fill="url(#paint4_linear_2471_7686)"/>
<defs>
<linearGradient id="paint0_linear_2471_7686" x1="140.743" y1="62.6829" x2="140.743" y2="152.46" gradientUnits="userSpaceOnUse">
<stop stop-color="#FAB961"/>
<stop offset="1"/>
</linearGradient>
<linearGradient id="paint1_linear_2471_7686" x1="97.9166" y1="44.4756" x2="97.9166" y2="177.546" gradientUnits="userSpaceOnUse">
<stop stop-color="#FAB961"/>
<stop offset="1"/>
</linearGradient>
<linearGradient id="paint2_linear_2471_7686" x1="93.3956" y1="33.4226" x2="93.3956" y2="152.627" gradientUnits="userSpaceOnUse">
<stop/>
<stop offset="0.414296" stop-color="#FAB961"/>
</linearGradient>
<linearGradient id="paint3_linear_2471_7686" x1="94.8231" y1="62.338" x2="94.8231" y2="159.275" gradientUnits="userSpaceOnUse">
<stop/>
<stop offset="1" stop-color="#FAB961"/>
</linearGradient>
<linearGradient id="paint4_linear_2471_7686" x1="105.69" y1="56.6318" x2="105.69" y2="149.832" gradientUnits="userSpaceOnUse">
<stop/>
<stop offset="1" stop-color="#FAB961"/>
</linearGradient>
</defs>
</svg>
