<svg width="180" height="180" viewBox="0 0 180 180" fill="none" xmlns="http://www.w3.org/2000/svg">
<path d="M40 3C34.0241 6.14053 27.2196 7.91758 20 7.91758C12.7804 7.91758 5.97589 6.14053 0 3V6.36084C0 7.1781 0.471368 7.92547 1.22126 8.25042C2.77547 8.92411 4.37295 9.51663 6.00842 10.0228H2.10526V11.0755C2.10526 12.2381 3.04779 13.1807 4.21053 13.1807H35.7895C36.9522 13.1807 37.8947 12.2381 37.8947 11.0755V10.0228H33.9916C35.6271 9.51663 37.2245 8.92411 38.7787 8.25042C39.5286 7.92547 40 7.1781 40 6.36084V3Z" fill="url(#paint0_linear_6095_15127)"/>
<path d="M33.6845 17.3681C33.6845 16.2054 32.742 15.2628 31.5793 15.2628H8.42138C7.25864 15.2628 6.31612 16.2054 6.31612 17.3681V35.2628C6.31612 36.4256 7.25864 37.3681 8.42138 37.3681H11.5793V21.5786C11.5793 20.9973 12.0505 20.526 12.6319 20.526H27.3687C27.9501 20.526 28.4214 20.9973 28.4214 21.5786V37.3681H31.5793C32.742 37.3681 33.6845 36.4256 33.6845 35.2628V17.3681Z" fill="url(#paint1_linear_6095_15127)"/>
<defs>
<linearGradient id="paint0_linear_6095_15127" x1="2.41399e-07" y1="20.184" x2="40" y2="20.184" gradientUnits="userSpaceOnUse">
<stop stop-color="#F9F128"/>
<stop offset="0.5" stop-color="#C2F147"/>
<stop offset="1" stop-color="#2CEAA3"/>
</linearGradient>
<linearGradient id="paint1_linear_6095_15127" x1="2.41399e-07" y1="20.184" x2="40" y2="20.184" gradientUnits="userSpaceOnUse">
<stop stop-color="#F9F128"/>
<stop offset="0.5" stop-color="#C2F147"/>
<stop offset="1" stop-color="#2CEAA3"/>
</linearGradient>
</defs>
</svg>
