<?xml version="1.0" encoding="UTF-8"?>
<svg version="1.1" xmlns="http://www.w3.org/2000/svg" width="1081" height="1080">
<path d="M0 0 C356.73 0 713.46 0 1081 0 C1081 356.4 1081 712.8 1081 1080 C724.27 1080 367.54 1080 0 1080 C0 723.6 0 367.2 0 0 Z " fill="#0000FF" transform="translate(0,0)"/>
<path d="M0 0 C165.33 0 330.66 0 501 0 C501.020625 82.479375 501.04125 164.95875 501.0625 249.9375 C501.071604 276.03191162 501.08070801 302.12632324 501.09008789 329.01147461 C501.09460449 360.74523926 501.09460449 360.74523926 501.09544373 375.57594299 C501.09644152 386.6768163 501.10076515 397.7776844 501.10667343 408.87855578 C501.11260984 420.18433824 501.11476174 431.4901157 501.11344495 442.79590008 C501.11283939 448.93831111 501.11383642 455.08071066 501.11921513 461.22311962 C501.12403976 466.76611377 501.12435086 472.3090882 501.12090111 477.85208321 C501.12047342 479.866665 501.12177266 481.88124797 501.12488258 483.89582741 C501.12884418 486.61999859 501.12676449 489.34409702 501.12304783 492.06826687 C501.12567485 492.86784699 501.12830188 493.6674271 501.13100851 494.49123692 C501.11414527 499.88585473 501.11414527 499.88585473 500 501 C447.53 501 395.06 501 341 501 C341 387.81 341 274.62 341 158 C281.27 158 221.54 158 160 158 C160.01160156 182.67652344 160.02320313 207.35304688 160.03515625 232.77734375 C160.04026243 248.35872403 160.04512349 263.94010379 160.04882812 279.52148438 C160.05078614 287.70206708 160.05280667 295.88264976 160.05493164 304.06323242 C160.05519539 305.08860444 160.05545914 306.11397645 160.05573088 307.17042035 C160.06008598 323.74704765 160.06797298 340.32367149 160.0771528 356.90029674 C160.08648823 373.89907789 160.09205537 390.89785723 160.09408849 407.89664084 C160.09546395 418.39467291 160.09981577 428.89269523 160.10791647 439.39072431 C160.11318256 446.57933971 160.11480461 453.76795003 160.11350138 460.95656722 C160.11285778 465.11051939 160.11387791 469.26445446 160.11920547 473.41840363 C160.12403935 477.21491607 160.12433873 481.01139978 160.12089889 484.80791349 C160.12047319 486.18746513 160.12176902 487.5670185 160.12488318 488.94656669 C160.12884712 490.80964415 160.12615639 492.67273234 160.12304783 494.53581142 C160.12342755 495.57434653 160.12380727 496.61288163 160.1241985 497.68288749 C160 500 160 500 159 501 C106.53 501 54.06 501 0 501 C0 335.67 0 170.34 0 0 Z " fill="#FDFDFF" transform="translate(291,290)"/>
</svg>
