<?xml version="1.0" encoding="UTF-8"?>
<svg id="Treasure_Testnet_Ruby" xmlns="http://www.w3.org/2000/svg" version="1.1" viewBox="0 0 24 24" width="24" height="24">
  <defs>
    <style>
      .cls-1 {
        fill: #dc2626;
      }

      .cls-1, .cls-2 {
        stroke-width: 0px;
      }

      .cls-2 {
        fill: #fffdf8;
      }
    </style>
  </defs>
  <g id="Background">
    <circle class="cls-1" cx="11.998" cy="11.998" r="12"/>
  </g>
  <path id="MAGIC_Star" data-name="MAGIC Star" class="cls-2" d="M17.331,11.744l-2.368-.798c-.871-.292-1.516-1.027-1.699-1.921l-.999-4.914c-.028-.122-.138-.214-.266-.214s-.238.092-.266.214l-.998,4.914c-.183.894-.83,1.629-1.701,1.921l-2.368.798c-.11.037-.183.142-.183.255,0,.115.073.22.183.257l2.368.798c.871.292,1.517,1.027,1.701,1.921l.998,4.91c.027.122.138.214.266.214s.238-.092.266-.214l.999-4.91c.183-.894.828-1.629,1.699-1.921l2.368-.798c.11-.037.183-.142.183-.257,0-.113-.073-.218-.183-.255"/>
</svg>
