<svg width="200" height="200" viewBox="0 0 200 200" fill="none" xmlns="http://www.w3.org/2000/svg">
<path d="M193.694 0H6.30583C2.83762 0 0 2.70551 0 6.2435V193.757C0 197.19 2.83762 200 6.30583 200H193.694C197.162 200 200 197.19 200 193.757V6.2435C200 2.80957 197.162 0 193.694 0ZM173.41 167.326C172.675 168.47 171.414 169.199 170.047 169.199H140.41C138.939 169.199 137.572 168.366 136.942 167.014L120.126 133.507C118.97 131.322 116.658 129.865 114.136 129.865H62.9532C61.9023 129.865 61.0615 130.697 61.0615 131.738V165.453C61.0615 167.638 59.2748 169.303 57.1729 169.303H33.7362C31.5292 169.303 29.8476 167.534 29.8476 165.453V102.81C29.8476 100.624 31.6343 98.9594 33.7362 98.9594H112.559C115.397 98.9594 117.814 96.6701 117.814 93.7565V67.1176C117.814 64.308 115.502 61.9147 112.559 61.9147H33.7362C31.5292 61.9147 29.8476 60.1457 29.8476 58.0645V34.8595C29.8476 32.6743 31.6343 31.0094 33.7362 31.0094H116.238C118.445 31.0094 120.126 32.7784 120.126 34.8595V53.2778C120.126 56.0874 122.438 58.4808 125.381 58.4808H145.139C147.346 58.4808 149.028 60.2497 149.028 62.3309V98.5432C149.028 100.728 147.241 102.393 145.139 102.393H125.381C122.543 102.393 120.126 104.683 120.126 107.596V120.916C120.126 124.558 123.069 127.471 126.747 127.471H152.811C154.283 127.471 155.649 128.304 156.28 129.657L173.41 163.684C174.041 164.932 173.936 166.285 173.2 167.43L173.41 167.326Z" fill="#aaaaaa"/>
</svg>
