<svg width="118" height="118" viewBox="0 0 118 118" fill="none" xmlns="http://www.w3.org/2000/svg">
<circle cx="59" cy="59" r="59" fill="url(#paint0_linear_645_328)"/>
<path fill-rule="evenodd" clip-rule="evenodd" d="M50.5095 34C36.9733 34 26 44.9732 26 58.5094C26 72.0456 36.9732 83.0189 50.5094 83.0189H83.1887C85.8959 83.0189 88.0906 80.8242 88.0906 78.117C88.0906 75.4097 85.8959 73.2151 83.1887 73.2151H50.5094C42.3877 73.2151 35.8038 66.6311 35.8038 58.5094C35.8038 50.3877 42.3877 43.8038 50.5095 43.8038H83.1887C85.8959 43.8038 88.0906 41.6091 88.0906 38.9019C88.0906 36.1946 85.8959 34 83.1887 34H50.5095ZM83.1885 63.4115C85.8958 63.4115 88.0904 61.2168 88.0904 58.5096C88.0904 55.8023 85.8958 53.6077 83.1885 53.6077C80.4813 53.6077 78.2867 55.8023 78.2867 58.5096C78.2867 61.2168 80.4813 63.4115 83.1885 63.4115Z" fill="url(#paint1_linear_645_328)"/>
<defs>
<linearGradient id="paint0_linear_645_328" x1="59" y1="0" x2="59" y2="118" gradientUnits="userSpaceOnUse">
<stop offset="1" stop-color="#111111"/>
</linearGradient>
<linearGradient id="paint1_linear_645_328" x1="26" y1="34" x2="75.0189" y2="83.0189" gradientUnits="userSpaceOnUse">
<stop stop-color="#01FFB3"/>
<stop offset="1" stop-color="#B062E8"/>
</linearGradient>
</defs>
</svg>
