<svg width="72" height="72" viewBox="0 0 72 72" fill="none" xmlns="http://www.w3.org/2000/svg">
<rect width="72" height="72" fill="#101417"/>
<path d="M47.5029 39.541L56.6112 26.0769C56.6727 25.9784 56.7081 25.8658 56.714 25.7498C56.7198 25.6338 56.696 25.5182 56.6448 25.414C56.5936 25.3097 56.5166 25.2203 56.4212 25.1542C56.3258 25.088 56.215 25.0473 56.0995 25.0359L38.1218 23.1247L47.5029 39.541Z" fill="url(#paint0_linear_84_2)"/>
<path d="M56.0646 30.8893L49.6343 41.4525L56.2522 45.4115C56.304 45.4456 56.3641 45.465 56.4261 45.4675C56.4881 45.47 56.5496 45.4556 56.6039 45.4257C56.6583 45.3959 56.7035 45.3518 56.7347 45.2982C56.7659 45.2445 56.7819 45.1834 56.781 45.1214V31.06C56.7922 31.0129 56.794 30.9641 56.7864 30.9163C56.7787 30.8686 56.7617 30.8228 56.7364 30.7816C56.7111 30.7404 56.6779 30.7046 56.6387 30.6762C56.5995 30.6479 56.5551 30.6275 56.5081 30.6163C56.4611 30.6051 56.4123 30.6033 56.3645 30.6109C56.3168 30.6186 56.271 30.6356 56.2298 30.6609C56.1887 30.6863 56.1529 30.7195 56.1245 30.7587C56.0962 30.7979 56.0758 30.8423 56.0646 30.8893Z" fill="white"/>
<path d="M55.1429 21.5377L38.3421 13.9609C38.237 13.9116 38.1212 13.8898 38.0054 13.8977C37.8896 13.9057 37.7778 13.943 37.6805 14.0062C37.5832 14.0694 37.5035 14.1564 37.4492 14.259C37.3948 14.3615 37.3675 14.4763 37.3698 14.5923V20.2578L54.9382 22.1862C55.0215 22.2047 55.1088 22.1914 55.1827 22.1487C55.2567 22.1061 55.312 22.0372 55.3377 21.9558C55.3634 21.8744 55.3576 21.7863 55.3216 21.7089C55.2855 21.6314 55.2218 21.5704 55.1429 21.5377Z" fill="white"/>
<path d="M48.1171 43.8072L41.2944 56.1451C41.2197 56.2756 41.1891 56.4267 41.2069 56.5759C41.2248 56.7252 41.2903 56.8648 41.3936 56.9739C41.497 57.0831 41.6327 57.156 41.7807 57.1819C41.9288 57.2078 42.0812 57.1854 42.2155 57.1178L55.2468 48.5854C55.2961 48.5548 55.3369 48.5121 55.3651 48.4613C55.3934 48.4105 55.4082 48.3534 55.4082 48.2953C55.4082 48.2372 55.3934 48.18 55.3651 48.1293C55.3369 48.0785 55.2961 48.0358 55.2468 48.0052L48.1171 43.8072Z" fill="white"/>
<path d="M35.9895 42.8347H26.5572L34.8126 57.374C34.9362 57.5751 35.1093 57.7413 35.3154 57.8565C35.5214 57.9717 35.7535 58.0322 35.9895 58.0322C36.2256 58.0322 36.4577 57.9717 36.6637 57.8565C36.8697 57.7413 37.0428 57.5751 37.1664 57.374L45.4219 42.8347H35.9895Z" fill="url(#paint1_linear_84_2)"/>
<path d="M15.794 45.4115L22.3438 41.4354L15.9134 30.8893C15.8702 30.8293 15.8095 30.7842 15.7396 30.76C15.6698 30.7359 15.5941 30.734 15.5232 30.7546C15.4522 30.7751 15.3893 30.8172 15.3431 30.8749C15.2969 30.9326 15.2697 31.0032 15.2652 31.077V45.1214C15.2643 45.1834 15.2803 45.2445 15.3115 45.2982C15.3427 45.3518 15.3879 45.3959 15.4423 45.4257C15.4967 45.4556 15.5581 45.47 15.6201 45.4675C15.6821 45.465 15.7422 45.4456 15.794 45.4115Z" fill="white"/>
<path d="M23.861 43.8077L16.8165 47.9544C16.7672 47.985 16.7264 48.0277 16.6982 48.0785C16.6699 48.1293 16.6551 48.1864 16.6551 48.2445C16.6551 48.3026 16.6699 48.3598 16.6982 48.4105C16.7264 48.4613 16.7672 48.504 16.8165 48.5346L29.8479 57.067C29.9821 57.1346 30.1345 57.157 30.2826 57.1311C30.4306 57.1052 30.5663 57.0323 30.6697 56.9231C30.773 56.814 30.8385 56.6744 30.8564 56.5252C30.8742 56.3759 30.8436 56.2248 30.7689 56.0943L23.9462 43.7565L23.861 43.8077Z" fill="white"/>
<path d="M17.0389 22.1862L34.6073 20.2578V14.5923C34.6096 14.4763 34.5823 14.3615 34.5279 14.259C34.4736 14.1564 34.394 14.0694 34.2966 14.0062C34.1993 13.943 34.0875 13.9057 33.9717 13.8977C33.8559 13.8898 33.7401 13.9116 33.6351 13.9609L16.8342 21.5377C16.7554 21.5704 16.6916 21.6314 16.6555 21.7089C16.6195 21.7863 16.6137 21.8744 16.6394 21.9558C16.6651 22.0372 16.7204 22.1061 16.7944 22.1487C16.8683 22.1914 16.9556 22.2047 17.0389 22.1862Z" fill="white"/>
<path d="M24.4762 39.541L33.8574 23.1247L15.8797 25.0359C15.7641 25.0473 15.6534 25.088 15.558 25.1542C15.4626 25.2203 15.3856 25.3097 15.3344 25.414C15.2831 25.5182 15.2593 25.6338 15.2652 25.7498C15.2711 25.8658 15.3065 25.9784 15.368 26.0769L24.4762 39.541Z" fill="url(#paint2_linear_84_2)"/>
<defs>
<linearGradient id="paint0_linear_84_2" x1="47.4183" y1="39.541" x2="47.4183" y2="23.1247" gradientUnits="userSpaceOnUse">
<stop stop-color="#AFB0B1"/>
<stop offset="1" stop-color="#9B9C9E"/>
</linearGradient>
<linearGradient id="paint1_linear_84_2" x1="35.9895" y1="58.0322" x2="35.9895" y2="42.8347" gradientUnits="userSpaceOnUse">
<stop stop-color="#AFB0B1"/>
<stop offset="1" stop-color="#9B9C9E"/>
</linearGradient>
<linearGradient id="paint2_linear_84_2" x1="24.5609" y1="39.541" x2="24.5609" y2="23.1247" gradientUnits="userSpaceOnUse">
<stop stop-color="#AFB0B1"/>
<stop offset="1" stop-color="#9B9C9E"/>
</linearGradient>
</defs>
</svg>
