<svg width="500" height="500" viewBox="0 0 500 500" fill="none" xmlns="http://www.w3.org/2000/svg">
<rect width="500" height="500" fill="#162F29"/>
<path d="M425 250.938C425 252.712 424.975 254.487 424.924 256.261H424.722H340.05V252.383H258.361C258.361 251.572 258.386 250.76 258.386 249.975C258.386 249.189 258.386 248.352 258.361 247.567H340.05V243.714H340.176H424.848C424.949 246.122 425 248.53 425 250.938ZM256.92 233.473L336.865 223.613L337.346 227.466L421.765 217.048C420.956 212.891 419.995 208.785 418.909 204.754L335.804 215.02L336.284 218.873L255.959 228.784C256.313 230.356 256.642 231.927 256.92 233.524V233.473ZM252.749 217.961L329.156 198.823L330.092 202.575L411.174 182.271C409.506 178.342 407.712 174.464 405.791 170.687L327.084 190.408L328.019 194.159L250.98 213.474C251.612 214.97 252.193 216.465 252.749 217.986V217.961ZM245.976 203.436L317.403 176.391L318.768 180.015L394.341 151.398C391.889 147.798 389.311 144.3 386.582 140.904L314.345 168.254L315.71 171.879L243.423 199.254C244.308 200.623 245.167 202.017 245.976 203.436ZM236.599 190.002L299.686 157.025L301.455 160.472L371.214 123.997C368.004 120.879 364.668 117.914 361.231 115.049L295.667 149.319L297.436 152.767L233.288 186.301C234.4 187.518 235.512 188.735 236.573 190.002H236.599ZM221.383 175.503L278.505 139.079L280.577 142.349L343.614 102.147C339.646 99.6125 335.602 97.2552 331.431 95.05L273.88 131.753L275.952 135.023L217.187 172.487C218.628 173.45 220.018 174.464 221.408 175.503H221.383ZM207.886 167.037L255.757 127.672L258.209 130.663L312.121 86.305C307.546 84.5561 302.845 82.9845 298.093 81.6157L250.273 120.955L252.724 123.946L203.109 164.756C204.727 165.466 206.319 166.226 207.886 167.037ZM190.016 160.067L227.828 122.324L230.533 125.062L278.581 77.1799C273.374 76.3181 268.092 75.6844 262.733 75.2788L221.762 116.165L224.467 118.902L184.532 158.749C186.377 159.129 188.197 159.56 190.016 160.067ZM169.114 156.898L199.267 120.246L202.25 122.704L241.502 75C235.537 75.2788 229.648 75.8618 223.86 76.7236L192.595 114.72L195.577 117.178L162.921 156.873C163.831 156.847 164.767 156.822 165.676 156.822C166.839 156.822 167.976 156.822 169.114 156.873V156.898ZM151.042 157.988L174.27 121.944L177.505 124.048L205.586 80.4497C199.166 82.1227 192.898 84.1505 186.781 86.5078L167.016 117.204L170.251 119.308L144.521 159.256C146.669 158.749 148.843 158.318 151.042 157.963V157.988ZM130.974 163.59L147.68 132.184L151.067 134.009L173.183 92.4645C166.081 95.9371 159.257 99.866 152.736 104.226L140.022 128.103L143.434 129.928L123.77 166.885C126.095 165.694 128.497 164.604 130.948 163.615L130.974 163.59ZM116.567 170.966L123.669 150.739L127.309 152.031L141.109 112.743C134.108 118.319 127.536 124.403 121.445 130.968L115.505 147.874L119.145 149.167L109.843 175.63C112.017 173.982 114.241 172.436 116.541 170.991L116.567 170.966ZM98.8488 185.44L101.983 170.738L105.749 171.549L112.068 141.943C105.42 150.409 99.5312 159.509 94.5014 169.116L97.307 169.724L91.5442 194.058C93.7937 191.041 96.2454 188.152 98.8488 185.44ZM85.8321 202.625V183.158C81.1309 195.604 77.7945 211.091 76 226.275C78.1989 217.859 81.5353 209.925 85.8321 202.625ZM76.1264 274.182C77.9715 287.134 81.2067 299.631 85.7057 311.519V297.147C81.5605 290.049 78.3 282.344 76.1264 274.182ZM92.1509 306.753L97.1806 330.276L94.3751 330.884C99.4048 340.516 105.294 349.591 111.941 358.057L105.623 328.451L101.857 329.262L98.6719 314.383C96.3718 311.95 94.1729 309.415 92.1509 306.728V306.753ZM109.667 324.243L119.018 350.858L115.379 352.151L121.318 369.058C127.41 375.623 133.981 381.706 140.983 387.283L127.182 347.994L123.543 349.287L116.415 328.958C114.115 327.488 111.866 325.941 109.692 324.294L109.667 324.243ZM123.618 333.039L143.333 370.097L139.921 371.922L152.634 395.8C159.155 400.159 165.98 404.088 173.082 407.561L150.966 366.016L147.554 367.841L130.797 336.359C128.345 335.371 125.944 334.255 123.593 333.064L123.618 333.039ZM144.369 340.694L170.125 380.692L166.89 382.796L186.655 413.492C192.771 415.849 199.04 417.877 205.46 419.55L177.379 375.952L174.144 378.056L150.89 341.961C148.691 341.606 146.493 341.175 144.344 340.668L144.369 340.694ZM162.77 343.127L195.425 382.822L192.443 385.28L223.708 423.276C229.496 424.138 235.385 424.721 241.35 425L202.098 377.27L199.116 379.729L168.962 343.076C167.875 343.127 166.763 343.127 165.651 343.127C164.691 343.127 163.705 343.127 162.744 343.076L162.77 343.127ZM184.431 341.251L224.34 381.073L221.636 383.81L262.607 424.696C267.965 424.29 273.248 423.657 278.454 422.795L230.431 374.888L227.702 377.651L189.915 339.933C188.121 340.415 186.276 340.871 184.431 341.251ZM203.033 335.295L252.598 376.079L250.146 379.07L297.967 418.41C302.719 417.041 307.42 415.469 311.995 413.72L258.057 369.362L255.606 372.353L207.785 333.013C206.218 333.825 204.626 334.585 203.008 335.295H203.033ZM217.086 327.538L275.775 364.977L273.703 368.247L331.254 404.95C335.425 402.745 339.494 400.362 343.437 397.853L280.401 357.651L278.328 360.921L221.282 324.547C219.892 325.587 218.502 326.601 217.061 327.564L217.086 327.538ZM233.262 313.749L297.335 347.233L295.566 350.681L361.13 384.951C364.567 382.086 367.903 379.121 371.113 376.003L301.354 339.528L299.584 342.975L236.573 310.049C235.512 311.316 234.425 312.558 233.288 313.749H233.262ZM243.398 300.771L315.584 328.121L314.219 331.746L386.455 359.096C389.16 355.7 391.738 352.202 394.215 348.602L318.642 319.985L317.277 323.61L245.95 296.589C245.142 298.008 244.282 299.403 243.398 300.771ZM250.955 286.577L327.867 305.841L326.932 309.592L405.639 329.313C407.585 325.536 409.38 321.658 411.048 317.729L329.965 297.425L329.03 301.177L252.724 282.065C252.168 283.586 251.562 285.081 250.955 286.577ZM255.959 271.267L336.158 281.152L335.677 285.005L418.782 295.271C419.869 291.215 420.83 287.109 421.638 282.977L337.219 272.559L336.739 276.412L256.92 266.552C256.642 268.149 256.313 269.72 255.959 271.292V271.267Z" fill="white"/>
</svg>
