<?xml version="1.0" encoding="UTF-8"?>
<svg id="Layer_1" xmlns="http://www.w3.org/2000/svg" viewBox="0 0 2000 2000">
  <defs>
    <style>
      .cls-1 {
        fill: #fff;
      }

      .cls-2 {
        fill: #075833;
      }
    </style>
  </defs>
  <path class="cls-2" d="M0,1023c0-15.33,0-30.67,0-46,.41-1.54,1.09-3.07,1.17-4.63.45-8.97.44-17.97,1.16-26.92,1.83-23.01,3.1-46.1,6.18-68.95,3.91-29.09,8.4-58.17,14.37-86.9,13.18-63.48,33.09-124.92,58.75-184.48,38.41-89.16,88.75-170.98,150.99-245.45,54.97-65.78,117.32-123.68,187.14-173.48,100.25-71.51,209.96-122.76,329.12-153.81,35.7-9.3,71.82-16.58,108.33-21.68,21.53-3.01,43.18-5.3,64.84-7.13,16.89-1.42,33.88-1.6,50.83-2.41,1.39-.07,2.75-.76,4.13-1.17,15.33,0,30.67,0,46,0,1.54.41,3.07,1.09,4.63,1.17,8.97.45,17.97.44,26.92,1.16,23.01,1.83,46.1,3.1,68.95,6.18,29.09,3.91,58.17,8.4,86.9,14.37,63.48,13.18,124.91,33.09,184.48,58.75,89.16,38.41,170.98,88.75,245.45,150.99,65.78,54.97,123.68,117.32,173.48,187.14,71.51,100.25,122.76,209.96,153.81,329.11,9.3,35.7,16.56,71.82,21.68,108.34,3.02,21.53,5.3,43.18,7.13,64.84,1.42,16.89,1.6,33.88,2.41,50.83.07,1.39.76,2.75,1.17,4.13v46c-.41,1.54-1.09,3.07-1.17,4.63-.45,8.97-.44,17.97-1.16,26.92-1.83,23.01-3.1,46.1-6.18,68.95-3.91,29.09-8.4,58.17-14.37,86.9-13.18,63.48-33.09,124.92-58.75,184.48-38.41,89.16-88.75,170.98-150.99,245.45-54.97,65.78-117.32,123.68-187.14,173.48-100.25,71.51-209.96,122.76-329.11,153.81-35.7,9.3-71.82,16.56-108.34,21.68-21.53,3.02-43.18,5.3-64.84,7.13-16.89,1.42-33.88,1.6-50.83,2.41-1.39.07-2.75.76-4.12,1.17h-46c-1.54-.41-3.07-1.09-4.63-1.17-8.97-.45-17.97-.44-26.92-1.16-23.01-1.83-46.1-3.1-68.95-6.18-29.09-3.91-58.17-8.4-86.9-14.37-63.48-13.18-124.91-33.09-184.48-58.75-89.16-38.41-170.98-88.76-245.45-150.99-65.78-54.97-123.68-117.32-173.48-187.14-71.51-100.25-122.76-209.96-153.81-329.12-9.3-35.7-16.56-71.82-21.68-108.34-3.02-21.53-5.3-43.18-7.13-64.84-1.42-16.89-1.6-33.88-2.41-50.83-.07-1.39-.76-2.75-1.17-4.13ZM999.97,1735.45c406.26,1.71,733.94-329.92,736.41-727.21,2.57-413.18-327.95-739.43-727.28-743.55-418.33-4.32-740.12,330.21-744.46,726.45-4.57,417.27,334.18,746.12,735.33,744.31Z"/>
  <path class="cls-1" d="M999.97,1735.45c-401.15,1.81-739.9-327.04-735.33-744.31,4.34-396.24,326.13-730.77,744.46-726.45,399.33,4.12,729.85,330.37,727.28,743.55-2.47,397.29-330.15,728.92-736.41,727.21ZM1395.1,777.84c-2.17-1.95-3.54-3.3-5.03-4.49-8.2-6.55-16.34-13.19-24.66-19.58-123.6-94.91-260.35-163.53-410.59-205.04-61.66-17.04-124.46-27.93-188.38-31.02-24.88-1.21-49.9-.01-74.84.64-24.79.64-49.3,4.2-73.57,9.14-41.53,8.45-81.14,22.04-117.35,44.63-34.59,21.58-61.94,50.05-80.32,86.4-23.32,46.13-25.52,95.11-16.52,145.05,6.75,37.43,20.11,72.67,37.17,106.53,21.15,41.97,47.24,80.72,76.83,117.17,32.75,40.34,69.1,77.18,108.34,111.19,12.68,10.99,29.91,11.42,42.73,1.33,65.93-51.9,135.18-98.98,207.37-141.69,17.22-10.18,25.92-24.67,27.24-44.18,1.67-24.87,3.05-49.76,5.12-74.59,1.6-19.19,3.49-38.39,6.3-57.44,4.05-27.42,8.59-54.78,13.74-82.01,9.05-47.89,21.58-94.91,37.14-141.11,3.71-11.03,13.04-15.72,24.14-12.33,7.63,2.33,15.24,4.74,22.81,7.27,11.93,3.98,16.64,13.11,12.65,25.06-20.2,60.5-34.5,122.38-44.31,185.38-6.37,40.89-10.76,81.99-13.53,123.25-1.72,25.71-2.79,51.51-2.97,77.28-.19,27.61.55,55.25,1.72,82.85,1.09,25.56,2.9,51.11,5.1,76.6,1.83,21.17,3.76,42.4,7.29,63.32,5.98,35.51,13.12,70.83,20.05,106.18,3.18,16.19-3.39,29.64-18.66,36-11.82,4.93-23.69,9.77-35.65,14.34-15.28,5.84-30.57,5.43-45.61-.99-5.2-2.22-10.25-4.8-15.36-7.22-82.27-38.85-160.94-83.75-233.98-138.28-75.06-56.04-142.42-119.87-199.01-194.75-31.25-41.35-58.17-85.29-78.42-133.08-6.67-15.75-12-32.08-17.9-48.15-1.21-3.3-2.68-6.22-6.86-6.06-4.21.16-5.32,3.02-6.12,6.59-7.69,34.29-12.19,69.08-13.53,104.11-1.29,33.74-1.73,67.61,2.68,101.24,3.06,23.35,5.8,46.82,10.44,69.88,12.87,64,34.93,124.84,66.37,182.1,9.45,17.21,20.06,33.78,30.26,50.57,3.27,5.38,8.09,8.38,14.62,7.65,6.26-.7,10.15-4.5,12.56-10.09.72-1.68,1.47-3.36,2.28-5,24.71-49.54,60.04-91.04,98.66-129.99,8.39-8.46,21.79-8.6,31.62-1.33,3.61,2.67,7.12,5.51,10.57,8.38,12.39,10.32,13.25,25.47,2.03,37.09-23.99,24.83-47.1,50.41-66.48,79.09-14.23,21.06-26.74,42.96-32.4,68.12-5.73,25.44,1.99,41.74,25.51,52.97,17.87,8.54,37.16,11.49,56.59,12.57,31.8,1.78,63.53-.3,95.03-4.97,37.16-5.51,73.82-13.49,110.08-23.31,101.67-27.53,198.9-66.76,293.73-112.17,86.14-41.25,169.32-87.84,249.01-140.58,42.39-28.05,83.71-57.59,123.29-89.5,1.7-1.37,3.2-3.88,3.44-6.02,1.23-10.72,2.43-21.47,2.89-32.25,1.23-29.25,2.27-58.52,3-87.78.29-11.8-.33-23.62-.7-35.43-.61-19.95-.97-39.93-2.14-59.85-1.22-20.72-2.8-41.45-5.09-62.07-2.8-25.23-5.97-50.45-9.91-75.52-8.98-57.06-22.56-113.04-41.37-167.68-16.48-47.87-36.98-93.85-66.14-135.53-17.41-24.89-37.37-47.36-63.37-63.72-29.38-18.49-60.39-23.38-93.34-10.59-19.56,7.59-36.27,19.59-51.44,33.84-25.38,23.84-45.1,52.02-62.26,82.11-7.71,13.52-4.9,21.78,9.45,27.34,110.47,42.79,212.91,99.99,307.52,171.25,15.66,11.79,26.21,26.94,29.91,46.28,2.96,15.48,5.73,31.03,7.62,46.67,3.04,25.17-10.09,45.52-32.91,51.18-80.43,19.93-158.22,47.53-234.44,79.79-52.59,22.27-104.07,46.89-154.67,73.37-10.66,5.58-19.7,0-19.5-12.02.17-10.31,1.03-20.62,1.05-30.92.02-13.47,5.78-22.09,18.37-27.8,37.59-17.04,74.47-35.67,112.23-52.32,77.7-34.28,157.3-63.4,239.55-84.92,10.7-2.8,21.44-5.43,33.22-8.41ZM999.24,1673.5c28.51-.27,56.85-2.1,85.1-5.73,5.09-.65,9.13-2.25,10.79-7.32,1.72-5.27-1.24-8.79-5.02-12-20.21-17.12-37.31-37.04-52.57-58.61-23.67-33.48-42.06-69.79-57.83-107.53-4.19-10.02-10.66-12.73-20.68-8.91-45.38,17.28-91.25,33.23-138.27,45.36-35.19,9.07-70.64,17.35-106.33,24.14-23.73,4.52-48.07,5.85-72.15,8.53-4.23.47-7.4,2.23-8.6,6.39-1.16,4.02.55,7.15,3.92,9.43,1.65,1.12,3.35,2.18,5.04,3.25,29.61,18.73,60.56,34.92,92.74,48.75,64.96,27.91,132.75,44.74,203.09,51.17,20.19,1.85,40.52,2.1,60.78,3.08ZM999.79,326.72c-17.1.88-34.23,1.41-51.29,2.73-16.54,1.28-33.11,2.79-49.51,5.23-38.01,5.65-75.29,14.55-111.78,26.69-63.15,21-121.82,50.82-176.11,89.3-3.14,2.23-5.87,4.74-4.04,9.09,1.69,4.04,5.1,4.26,8.82,3.55,29.6-5.6,59.54-8.4,89.59-9.43,40.28-1.38,80.49.37,120.46,5.7,21.71,2.89,43.53,5.47,64.96,9.83,31.22,6.36,62.1,14.34,93.21,21.27,4.88,1.09,10.31,1.06,15.25.18,9.05-1.61,15.29-7.44,19.77-15.43,25.22-45.06,54.47-86.93,95.16-119.68,3.99-3.21,6.47-6.82,5.12-12-1.48-5.71-6.11-7.55-11.31-8.27-35.91-4.98-71.94-8.52-108.29-8.77ZM1209.09,1634.57c7.85-1.22,15.84-1.89,23.53-3.77,24.98-6.1,45.48-20.17,63.87-37.52,31.82-30.01,54.9-66.3,74.43-105.03,3.88-7.7-1.51-16.05-10.23-15.83-12.96.32-25.9,1.51-38.85,1.71-12.3.19-24.64.02-36.92-.75-26.85-1.7-53.83-2.66-80.45-6.19-32.54-4.32-64.84-10.58-97.09-16.79-16.94-3.26-33.57-8.11-50.29-12.44-6.7-1.74-12.63-1.01-17.32,4.3-4.54,5.14-4.24,10.92-1.33,16.76,11.5,23.07,22.11,46.64,34.75,69.07,17.28,30.66,38.75,58.28,67.01,79.88,20.27,15.5,42.6,25.89,68.91,26.61ZM698.69,1196.36c73.34,53.02,151.07,96.13,234.01,132-20.15-90.15-29.27-180.6-31.26-272.72-70.95,42.52-138.21,88.67-202.75,140.72ZM1304.4,1411.75c.04.5.08,1.01.12,1.51,27.31-2.2,54.6-4.69,81.94-6.49,14.83-.98,23.08-8.47,27.65-22.28,17.63-53.28,30.29-107.72,39.73-162.98.65-3.81.87-6.99-2.65-9.22-3.54-2.24-6.56-.62-9.58,1.54-11.37,8.14-22.74,16.29-34.27,24.22-78.84,54.27-161.36,102.33-246.52,145.93-3.47,1.78-6.62,3.76-6.06,8.09.56,4.3,4.04,5.74,7.89,6.41,46.9,8.14,94.04,13.69,141.75,13.25ZM1638.67,1175.27c-1.39-14.54-2.04-29.2-4.39-43.59-2.35-14.38-5.99-28.6-9.85-42.68-3.34-12.15-16.59-15.29-25.69-6.8-19.11,17.85-38.27,35.65-57.46,53.4-8.61,7.96-14.24,17.49-15.96,29.17-1.66,11.33-3,22.71-4.9,34-4.78,28.31-9.17,56.71-14.9,84.83-5,24.55-11.58,48.78-17.53,73.14-1.42,5.8-.75,10.98,4.03,14.95,4.75,3.94,10.03,3.94,15.43,1.34,3-1.44,5.98-2.93,8.94-4.46,32.09-16.64,60.2-38.22,81.68-67.54,27.35-37.33,40.32-79.4,40.6-125.76ZM1560.75,758.02l.04-.72c6.48.31,12.98.41,19.43.99,10.9.98,21.76,2.52,32.68,3.35,9.25.7,14.05-6.07,11.07-14.97-.47-1.42-1.06-2.8-1.64-4.18-27.01-65.11-63.34-124.57-109.46-177.85-15.56-17.98-32.67-34.61-49.08-51.86-2.33-2.45-5.06-3.46-8-1.35-2.78,2-4.16,4.67-2.58,8.24,1.01,2.28,1.7,4.69,2.64,7,26.73,65.49,45.12,133.36,57.54,202.9,2.38,13.3,12.2,24.42,25.52,26.91,7.12,1.33,14.54,1.09,21.83,1.55ZM1563.77,819.37c-2.16,0-4.33.1-6.49-.02-5.31-.29-9.43,1.47-11.85,6.47-2.48,5.13.08,8.88,3.2,12.6,7.81,9.31,16.01,18.34,23.21,28.1,15.6,21.15,30.77,42.61,45.91,64.09,6.19,8.79,17.6,8.8,22.89-.47,7.95-13.93,14.16-28.57,17.61-44.31,5.81-26.53-2.56-43.43-26.81-54.05-.46-.2-.92-.38-1.38-.57-21.22-8.86-43.64-11-66.29-11.85ZM1535.23,986.51h-.8c0,18.47.03,36.94-.03,55.41-.01,3.18.18,6.72,3.66,7.26,2.49.39,6.11-.62,7.88-2.36,11.04-10.86,21.81-22.01,32.46-33.25,7.44-7.86,8.48-13.85,2.88-22.95-10.54-17.15-21.68-33.93-32.55-50.88-2.08-3.24-4.81-5.29-8.75-4.07-3.99,1.24-4.81,4.51-4.79,8.35.09,14.16.04,28.32.04,42.49ZM1487.01,1448.35c-.26.29-.53.59-.79.88-.83.08-1.69.03-2.48.26-8.78,2.52-17.62,4.86-26.27,7.78-2.21.75-4.5,3.04-5.51,5.2-4.88,10.38-9.38,20.95-13.93,31.49-1.38,3.2-1.18,6.3,1.95,8.44,3.01,2.06,6.07,1.68,8.66-.81,14.26-13.77,28.54-27.52,42.57-41.51,1.4-1.4,2.2-4.83,1.47-6.55-.9-2.14-3.69-3.49-5.66-5.18ZM1673.86,1010.81c-.1-.01-.2-.03-.3-.04,0-1.66.24-3.37-.07-4.98-.28-1.46-1.16-2.8-1.78-4.19-1.38.74-3.09,1.17-4.07,2.27-5.26,5.88-5.48,10.79-.81,17.03.67.9,2.2,1.77,3.21,1.65.97-.12,2.34-1.42,2.56-2.42.68-3.05.88-6.21,1.27-9.32Z"/>
  <path class="cls-2" d="M1395.1,777.84c-11.78,2.98-22.52,5.61-33.22,8.41-82.26,21.51-161.86,50.63-239.55,84.92-37.75,16.66-74.64,35.28-112.23,52.32-12.59,5.71-18.35,14.33-18.37,27.8-.02,10.31-.88,20.61-1.05,30.92-.19,12.02,8.84,17.61,19.5,12.02,50.6-26.48,102.08-51.1,154.67-73.37,76.21-32.27,154.01-59.87,234.44-79.79,22.83-5.66,35.96-26.01,32.91-51.18-1.89-15.64-4.66-31.19-7.62-46.67-3.7-19.34-14.25-34.49-29.91-46.28-94.62-71.26-197.05-128.46-307.52-171.25-14.35-5.56-17.16-13.82-9.45-27.34,17.16-30.09,36.88-58.27,62.26-82.11,15.17-14.25,31.88-26.25,51.44-33.84,32.95-12.78,63.96-7.89,93.34,10.59,26,16.36,45.96,38.83,63.37,63.72,29.16,41.68,49.66,87.66,66.14,135.53,18.82,54.64,32.39,110.62,41.37,167.68,3.95,25.08,7.11,50.29,9.91,75.52,2.29,20.63,3.87,41.35,5.09,62.07,1.17,19.92,1.53,39.9,2.14,59.85.36,11.81.99,23.63.7,35.43-.73,29.27-1.77,58.53-3,87.78-.45,10.77-1.65,21.53-2.89,32.25-.25,2.14-1.74,4.65-3.44,6.02-39.58,31.91-80.9,61.44-123.29,89.5-79.68,52.74-162.86,99.33-249.01,140.58-94.82,45.41-192.05,84.64-293.73,112.17-36.26,9.82-72.92,17.8-110.08,23.31-31.5,4.67-63.23,6.75-95.03,4.97-19.42-1.08-38.72-4.04-56.59-12.57-23.52-11.24-31.24-27.53-25.51-52.97,5.67-25.17,18.17-47.07,32.4-68.12,19.39-28.68,42.49-54.26,66.48-79.09,11.22-11.61,10.36-26.76-2.03-37.09-3.46-2.88-6.96-5.71-10.57-8.38-9.83-7.27-23.23-7.14-31.62,1.33-38.62,38.96-73.95,80.46-98.66,129.99-.82,1.64-1.56,3.32-2.28,5-2.41,5.59-6.3,9.4-12.56,10.09-6.53.73-11.35-2.28-14.62-7.65-10.2-16.79-20.81-33.36-30.26-50.57-31.44-57.27-53.5-118.1-66.37-182.1-4.64-23.06-7.38-46.53-10.44-69.88-4.41-33.63-3.98-67.5-2.68-101.24,1.34-35.03,5.84-69.81,13.53-104.11.8-3.57,1.91-6.43,6.12-6.59,4.18-.16,5.65,2.76,6.86,6.06,5.9,16.08,11.23,32.4,17.9,48.15,20.25,47.79,47.17,91.73,78.42,133.08,56.59,74.88,123.95,138.71,199.01,194.75,73.04,54.53,151.71,99.42,233.98,138.28,5.12,2.42,10.16,5,15.36,7.22,15.04,6.42,30.33,6.84,45.61.99,11.96-4.57,23.83-9.41,35.65-14.34,15.26-6.37,21.84-19.81,18.66-36-6.94-35.34-14.07-70.67-20.05-106.18-3.53-20.93-5.46-42.16-7.29-63.32-2.2-25.49-4.02-51.04-5.1-76.6-1.17-27.59-1.91-55.23-1.72-82.85.18-25.77,1.24-51.56,2.97-77.28,2.77-41.25,7.16-82.35,13.53-123.25,9.81-63,24.11-124.88,44.31-185.38,3.99-11.95-.72-21.08-12.65-25.06-7.57-2.52-15.18-4.94-22.81-7.27-11.1-3.38-20.43,1.31-24.14,12.33-15.56,46.2-28.09,93.22-37.14,141.11-5.15,27.23-9.69,54.59-13.74,82.01-2.81,19.04-4.7,38.25-6.3,57.44-2.07,24.83-3.44,49.73-5.12,74.59-1.31,19.51-10.02,33.99-27.24,44.18-72.19,42.71-141.43,89.79-207.37,141.69-12.82,10.09-30.05,9.65-42.73-1.33-39.24-34.01-75.59-70.85-108.34-111.19-29.59-36.45-55.68-75.2-76.83-117.17-17.07-33.86-30.42-69.1-37.17-106.53-9-49.94-6.81-98.92,16.52-145.05,18.38-36.34,45.73-64.82,80.32-86.4,36.21-22.59,75.81-36.18,117.35-44.63,24.27-4.94,48.78-8.49,73.57-9.14,24.94-.65,49.96-1.84,74.84-.64,63.92,3.1,126.71,13.99,188.38,31.02,150.24,41.51,286.99,110.14,410.59,205.04,8.32,6.39,16.46,13.02,24.66,19.58,1.49,1.19,2.86,2.55,5.03,4.49Z"/>
  <path class="cls-2" d="M999.24,1673.5c-20.26-.98-40.6-1.24-60.78-3.08-70.33-6.43-138.13-23.26-203.09-51.17-32.18-13.83-63.13-30.02-92.74-48.75-1.69-1.07-3.38-2.13-5.04-3.25-3.36-2.28-5.07-5.4-3.92-9.43,1.2-4.16,4.37-5.92,8.6-6.39,24.08-2.68,48.42-4.01,72.15-8.53,35.68-6.8,71.14-15.07,106.33-24.14,47.03-12.12,92.89-28.07,138.27-45.36,10.02-3.82,16.49-1.11,20.68,8.91,15.77,37.73,34.16,74.05,57.83,107.53,15.26,21.57,32.36,41.49,52.57,58.61,3.78,3.21,6.75,6.72,5.02,12-1.66,5.07-5.69,6.67-10.79,7.32-28.25,3.62-56.59,5.46-85.1,5.73Z"/>
  <path class="cls-2" d="M999.79,326.72c36.35.25,72.38,3.79,108.29,8.77,5.21.72,9.83,2.57,11.31,8.27,1.34,5.18-1.13,8.79-5.12,12-40.68,32.75-69.94,74.62-95.16,119.68-4.47,8-10.72,13.82-19.77,15.43-4.93.88-10.37.9-15.25-.18-31.11-6.93-61.99-14.91-93.21-21.27-21.43-4.37-43.25-6.94-64.96-9.83-39.98-5.33-80.19-7.08-120.46-5.7-30.05,1.03-59.99,3.84-89.59,9.43-3.72.7-7.12.49-8.82-3.55-1.82-4.35.9-6.86,4.04-9.09,54.29-38.47,112.95-68.3,176.11-89.3,36.49-12.13,73.77-21.03,111.78-26.69,16.4-2.44,32.97-3.95,49.51-5.23,17.07-1.32,34.19-1.85,51.29-2.73Z"/>
  <path class="cls-2" d="M1209.09,1634.57c-26.31-.72-48.64-11.11-68.91-26.61-28.26-21.61-49.72-49.23-67.01-79.88-12.64-22.42-23.24-46-34.75-69.07-2.92-5.85-3.21-11.63,1.33-16.76,4.69-5.31,10.63-6.04,17.32-4.3,16.72,4.34,33.36,9.18,50.29,12.44,32.25,6.21,64.56,12.47,97.09,16.79,26.62,3.54,53.61,4.49,80.45,6.19,12.28.78,24.62.95,36.92.75,12.96-.2,25.9-1.39,38.85-1.71,8.72-.22,14.11,8.13,10.23,15.83-19.53,38.74-42.61,75.02-74.43,105.03-18.4,17.35-38.89,31.42-63.87,37.52-7.69,1.88-15.68,2.55-23.53,3.77Z"/>
  <path class="cls-2" d="M698.69,1196.36c64.54-52.05,131.8-98.2,202.75-140.72,1.99,92.12,11.11,182.56,31.26,272.72-82.94-35.87-160.67-78.98-234.01-132Z"/>
  <path class="cls-2" d="M1304.4,1411.75c-47.7.44-94.85-5.1-141.75-13.25-3.85-.67-7.33-2.11-7.89-6.41-.57-4.33,2.58-6.32,6.06-8.09,85.16-43.6,167.68-91.66,246.52-145.93,11.52-7.93,22.89-16.08,34.27-24.22,3.02-2.16,6.04-3.79,9.58-1.54,3.52,2.22,3.3,5.41,2.65,9.22-9.43,55.26-22.1,109.7-39.73,162.98-4.57,13.81-12.81,21.3-27.65,22.28-27.34,1.8-54.63,4.29-81.94,6.49-.04-.5-.08-1.01-.12-1.51Z"/>
  <path class="cls-2" d="M1638.67,1175.27c-.28,46.35-13.25,88.43-40.6,125.76-21.48,29.31-49.59,50.9-81.68,67.54-2.96,1.53-5.94,3.02-8.94,4.46-5.4,2.6-10.68,2.6-15.43-1.34-4.78-3.97-5.45-9.14-4.03-14.95,5.96-24.35,12.53-48.59,17.53-73.14,5.73-28.12,10.12-56.52,14.9-84.83,1.9-11.29,3.24-22.67,4.9-34,1.71-11.68,7.35-21.21,15.96-29.17,19.2-17.75,38.36-35.55,57.46-53.4,9.09-8.5,22.35-5.35,25.69,6.8,3.87,14.07,7.5,28.29,9.85,42.68,2.35,14.38,3,29.05,4.39,43.59Z"/>
  <path class="cls-2" d="M1560.75,758.02c-7.29-.47-14.7-.22-21.83-1.55-13.32-2.49-23.15-13.61-25.52-26.91-12.42-69.54-30.81-137.41-57.54-202.9-.94-2.31-1.63-4.72-2.64-7-1.58-3.57-.21-6.24,2.58-8.24,2.94-2.11,5.67-1.1,8,1.35,16.4,17.25,33.51,33.88,49.08,51.86,46.12,53.28,82.45,112.74,109.46,177.85.57,1.38,1.16,2.76,1.64,4.18,2.98,8.89-1.82,15.67-11.07,14.97-10.91-.82-21.77-2.37-32.68-3.35-6.45-.58-12.95-.67-19.43-.99l-.04.72Z"/>
  <path class="cls-2" d="M1563.77,819.37c22.65.85,45.07,2.99,66.29,11.85.46.19.93.37,1.38.57,24.24,10.62,32.61,27.51,26.81,54.05-3.44,15.74-9.66,30.38-17.61,44.31-5.29,9.27-16.7,9.26-22.89.47-15.14-21.48-30.31-42.95-45.91-64.09-7.2-9.76-15.4-18.79-23.21-28.1-3.13-3.73-5.69-7.47-3.2-12.6,2.42-5,6.54-6.76,11.85-6.47,2.16.12,4.33.02,6.49.02Z"/>
  <path class="cls-2" d="M1535.23,986.51c0-14.16.06-28.32-.04-42.49-.03-3.85.8-7.12,4.79-8.35,3.94-1.22,6.67.82,8.75,4.07,10.87,16.95,22.01,33.73,32.55,50.88,5.59,9.11,4.56,15.09-2.88,22.95-10.65,11.25-21.42,22.39-32.46,33.25-1.77,1.74-5.39,2.75-7.88,2.36-3.48-.54-3.67-4.08-3.66-7.26.06-18.47.03-36.94.03-55.41h.8Z"/>
  <path class="cls-2" d="M1487.01,1448.35c1.97,1.69,4.76,3.04,5.66,5.18.73,1.72-.07,5.16-1.47,6.55-14.03,13.99-28.31,27.74-42.57,41.51-2.58,2.5-5.65,2.87-8.66.81-3.13-2.14-3.33-5.24-1.95-8.44,4.55-10.54,9.05-21.11,13.93-31.49,1.02-2.16,3.31-4.46,5.51-5.2,8.64-2.92,17.49-5.27,26.27-7.78.79-.23,1.65-.18,2.48-.26.26-.29.53-.59.79-.88Z"/>
  <path class="cls-2" d="M1673.86,1010.81c-.39,3.11-.6,6.27-1.27,9.32-.22,1-1.59,2.3-2.56,2.42-1.01.12-2.53-.74-3.21-1.65-4.67-6.24-4.45-11.15.81-17.03.98-1.09,2.7-1.53,4.07-2.27.62,1.39,1.5,2.73,1.78,4.19.31,1.6.07,3.31.07,4.98.1.01.2.03.3.04Z"/>
</svg>