<svg width="256" height="256" viewBox="0 0 256 256" fill="none" xmlns="http://www.w3.org/2000/svg">
<path fill-rule="evenodd" clip-rule="evenodd" d="M118.566 0.0743864C117.783 0.164683 115.403 0.432728 113.278 0.670672C111.152 0.908616 107.765 1.37434 105.751 1.70624C103.738 2.03774 99.5812 2.94436 96.5146 3.72043C93.4481 4.49649 88.5052 5.97663 85.5306 7.00935C82.556 8.04247 77.6506 10.0156 74.6301 11.3944C71.6095 12.7733 66.6667 15.3391 63.6462 17.0958C60.6256 18.8528 56.9642 21.114 55.5098 22.1206C54.0556 23.1269 50.9434 25.4332 48.5941 27.2452C46.2447 29.0573 41.2905 33.5607 37.5853 37.2532C33.8796 40.9455 29.4674 45.7056 27.7803 47.8308C26.0932 49.9561 23.4888 53.5008 21.9929 55.7083C20.4971 57.9156 18.1485 61.6679 16.7739 64.0464C15.3989 66.4251 13.2778 70.4763 12.0602 73.0489C10.8426 75.6215 9.06603 79.7398 8.11246 82.2006C7.15889 84.6614 5.63579 89.2636 4.72778 92.4282C3.81977 95.5922 2.62171 100.534 2.06478 103.41C1.50785 106.286 0.810983 110.561 0.516044 112.909C0.182864 115.566 -0.0124056 121.411 0.000612383 128.366C0.0164781 136.7 0.202797 140.847 0.732061 144.635C1.12261 147.432 1.98911 152.191 2.65751 155.211C3.3255 158.231 4.53577 162.898 5.34613 165.583C6.15651 168.267 7.5893 172.386 8.52985 174.734C9.47041 177.083 10.9252 180.47 11.7619 182.259C12.5992 184.049 14.2911 187.343 15.5226 189.581C16.7535 191.818 19.2648 195.936 21.1032 198.733C22.9412 201.528 25.9809 205.739 27.858 208.087C29.7346 210.436 34.024 215.113 37.3896 218.478C40.7551 221.845 45.4311 226.122 47.7804 227.985C50.1297 229.847 54.3402 232.886 57.1371 234.739C59.9339 236.59 64.6152 239.389 67.5393 240.957C70.4639 242.526 73.576 244.119 74.4551 244.499C75.3347 244.879 78.3423 246.102 81.1391 247.217C83.9359 248.332 87.9634 249.762 90.0889 250.396C92.2146 251.029 95.4829 251.936 97.3518 252.412C99.2211 252.886 103.34 253.711 106.505 254.245C109.67 254.779 115.281 255.434 118.973 255.701C122.934 255.987 128.352 256.08 132.194 255.927C135.774 255.784 140.351 255.476 142.364 255.242C144.378 255.008 148.04 254.451 150.501 254.004C152.962 253.556 156.806 252.736 159.044 252.179C161.281 251.622 164.851 250.615 166.977 249.94C169.102 249.265 172.947 247.888 175.52 246.878C178.092 245.87 182.787 243.702 185.95 242.059C189.113 240.418 193.567 237.914 195.848 236.496C198.128 235.077 202.07 232.36 204.606 230.459C207.142 228.557 211.244 225.183 213.722 222.959C216.2 220.736 219.665 217.349 221.42 215.434C223.177 213.519 226.191 209.99 228.119 207.593C230.047 205.195 232.98 201.169 234.637 198.645C236.295 196.121 238.622 192.328 239.809 190.216C240.996 188.105 243.132 183.832 244.555 180.721C245.978 177.61 247.88 172.932 248.782 170.324C249.684 167.716 251.129 162.838 251.992 159.482C252.857 156.127 253.944 150.885 254.407 147.834C254.871 144.784 255.465 139.066 255.727 135.129C256.092 129.639 256.092 126.283 255.723 120.745C255.458 116.771 254.879 111.14 254.437 108.232C253.995 105.324 252.983 100.335 252.189 97.146C251.396 93.9567 250.007 89.1978 249.101 86.5706C248.195 83.9435 246.717 80.055 245.813 77.9298C244.91 75.8046 243.366 72.4587 242.381 70.495C241.396 68.5312 239.371 64.8709 237.881 62.3617C236.391 59.8522 234.075 56.2427 232.734 54.3403C231.391 52.438 228.729 48.9596 226.817 46.6107C224.903 44.2617 221.229 40.224 218.651 37.6375C216.073 35.0514 212.408 31.6539 210.505 30.0879C208.604 28.5216 205.857 26.3361 204.404 25.231C202.949 24.1259 200.204 22.1951 198.301 20.9402C196.399 19.6851 193.361 17.81 191.551 16.7728C189.741 15.7356 185.621 13.6247 182.397 12.081C179.174 10.5378 174.211 8.43417 171.368 7.40674C168.526 6.3789 163.767 4.90771 160.791 4.13693C157.816 3.36615 153.918 2.45221 152.128 2.10566C150.338 1.75912 146.769 1.18724 144.195 0.834997C141.412 0.453879 135.561 0.137024 129.753 0.0524219C124.383 -0.025266 119.35 -0.0155039 118.566 0.0743864ZM142.567 16.5064C145.589 16.929 149.799 17.6624 151.925 18.1362C154.05 18.6105 157.345 19.4358 159.247 19.971C161.149 20.5058 163.895 21.3913 165.35 21.9388L167.994 22.9341L168.104 32.6089C168.163 37.9303 168.053 42.4431 167.858 42.6375C167.658 42.8381 165.583 42.557 163.071 41.9892C160.632 41.4381 157.355 40.7893 155.789 40.5474C154.223 40.3054 151.294 39.9116 149.28 39.6724C147.266 39.4332 142.232 39.2372 138.093 39.2372C133.954 39.2367 128.828 39.4402 126.703 39.6887C124.577 39.9372 120.915 40.5176 118.566 40.9784C116.216 41.4389 112.038 42.5514 109.282 43.4502C106.525 44.3492 101.766 46.3251 98.7049 47.8414C95.6444 49.3573 91.4924 51.7595 89.4788 53.1799C87.465 54.6002 83.8916 57.6842 81.5378 60.0332C79.1839 62.382 76.3207 65.5644 75.1748 67.1051C74.0292 68.6459 72.2644 71.2999 71.2531 73.003C70.2422 74.706 68.7419 77.7293 67.9189 79.7211C67.0963 81.7129 65.9829 85.2821 65.445 87.6526C64.7051 90.913 64.4675 93.151 64.4687 96.8433C64.4699 100.053 64.7332 102.978 65.2372 105.385C65.6586 107.398 66.6334 110.525 67.4026 112.333C68.1723 114.141 69.4192 116.521 70.1734 117.621C70.928 118.721 72.3768 120.516 73.3926 121.61C74.4088 122.704 76.2138 124.32 77.4033 125.201C78.5932 126.084 80.8868 127.433 82.5003 128.198C84.1137 128.964 86.71 129.861 88.2701 130.192C89.8298 130.522 92.8748 130.796 95.0366 130.799C97.1985 130.803 100.311 130.549 101.952 130.235C103.594 129.921 106.127 129.263 107.58 128.773C109.033 128.284 111.585 127.246 113.25 126.466C114.914 125.687 121.231 122.198 127.286 118.714C133.342 115.229 140.493 111.096 143.178 109.529C145.863 107.963 148.932 106.161 149.998 105.524C151.065 104.888 152.017 104.368 152.115 104.368C152.213 104.368 154.086 103.299 156.279 101.993C158.471 100.687 162.827 98.1424 165.96 96.339C169.092 94.5351 180.899 87.7119 192.199 81.1764C203.498 74.6405 214.427 68.3075 216.485 67.1036C218.543 65.8992 220.408 64.914 220.63 64.914C220.852 64.914 222.021 66.5158 223.227 68.4731C224.433 70.4307 226.444 73.954 227.694 76.3028C228.945 78.6518 230.648 82.221 231.479 84.2343C232.31 86.2477 233.619 89.7237 234.39 91.9592C235.16 94.1943 236.322 98.221 236.97 100.907C237.618 103.594 238.425 107.402 238.763 109.37C239.1 111.338 239.586 115.087 239.842 117.704C240.121 120.566 240.218 125.862 240.085 131.006C239.964 135.705 239.564 141.473 239.198 143.822C238.832 146.171 238.067 150.198 237.498 152.77C236.929 155.343 235.913 159.187 235.24 161.312C234.567 163.437 233.136 167.373 232.062 170.057C230.988 172.742 228.976 177.134 227.59 179.819C226.205 182.503 223.556 186.988 221.703 189.784C219.85 192.581 217.084 196.424 215.555 198.325C214.026 200.227 210.846 203.768 208.487 206.196C206.129 208.623 202.735 211.847 200.945 213.36C199.155 214.873 196.195 217.231 194.365 218.6C192.535 219.969 188.89 222.387 186.265 223.972C183.64 225.557 180.102 227.552 178.404 228.403C176.706 229.256 173.577 230.69 171.451 231.591C169.326 232.492 165.665 233.87 163.315 234.653C160.966 235.436 156.755 236.632 153.959 237.31C151.162 237.988 146.769 238.875 144.195 239.279C140.449 239.868 137.165 240.012 127.719 240C117.49 239.986 115.192 239.864 110.431 239.078C107.411 238.581 102.56 237.542 99.6503 236.769C96.7408 235.996 93.0099 234.903 91.359 234.341C89.7082 233.779 88.1062 233.111 87.7994 232.856C87.3555 232.487 87.2412 230.444 87.2412 222.884C87.2412 213.976 87.2877 213.375 87.9784 213.375C88.3836 213.375 90.0772 213.726 91.7414 214.154C93.4057 214.584 96.5065 215.222 98.632 215.576C100.758 215.928 104.327 216.409 106.565 216.645C108.802 216.88 114.02 217.077 118.159 217.08C122.814 217.084 127.547 216.837 130.567 216.433C133.252 216.073 137.371 215.344 139.721 214.813C142.07 214.282 146.006 213.128 148.467 212.248C150.928 211.368 154.04 210.129 155.382 209.494C156.725 208.859 159.345 207.461 161.204 206.387C163.063 205.314 165.992 203.381 167.712 202.093C169.433 200.804 172.255 198.402 173.985 196.755C175.715 195.107 178.474 191.995 180.114 189.839C181.755 187.685 183.827 184.638 184.719 183.073C185.611 181.507 186.995 178.658 187.797 176.744C188.597 174.829 189.678 171.626 190.197 169.626C191.009 166.505 191.141 165.01 191.136 159.074C191.128 152.738 191.036 151.862 190.033 148.586C189.432 146.62 188.28 143.703 187.474 142.104C186.669 140.504 185.314 138.253 184.464 137.103C183.612 135.952 181.787 133.988 180.406 132.737C179.025 131.488 176.647 129.811 175.122 129.009C173.596 128.207 171.093 127.14 169.561 126.637C167.148 125.845 165.925 125.723 160.468 125.732C155.584 125.739 153.611 125.907 151.721 126.475C150.378 126.879 147.999 127.68 146.432 128.254C144.866 128.83 142.578 129.803 141.348 130.418C140.116 131.032 136.73 132.9 133.821 134.57C130.913 136.239 119.105 143.058 107.582 149.724C96.059 156.388 84.7088 162.94 82.3595 164.282C80.0102 165.624 77.5387 167.039 76.8675 167.425C76.1963 167.811 74.5488 168.762 73.2063 169.539C71.8638 170.315 66.5548 173.379 61.4086 176.346C56.2625 179.313 48.367 183.917 43.8632 186.577C39.3593 189.235 35.484 191.411 35.2514 191.411C35.0187 191.411 33.2665 188.802 31.3573 185.614C29.4482 182.425 27.1237 178.169 26.192 176.157C25.26 174.144 23.7788 170.667 22.9009 168.43C22.0226 166.193 20.6899 162.258 19.9393 159.685C19.1888 157.113 18.195 153.252 17.7307 151.104C17.2666 148.958 16.5762 144.841 16.1967 141.954C15.7309 138.411 15.5071 133.86 15.5083 127.959C15.5096 121.992 15.7305 117.599 16.2032 114.13C16.5844 111.333 17.2743 107.215 17.736 104.978C18.1982 102.741 19.203 98.7489 19.9694 96.1067C20.7363 93.4641 22.1874 89.2194 23.1942 86.6736C24.2015 84.1281 26.0855 79.9753 27.3804 77.4454C28.6757 74.9154 30.1545 72.1134 30.667 71.2185C31.1792 70.3238 32.7523 67.8528 34.1628 65.7276C35.5731 63.6023 37.9445 60.3077 39.4322 58.4061C40.9203 56.5046 43.7757 53.1766 45.7777 51.0108C47.7796 48.8449 51.3481 45.4066 53.7073 43.3705C56.0663 41.334 59.3136 38.7007 60.923 37.5187C62.5326 36.3367 65.7717 34.1713 68.121 32.7069C70.4705 31.2422 74.5894 28.9381 77.2744 27.5865C79.9594 26.2348 82.8884 24.8235 83.7834 24.45C84.6783 24.0763 87.2555 23.0736 89.5101 22.2219C91.7651 21.3702 96.1587 20.0255 99.2736 19.2336C102.389 18.4416 105.945 17.6119 107.175 17.3898C108.406 17.1678 110.786 16.774 112.464 16.5145C114.141 16.255 117.437 15.8873 119.786 15.6974C122.136 15.5074 126.987 15.4387 130.567 15.5448C134.146 15.6514 139.547 16.0842 142.567 16.5064ZM73.3132 207.135C73.9259 207.589 74.8355 208.676 75.3355 209.549C75.8351 210.423 76.2471 211.83 76.2509 212.676C76.2545 213.522 76.0063 214.803 75.6996 215.524C75.3928 216.244 74.7038 217.236 74.1683 217.728C73.633 218.221 72.4817 218.922 71.6095 219.287C70.5538 219.727 69.5356 219.859 68.5637 219.679C67.7611 219.53 66.5182 219.048 65.8022 218.609C65.0866 218.168 64.1253 217.201 63.6665 216.459C63.0912 215.528 62.8325 214.418 62.8325 212.879C62.8325 211.233 63.0746 210.288 63.7576 209.275C64.2661 208.521 65.3189 207.472 66.0968 206.943C67.2794 206.139 67.8948 206.008 69.8553 206.145C71.3683 206.251 72.5952 206.603 73.3132 207.135ZM66.982 208.002C66.2436 208.407 65.2839 209.279 64.849 209.938C64.3983 210.622 64.0578 211.838 64.057 212.765C64.0566 213.665 64.4109 214.974 64.8503 215.694C65.2868 216.411 66.2318 217.3 66.9498 217.672C67.8481 218.136 68.8338 218.282 70.1067 218.138C71.5599 217.975 72.2397 217.622 73.2693 216.499C73.9906 215.711 74.7025 214.42 74.851 213.629C75.0422 212.609 74.9014 211.748 74.3669 210.674C73.9523 209.839 73.1395 208.812 72.5606 208.389C71.9821 207.967 70.7922 207.54 69.9163 207.443C68.8606 207.325 67.8725 207.513 66.982 208.002ZM71.9406 210.113C72.4081 210.571 72.6054 211.137 72.4451 211.555C72.201 212.191 72.1054 212.194 71.1823 211.588C70.6331 211.229 69.7158 210.934 69.1438 210.934C68.4209 210.934 67.958 211.255 67.626 211.984C67.2965 212.706 67.2762 213.234 67.5601 213.685C67.7867 214.044 68.2838 214.533 68.6645 214.771C69.1852 215.097 69.6662 215.029 70.6027 214.493C71.2877 214.102 72.0167 213.782 72.2221 213.782C72.4276 213.782 72.596 214.137 72.596 214.573C72.596 215.007 72.1892 215.647 71.6917 215.995C71.1945 216.344 70.1734 216.629 69.4233 216.629C68.4571 216.629 67.711 216.281 66.8693 215.44C66.0248 214.596 65.6826 213.859 65.6891 212.898C65.694 212.154 66.0146 211.141 66.4011 210.647C66.7879 210.155 67.5617 209.567 68.121 209.343C68.6804 209.119 69.5957 209.03 70.1551 209.147C70.7144 209.263 71.518 209.698 71.9406 210.113Z" fill="#007B52"/>
<path d="M78.4936 203.229H60.8047V222.006H78.4936V203.229Z" fill="#007B52"/>
</svg>
