<?xml version="1.0" encoding="UTF-8"?><svg id="Layer_1" xmlns="http://www.w3.org/2000/svg" viewBox="0 0 30 30"><defs><style>.cls-1{stroke-width:0px;}</style></defs><path class="cls-1" d="M21.79,15.24c1.74-1.66,2.87-3.96,2.98-6.53.01-.24-.19-.44-.43-.44h-4.47c-.21,0-.4.16-.42.37-.19,2.2-2.04,3.94-4.29,3.94s-4.1-1.73-4.29-3.94c-.02-.21-.21-.37-.42-.37h-4.47c-.24,0-.44.2-.43.44.11,2.56,1.24,4.87,2.98,6.53-1.74,1.66-2.87,3.96-2.98,6.53-.01.24.19.44.43.44h4.47c.21,0,.4-.16.42-.37.19-2.2,2.04-3.94,4.29-3.94s4.1,1.73,4.29,3.94c.02.21.21.37.42.37h4.47c.24,0,.44-.2.43-.44-.11-2.56-1.24-4.87-2.98-6.53Z"/><circle class="cls-1" cx="8.21" cy="26.55" r="2.66"/><circle class="cls-1" cx="22.13" cy="26.55" r="2.66"/><circle class="cls-1" cx="8.21" cy="3.92" r="2.66"/><circle class="cls-1" cx="22.13" cy="3.92" r="2.66"/></svg>