<svg width="240" height="240" viewBox="0 0 240 240" fill="none" xmlns="http://www.w3.org/2000/svg">
<g clip-path="url(#clip0_44_5)">
<path d="M240 0H0V240H240V0Z" fill="black"/>
<path d="M126.9 48.5996C152.2 48.5996 182.2 56.1996 182.2 86.9996C182.2 99.2996 176.8 111 165.4 116.6C179.2 122.2 186.1 135.8 186.1 150.3C186.1 182.5 162.8 191.5 134.7 191.5H66V48.5996H126.9ZM92.3 58.0996H75.5V182H92.3V58.0996ZM147.4 60.5996C143.5 59.0996 138.8 57.9996 134.7 57.9996H101.9V112.4H133.2C137.9 112.4 142.7 112.2 147.4 111.8V60.5996ZM147.4 122.6C142.7 122.2 137.9 122 133.2 122H101.9V182H134.9C139 182 143.3 181.4 147.4 180.3C147.4 180.2 147.4 122.6 147.4 122.6ZM156.9 111.6C167.9 106.6 172.7 99.8996 172.7 87.3996C172.7 75.6996 167.3 67.7996 156.9 62.5996V111.6ZM156.9 180.2C171.1 175 176.5 165.5 176.5 150.6C176.5 137.9 169.8 125.8 156.9 122.8V180.2Z" fill="#00FFFF"/>
</g>
<defs>
<clipPath id="clip0_44_5">
<rect width="240" height="240" fill="white"/>
</clipPath>
</defs>
</svg>
