<svg width="250" height="250" viewBox="0 0 250 250" fill="none" xmlns="http://www.w3.org/2000/svg">
<g clip-path="url(#clip0_227_391)">
<mask id="mask0_227_391" style="mask-type:luminance" maskUnits="userSpaceOnUse" x="0" y="0" width="250" height="250">
<path d="M250 0H0V250H250V0Z" fill="white"/>
</mask>
<g mask="url(#mask0_227_391)">
<path d="M125 250C194.036 250 250 194.036 250 125C250 55.9644 194.036 0 125 0C55.9644 0 0 55.9644 0 125C0 194.036 55.9644 250 125 250Z" fill="black"/>
<path d="M193.562 70.8744L154.324 48.6219L136.223 38.5021L136.152 38.4482C135.414 38.0169 134.605 37.6574 133.76 37.3338C133.635 37.2799 133.491 37.226 133.365 37.19C132.053 36.7047 130.777 36.2913 129.321 36.0396C127.847 35.8239 126.463 35.6981 124.953 35.716C124.81 35.716 124.684 35.716 124.54 35.716C124.45 35.716 124.378 35.716 124.288 35.716C123.443 35.716 122.58 35.77 121.735 35.8599C121.484 35.8778 121.251 35.9138 120.999 35.9318C120.819 35.9498 120.639 35.9677 120.46 35.9857C120.477 35.9857 120.495 35.9857 120.513 36.0036C117.692 36.3991 115.013 37.19 112.82 38.4482L96.014 48.1006L56.3081 70.8924C49.8911 74.5771 44.6426 83.6184 44.6426 90.9876V156.505C44.6426 163.875 49.8911 172.916 56.3081 176.601L112.802 209.027C116.092 210.914 120.46 211.831 124.81 211.777C124.989 211.777 125.168 211.777 125.349 211.777C125.438 211.777 125.51 211.777 125.601 211.777C126.463 211.777 127.308 211.723 128.152 211.633C128.404 211.615 128.638 211.58 128.89 211.562C129.069 211.544 129.249 211.526 129.429 211.508C129.41 211.508 129.393 211.508 129.375 211.489C132.197 211.094 134.875 210.304 137.068 209.046L153.874 199.393L193.58 176.601C199.997 172.916 205.245 163.875 205.245 156.505V90.9876C205.245 83.6184 199.997 74.5771 193.58 70.8924" fill="white"/>
<path d="M82.5155 88.6508C81.9762 89.6755 81.491 90.7362 81.0955 91.8326C80.2327 94.1326 79.6575 96.6317 79.334 99.2737V99.2916C79.6575 96.6317 80.2327 94.1326 81.1134 91.8148C81.5268 90.7175 81.9943 89.6576 82.5335 88.6328" fill="#01B4E2"/>
<path d="M105.112 151.833V151.778C103.764 151.599 97.4545 150.646 92.0089 147.68C86.0229 144.426 80.4688 137.722 79.0488 130.604V150.448C79.0488 157.602 80.7924 163.695 84.2974 168.692C87.7845 173.708 92.1161 176.206 97.2571 176.206H125.459L148.197 151.814H105.13L105.112 151.833Z" fill="black"/>
<path d="M169.636 181.74C169.978 175.36 165.754 168.673 159.553 165.851C158.942 166.551 158.384 167.217 157.809 167.9C156.066 169.931 155.904 171.441 157.234 173.795C158.025 175.198 158.888 176.564 159.66 177.984C160.416 179.385 160.829 180.932 160.308 182.46C159.912 183.574 159.337 184.706 158.564 185.605C153.298 191.86 147.977 198.043 142.657 204.244C140.033 207.301 137.732 207.876 133.939 206.455C132.717 206.006 131.512 205.449 130.29 205.018C128.726 204.478 127.109 204.226 125.778 205.449C124.736 206.401 123.909 207.588 122.902 208.756C123.532 209.475 124.143 210.23 124.826 210.913C125.15 211.236 125.473 211.506 125.815 211.812C126.605 211.812 127.396 211.758 128.187 211.686C128.439 211.668 128.673 211.632 128.924 211.614C129.104 211.596 129.284 211.578 129.463 211.56C129.463 211.56 129.427 211.543 129.409 211.543C132.232 211.147 134.909 210.356 137.102 209.098L153.909 199.445C153.909 199.445 153.909 199.445 153.909 199.463L163.219 194.125C164.065 193.154 164.892 192.166 165.736 191.195C168.055 188.481 169.475 185.371 169.655 181.776" fill="black"/>
<path d="M182.129 150.537C180.907 150.07 179.704 149.531 178.463 149.099C176.917 148.56 175.281 148.308 173.97 149.531C172.927 150.483 172.1 151.669 171.094 152.838C171.722 153.557 172.334 154.312 173.017 154.995C179.578 161.574 190.164 162.993 197.39 154.545C200.014 151.472 202.638 148.417 205.281 145.342V131.448C200.5 137.092 195.701 142.718 190.883 148.326C188.259 151.382 185.958 151.957 182.166 150.537" fill="black"/>
<path d="M123.48 203.24C125.061 201.532 127.057 200.974 129.321 201.442C130.094 201.604 130.849 201.891 131.586 202.143C133.132 202.682 134.659 203.293 136.241 203.743C137.499 204.102 138.722 203.743 139.639 202.844C140.591 201.909 141.383 200.831 142.281 199.789C141.005 198.063 139.531 196.607 137.787 195.366C131.73 191.035 124.396 191.106 118.842 195.295L108.65 206.655L112.839 209.064C114.061 209.765 115.481 210.304 116.955 210.735C117.853 209.674 118.752 208.631 119.669 207.572C120.927 206.115 122.149 204.641 123.461 203.24" fill="black"/>
<path d="M184.664 138.082C179.775 135.314 174.418 134.901 169.637 137.399L144.993 165.493C143.538 168.909 143.394 172.558 144.868 176.494C146.54 180.916 149.685 184.079 153.892 186.272C154.808 185.211 155.743 184.241 156.516 183.162C157.234 182.174 157.396 181.006 156.929 179.855C156.498 178.831 155.959 177.842 155.419 176.853C155.024 176.134 154.538 175.451 154.143 174.751C152.382 171.551 152.615 169.16 154.988 166.374C159.086 161.575 163.202 156.793 167.301 151.994C168.541 150.539 169.726 149.029 170.985 147.573C171.543 146.943 172.19 146.368 172.891 145.901C174.76 144.661 176.809 144.642 178.858 145.398C180.314 145.937 181.734 146.567 183.208 147.069C185.005 147.699 186.784 147.752 188.205 146.225C189.014 145.362 189.751 144.427 190.559 143.492C189.445 141.659 187.252 139.574 184.61 138.082" fill="black"/>
<path d="M140.625 172.647C140.571 171.964 140.571 171.263 140.553 170.543L124.088 189.309C127.54 188.554 130.918 188.823 134.298 189.866C134.514 189.938 134.927 189.722 135.089 189.524C137.551 186.684 139.996 183.79 142.458 180.95C142.872 180.483 142.872 180.142 142.602 179.584C141.488 177.41 140.787 175.072 140.625 172.629" fill="black"/>
<path d="M188.815 116.727C188.796 116.349 188.778 115.954 188.778 115.577L173.32 133.21C176.412 132.706 179.468 133.03 182.487 133.964C182.703 134.036 183.117 133.82 183.278 133.623C185.741 130.783 188.185 127.889 190.648 125.049C191.061 124.582 191.061 124.24 190.792 123.683C189.677 121.508 188.977 119.171 188.815 116.727Z" fill="black"/>
<path d="M170.951 172.573C172.119 174.838 172.802 177.264 172.946 179.817C173 180.716 172.964 181.614 172.982 182.639C178.698 175.971 184.324 169.392 190.112 162.651C186.337 163.496 182.814 163.406 179.327 162.238C179.093 162.166 178.627 162.363 178.446 162.58C176.002 165.383 173.611 168.205 171.167 171.01C170.718 171.53 170.61 171.908 170.951 172.591" fill="black"/>
<path d="M205.266 126.037C205.392 125.515 205.392 124.995 205.266 124.456V126.037Z" fill="#01B4E2"/>
<path d="M203.629 120.933C203.233 120.214 202.748 119.549 202.353 118.83C200.591 115.63 200.824 113.24 203.198 110.453C203.881 109.645 204.564 108.854 205.265 108.045V96.7749L192.592 111.227C191.73 114.156 191.819 117.284 193.059 120.573C194.732 124.995 197.877 128.159 202.082 130.352C202.999 129.291 203.934 128.32 204.707 127.242C204.977 126.864 205.139 126.451 205.247 126.037V124.456C205.21 124.295 205.174 124.114 205.103 123.953C204.671 122.928 204.132 121.939 203.593 120.951" fill="black"/>
<path d="M79.3364 99.292C79.1567 100.82 79.0488 102.401 79.0488 104.037V130.549C79.0488 130.549 79.0488 130.549 79.0488 130.568V103.947C79.0488 102.329 79.1567 100.765 79.3364 99.2554" fill="white"/>
<path d="M178.97 78.226H179.419L158.622 102.617H114.512C113.345 102.617 112.302 102.707 111.367 102.905C110.432 103.085 109.623 103.373 108.922 103.75C108.294 104.073 107.737 104.469 107.269 104.955C106.981 105.26 106.729 105.601 106.496 105.961C106.424 106.069 106.353 106.158 106.298 106.266C105.885 106.985 105.597 107.831 105.4 108.764C105.202 109.699 105.112 110.742 105.112 111.892V151.814C103.764 151.634 97.4545 150.681 92.0089 147.715C86.0229 144.463 80.4688 137.758 79.0488 130.639V104.02C79.0488 102.402 79.1567 100.838 79.3364 99.3279C79.66 96.6681 80.2352 94.1699 81.1159 91.8511C81.5294 90.7547 81.9967 89.694 82.5359 88.6692C83.0752 87.6447 83.6683 86.6561 84.3334 85.7034C84.7648 85.0743 85.2321 84.4812 85.6995 83.924C86.6341 82.8275 87.6228 81.8749 88.6473 81.084C91.2357 79.1067 94.1473 78.1182 97.383 78.1182L178.987 78.226H178.97Z" fill="#01B4E2"/>
</g>
</g>
<defs>
<clipPath id="clip0_227_391">
<rect width="250" height="250" fill="white"/>
</clipPath>
</defs>
</svg>
