<svg width="79" height="80" viewBox="0 0 79 80" fill="none" xmlns="http://www.w3.org/2000/svg">
<mask id="mask0_849_3417" style="mask-type:alpha" maskUnits="userSpaceOnUse" x="0" y="0" width="79" height="80">
<rect width="78.005" height="80" fill="#C4C4C4"/>
</mask>
<g mask="url(#mask0_849_3417)">
<rect x="17.9546" y="18.3545" width="42.2943" height="43.2918" fill="white"/>
<path d="M74.2369 21.9892C76.6908 24.0315 78.2389 28.2577 77.6979 31.3733L72.4166 61.3253C71.866 64.4475 68.9592 67.8798 65.9629 68.9612L37.1947 79.3344C34.1984 80.4157 29.7421 79.6299 27.2964 77.589L3.811 58.0021C1.35708 55.9598 -0.19238 51.7417 0.358148 48.6195L5.63951 18.6674C6.19004 15.5452 9.09687 12.1129 12.0932 11.0316L40.8599 0.666453C43.8562 -0.414857 48.3125 0.370909 50.7583 2.4118L74.2369 21.9892ZM49.7645 35.4369L50.9364 29.3513L39.9517 29.3687L41.516 21.3424L37.9583 21.3424C37.9583 21.3424 34.6328 27.2901 27.3006 30.2019L26.2899 35.4503L31.0936 35.46C31.0936 35.46 29.4674 43.0029 28.9316 45.7854C27.5677 52.8682 30.9806 57.8939 36.2281 57.8939C38.8606 57.8939 41.817 57.8939 45.0972 57.8939L46.6524 51.1666C46.2742 51.1666 43.8013 51.1666 39.2336 51.1666C35.9364 51.1666 36.1099 49.3189 36.7431 46.0305L38.7838 35.4333L49.7645 35.4369Z" fill="#14C8FF"/>
</g>
</svg>
