<svg xmlns="http://www.w3.org/2000/svg" viewBox="0 0 326.87 312.5"><defs><style>.cls-1{fill:#00e676;}</style></defs><g id="Layer_2" data-name="Layer 2"><g id="Layer_1-2" data-name="Layer 1"><path class="cls-1" d="M317.7,157.09c-13.42,50.11-35.65,88.75-67,115.52S180.17,312.5,133,312.5H38.66l.54-.53c3.43-6.27,49.25-88.21,86.71-72.57l0,0c.91.24,1.8.53,2.69.85.08,0,.22.06.32.1.93.34,1.9.7,2.86,1,0,0,0,0,.07,0l.12,0c2.22.7,4.42,1.29,6.61,1.81,1.15.27,2.28.49,3.39.75s2,.38,2.93.54c.7.11,1.41.21,2.1.29.9.12,1.79.2,2.66.3,1,.14,2.06.18,3.11.26a95.84,95.84,0,0,0,18.56-.5c.38-.06.74-.12,1.11-.16a4.33,4.33,0,0,1,.5-.08,92.69,92.69,0,0,0,12.59-2.93,87.77,87.77,0,0,0,17.13-7.3c1.21-.69,2.44-1.4,3.57-2.14.85-.53,1.68-1.07,2.54-1.66a103.36,103.36,0,0,0,10.86-8.67c.64-.59,1.27-1.23,1.91-1.86,1.6-1.61,3.19-3.29,4.71-5.08a87.28,87.28,0,0,0,14.68-23.49c.77-1.85,1.48-3.67,2.14-5.58.45-1.36.89-2.77,1.31-4.14a97.49,97.49,0,0,0,2.85-14.49c.42-3.47.38-6.92.46-10.35a83,83,0,0,0-.26-8.37c0-.22,0-.42,0-.62-.1-.77-.18-1.56-.32-2.36a93.58,93.58,0,0,0-6.42-23.87,83.78,83.78,0,0,0-5-9.67,100.28,100.28,0,0,0-12.33-16.4c-.46-.46-.87-.91-1.29-1.35s-.93-.87-1.39-1.33a98.16,98.16,0,0,0-16.39-12.31,81.75,81.75,0,0,0-9.68-5,93.36,93.36,0,0,0-23.87-6.42c-1-.14-2-.26-3-.36a4.06,4.06,0,0,0-.87-.06,71.53,71.53,0,0,0-7.49-.2c-3.45.08-6.92,0-10.39.44a104.36,104.36,0,0,0-11.13,2c-1.07.26-2.16.54-3.27.88a15,15,0,0,0-1.45.43c-2.81.87-5.57,1.89-8.34,3A87.37,87.37,0,0,0,101.24,90c-1.63,1.39-3.21,2.87-4.7,4.34-.71.71-1.41,1.47-2.12,2.22A99,99,0,0,0,83.3,111.09c-.48.84-1,1.65-1.43,2.5a89.33,89.33,0,0,0-7.32,17.17,95.5,95.5,0,0,0-2.93,12.57,13.87,13.87,0,0,0-.22,1.61,96.47,96.47,0,0,0-.54,18.54c.06,1.05.14,2.1.24,3.11.06.52.14,1,.18,1.57.12.91.26,1.82.4,2.77s.37,2.23.61,3.38.46,2.24.72,3.37.55,2.24.85,3.35.65,2.28,1,3.41c.3.95.59,1.92.95,2.89l0,0a37.11,37.11,0,0,1,2,8.72c.23,2.13.66,4.24,1,6.36,5.61,36-69.52,74-78.25,78.25-.21.12-.39.2-.51.26l.06-.26,4.28-16L6,259,53.51,81.18v0L72.73,9.36C74.43,3,78.18,0,84.57,0H216.62c48,0,80,13.58,96.54,40.75C329.75,67.51,331.3,106.16,317.7,157.09Z"/><path class="cls-1" d="M.61,280.7c-.19.22-.41.44-.61.64L.1,281C.22,280.9.4,280.82.61,280.7Z"/><path class="cls-1" d="M213.62,157.67a53.76,53.76,0,0,1-21.65,43c-.91.65-1.82,1.27-2.77,1.9a38.06,38.06,0,0,1-4,2.4c-1.57.83-3.15,1.61-4.78,2.28a50.14,50.14,0,0,1-4.74,1.72c-.83.26-1.68.52-2.53.74a53.12,53.12,0,0,1-5.34,1.11c-.85.14-1.78.26-2.69.36a52.26,52.26,0,0,1-5.52.29,4.52,4.52,0,0,1-.53,0c-.56,0-1.15,0-1.69,0a31.26,31.26,0,0,1-3.41-.2c-.95-.07-1.86-.17-2.75-.31a27.35,27.35,0,0,1-2.74-.48,45.08,45.08,0,0,1-5.27-1.31A52.63,52.63,0,0,1,131,203.69c-.81-.46-1.56-1-2.32-1.45a58.53,58.53,0,0,1-11.52-10.51,43.07,43.07,0,0,1-3.13-4.16q-1.52-2.26-2.8-4.68a51.92,51.92,0,0,1-4.1-9.87,23.72,23.72,0,0,1-.71-2.64c-.22-.85-.44-1.77-.62-2.66s-.32-1.82-.46-2.71a57.31,57.31,0,0,1-.55-8.41A56.11,56.11,0,0,1,106,145.73c.34-1.66.77-3.33,1.27-4.95a52.31,52.31,0,0,1,4.08-9.74,45.5,45.5,0,0,1,2.64-4.36,20,20,0,0,1,1.69-2.4A54.68,54.68,0,0,1,194,115c.68.54,1.37,1.13,2,1.73a40.2,40.2,0,0,1,3.51,3.52,21,21,0,0,1,1.74,2A53.94,53.94,0,0,1,213.62,157.67Z"/></g></g></svg>