<svg width="28" height="24" viewBox="0 0 28 24" fill="none" xmlns="http://www.w3.org/2000/svg">
<path d="M0.703515 12.8647L6.52917 8.08723C7.92408 6.94354 8.73156 5.23495 8.73156 3.43105V2.96838C8.73156 1.3291 7.4025 6.28234e-06 5.76328 6.28234e-06H0.798819C0.356956 -0.00172657 0 0.355241 0 0.795385V12.532C0 12.8959 0.421069 13.0952 0.703515 12.8647Z" fill="#6E6EFF"/>
<path d="M27.2794 2.18677L18.5149 2.1885C17.7196 2.1885 17.0611 2.78287 16.9589 3.55052C16.9433 3.65969 16.9485 3.77406 16.9623 3.88323V3.89883C17.0178 4.29911 17.25 4.65435 17.5948 4.86402L16.3108 5.22792C14.7963 5.65594 13.3876 6.3924 12.1694 7.38879L0.329231 17.0685C0.121296 17.2383 0 17.4948 0 17.7634V23.5702C0 23.8058 0.194073 23.9999 0.429733 23.9999H7.52033C7.74386 23.9999 7.92408 23.8284 7.94833 23.6066C8.14414 21.8061 9.67073 20.4025 11.5231 20.4025C13.3755 20.4025 14.902 21.8044 15.0978 23.6066C15.1221 23.8284 15.3023 23.9999 15.5259 23.9999H17.2015C17.3678 23.9999 17.5203 23.9029 17.5913 23.7538L24.2297 9.71601C24.8032 8.50301 25.6211 7.42345 26.6331 6.54142L27.4873 5.7963C27.6277 5.67327 27.7091 5.49652 27.7091 5.30937V2.61651C27.7091 2.37911 27.5151 2.18677 27.2794 2.18677ZM21.8332 5.54503C21.2597 5.54503 20.7936 5.0789 20.7936 4.50532C20.7936 3.93175 21.2597 3.46561 21.8332 3.46561C22.4068 3.46561 22.8729 3.93175 22.8729 4.50532C22.8729 5.0789 22.4068 5.54503 21.8332 5.54503Z" fill="#6E6EFF"/>
</svg>
