<svg width="640" height="640" viewBox="0 0 640 640" fill="none" xmlns="http://www.w3.org/2000/svg">
<path d="M508.363 268.457C500.832 240.682 487.21 214.933 468.487 193.079L442.843 257.035L508.363 268.457ZM371.106 507.288C398.907 499.757 424.696 486.165 446.622 467.487L382.539 441.875L371.106 507.288ZM468.519 445.632C487.551 423.392 501.306 397.136 508.757 368.829L442.949 381.518L468.519 445.632ZM389.831 429.229L457.065 456.075L430.271 388.873L389.831 429.229ZM430.165 249.764L457.065 182.701L389.724 209.526L430.165 249.764ZM440.065 271.235V367.381L512.131 353.479C516.213 330.422 516.119 306.82 511.855 283.796L440.065 271.235ZM171.65 193.122C152.618 215.366 138.863 241.626 131.412 269.936L197.22 257.237L171.65 193.122ZM625.511 319.351C625.495 238.527 593.373 161.02 536.213 103.878C479.053 46.736 401.536 14.6392 320.713 14.6477C239.889 14.6562 162.379 46.7692 105.231 103.923C48.0826 161.077 15.9777 238.591 15.9777 319.415C15.9777 400.238 48.0826 477.752 105.231 534.906C162.379 592.06 239.889 624.173 320.713 624.181C401.536 624.19 479.053 592.093 536.213 534.951C593.373 477.809 625.495 400.302 625.511 319.478V319.351ZM639.999 319.351C640.128 382.667 621.47 444.598 586.388 497.306C551.305 550.015 501.375 591.131 442.916 615.451C384.457 639.772 320.097 646.204 257.981 633.932C195.866 621.661 138.786 591.239 93.9672 546.515C49.1481 501.791 18.604 444.777 6.20044 382.688C-6.20316 320.598 0.0913213 256.225 24.2873 197.714C48.4832 139.203 89.4929 89.1855 142.126 53.9908C194.76 18.7962 256.651 0.00661964 319.967 0.000170507C361.948 -0.043187 403.526 8.18274 442.327 24.2083C481.129 40.2338 516.394 63.7451 546.109 93.3997C575.824 123.054 599.406 158.271 615.511 197.04C631.615 235.809 639.925 277.37 639.967 319.351H639.999ZM354.223 127.74C331.113 123.664 307.459 123.758 284.381 128.017L271.852 199.669H368.189L354.223 127.74ZM250.338 209.537L183.104 182.69L209.877 249.892L250.338 209.537ZM446.601 171.321C424.295 152.311 397.987 138.578 369.637 131.147L382.411 196.816L446.601 171.321ZM269.063 131.53C241.25 139.059 215.457 152.672 193.547 171.385L257.62 196.933L269.063 131.53ZM200.136 271.448L128.144 285.35C124.066 308.415 124.164 332.024 128.432 355.054L200.222 367.551L200.136 271.448ZM420.584 378.111L336.489 335.701L379.069 419.797L420.584 378.111ZM303.649 335.776L219.5 378.132L261.26 419.84L303.649 335.776ZM320.021 335.499L274.95 424.736H365.134L320.021 335.499ZM131.732 370.34C139.284 398.111 152.912 423.857 171.629 445.718L197.294 381.784L131.732 370.34ZM210.004 389.033L183.104 456.097L250.541 429.378L210.004 389.033ZM285.989 511.089C309.092 515.165 332.739 515.071 355.809 510.812L368.349 439.171H272.022L285.989 511.089ZM193.664 467.572C215.964 486.591 242.268 500.331 270.617 507.767L257.907 442.098L193.664 467.572ZM214.699 364.422L304.117 319.436L214.699 274.439V364.422ZM219.659 260.739L303.808 303.085L261.377 219.107L219.659 260.739ZM378.973 219.107L336.542 303.085L420.691 260.739L378.973 219.107ZM425.513 274.461L336.095 319.457L425.513 364.443V274.461ZM275.003 214.157H365.134L320.085 303.383L275.003 214.157Z" fill="#0145B2"/>
</svg>
