<svg xmlns="http://www.w3.org/2000/svg" xmlns:xlink="http://www.w3.org/1999/xlink" width="250" zoomAndPan="magnify" viewBox="0 0 187.5 187.499992" height="250" preserveAspectRatio="xMidYMid meet" version="1.0"><path fill="#1e172c" d="M 186.835938 93.519531 C 186.835938 145.066406 145.046875 186.855469 93.5 186.855469 C 41.953125 186.855469 0.167969 145.066406 0.167969 93.519531 C 0.167969 41.972656 41.953125 0.1875 93.5 0.1875 C 145.046875 0.1875 186.835938 41.972656 186.835938 93.519531 Z M 97.25 158.277344 L 97.25 69.484375 C 97.25 67.332031 98.996094 65.585938 101.148438 65.585938 L 149.824219 65.585938 C 154.792969 65.585938 157.867188 71.003906 155.316406 75.269531 L 104.496094 160.28125 C 102.464844 163.675781 97.25 162.238281 97.25 158.277344 Z M 89.75 117.457031 L 89.75 28.664062 C 89.75 24.703125 84.535156 23.265625 82.503906 26.660156 L 31.683594 111.671875 C 29.136719 115.9375 32.207031 121.355469 37.179688 121.355469 L 85.851562 121.355469 C 88.003906 121.355469 89.75 119.609375 89.75 117.457031 Z M 89.75 117.457031 " fill-opacity="1" fill-rule="evenodd"/></svg>