<?xml version="1.0" encoding="UTF-8" standalone="no"?>
<!-- Created with Inkscape (http://www.inkscape.org/) -->

<svg
   version="1.1"
   id="svg2"
   width="512"
   height="512"
   viewBox="0 0 512 512"
   sodipodi:docname="image.svg"
   inkscape:version="1.2.2 (b0a8486541, 2022-12-01)"
   xmlns:inkscape="http://www.inkscape.org/namespaces/inkscape"
   xmlns:sodipodi="http://sodipodi.sourceforge.net/DTD/sodipodi-0.dtd"
   xmlns="http://www.w3.org/2000/svg"
   xmlns:svg="http://www.w3.org/2000/svg">
  <defs
     id="defs6" />
  <sodipodi:namedview
     id="namedview4"
     pagecolor="#ffffff"
     bordercolor="#666666"
     borderopacity="1.0"
     inkscape:showpageshadow="2"
     inkscape:pageopacity="0.0"
     inkscape:pagecheckerboard="0"
     inkscape:deskcolor="#d1d1d1"
     showgrid="false"
     inkscape:zoom="0.95577357"
     inkscape:cx="122.41393"
     inkscape:cy="278.83173"
     inkscape:window-width="1854"
     inkscape:window-height="1011"
     inkscape:window-x="0"
     inkscape:window-y="0"
     inkscape:window-maximized="1"
     inkscape:current-layer="g8" />
  <g
     id="g8"
     inkscape:groupmode="layer"
     inkscape:label="ink_ext_XXXXXX"
     transform="matrix(1.3333333,0,0,-1.3333333,-4.4058586e-5,124.07093)">
    <g
       id="g10"
       transform="matrix(0.1,0,0,0.1,145.22798,-145.47333)">
      <path
         d="m 896.512,169.234 c -25.164,-30.351 -79.453,-34.218 -152.852,-10.781 -16.777,5.36 -34.07,12.07 -51.707,19.863 10.289,7.969 20.137,16.082 29.266,24.286 68.097,61.144 95.539,121.906 77.226,171.211 -18.281,49.25 -78.75,77.433 -170.234,79.308 -30.938,0.645 -64.481,-1.726 -99.609,-6.824 3.371,15.437 6.476,31.199 9.218,47.312 8.059,47.579 12.493,93.457 13.692,136.524 48.066,-25.723 97.519,-59.153 145.019,-98.496 79.883,-66.153 144.571,-140.801 182.129,-210.203 36.68,-67.766 42.988,-121.789 17.852,-152.2 z M 493.965,120.777 C 307.445,51.5508 152.988,69.3047 131,128.539 c -11.832,31.848 13.277,79.688 68.016,127.824 17.8,-79.922 52.714,-133.008 100.652,-141.152 64.613,-10.957 133.738,62.812 183.516,183.137 6.121,-5.305 12.304,-10.578 18.601,-15.793 43.457,-36.004 88.488,-67.293 132.727,-92.637 -39.317,-25.195 -86.496,-49.043 -140.547,-69.141 z m -87.906,252.332 c 15.66,-17.019 32.386,-33.894 50.121,-50.476 -43.867,-92.637 -98.903,-143.059 -142.145,-135.703 -31.543,5.332 -58.828,41.718 -75.527,100.547 43.199,30.527 97.98,59.882 162.453,83.789 1.715,0.644 3.379,1.23 5.098,1.843 z m 112.601,31.789 c 130.52,25.75 228.117,4.805 245.274,-41.367 14.824,-39.902 -28.321,-104.824 -115.106,-164.121 -48.273,25.781 -97.91,59.297 -145.605,98.82 -5.063,4.188 -10.051,8.407 -15.02,12.684 11.395,29.004 21.621,60.469 30.457,93.984 z m -56.941,-70.253 c -15.18,14.121 -29.621,28.418 -43.242,42.89 23.101,8.028 45.632,14.649 67.41,20.039 -7.442,-22.558 -15.535,-43.594 -24.168,-62.929 z m 37.176,106.64 c -36.27,-6.68 -73.868,-16.14 -111.915,-28.183 -26.667,31.992 -49.023,64.16 -65.886,95.332 -36.676,67.734 -43.004,121.789 -17.86,152.168 25.188,30.378 79.461,34.218 152.829,10.808 23.457,-7.469 47.89,-17.43 72.832,-29.644 -1.153,-36.797 -5.02,-76.379 -12.11,-118.215 -4.922,-29.004 -10.984,-56.426 -17.89,-82.266 z M 233.703,571.598 c 36.594,215.715 134.41,348.222 202.731,336.621 53.808,-9.141 95.332,-108.633 92.746,-255.735 -23.086,11.02 -45.735,20.246 -67.5,27.395 -79.516,25.957 -139,21.328 -167.508,-13.098 -28.52,-34.422 -22.016,-93.718 18.32,-167.019 16.266,-29.59 37.356,-60.086 62.258,-90.528 -11.965,-3.984 -23.93,-8.117 -35.902,-12.539 -39.547,-14.707 -77.313,-31.406 -112.422,-49.66 -8.336,61.906 -7.317,138.547 7.277,224.563 z M 899.617,317.152 c -39.402,71.633 -106.64,148.774 -189.289,217.207 -51.98,43.039 -106.168,79.454 -158.59,106.848 2.313,158.289 -40.519,275.801 -113.879,288.25 C 343.086,945.543 238.465,779.313 199.73,551.031 185.844,469.176 182.621,392.125 188.527,326.148 148.121,302.594 112.234,277.074 82.7461,250.621 14.668,189.508 -12.7734,128.688 5.53906,79.4375 23.8086,30.1328 84.2891,1.97656 175.77,0.101563 259.691,-1.625 362.465,18.4141 465.117,56.5273 c 80.645,29.9454 153.985,68.3787 212.039,110.6567 25.086,-12.278 49.699,-22.442 73.282,-30.118 79.503,-26.015 139.003,-21.328 167.511,13.067 28.516,34.453 22,93.75 -18.332,167.019"
         style="fill:#f68712;fill-opacity:1;fill-rule:nonzero;stroke:none"
         id="path12" />
    </g>
  </g>
</svg>
