<svg xmlns="http://www.w3.org/2000/svg" xmlns:xlink="http://www.w3.org/1999/xlink" width="250" zoomAndPan="magnify" viewBox="0 0 187.5 187.499992" height="250" preserveAspectRatio="xMidYMid meet" version="1.0"><defs><g/><clipPath id="bd44b98550"><path d="M 0.128906 0 L 187 0 L 187 187 L 0.128906 187 Z M 0.128906 0 " clip-rule="nonzero"/></clipPath></defs><g clip-path="url(#bd44b98550)"><path fill="#91019b" d="M 187.128906 93.519531 C 187.128906 145.066406 145.285156 186.851562 93.667969 186.851562 C 42.046875 186.851562 0.203125 145.066406 0.203125 93.519531 C 0.203125 41.976562 42.046875 0.191406 93.667969 0.191406 C 145.285156 0.191406 187.128906 41.976562 187.128906 93.519531 Z M 97.421875 158.273438 L 97.421875 69.484375 C 97.421875 67.332031 99.171875 65.585938 101.328125 65.585938 L 150.066406 65.585938 C 155.042969 65.585938 158.121094 71.003906 155.566406 75.269531 L 104.679688 160.277344 C 102.644531 163.671875 97.421875 162.234375 97.421875 158.273438 Z M 89.910156 117.457031 L 89.910156 28.667969 C 89.910156 24.707031 84.6875 23.269531 82.65625 26.664062 L 31.765625 111.671875 C 29.210938 115.9375 32.289062 121.355469 37.265625 121.355469 L 86.007812 121.355469 C 88.164062 121.355469 89.910156 119.609375 89.910156 117.457031 Z M 89.910156 117.457031 " fill-opacity="1" fill-rule="evenodd"/></g><g fill="#ffffff" fill-opacity="1"><g transform="translate(13.055885, 141.614286)"><g><path d="M 4.15625 0 L 4.15625 -10.75 L 0.484375 -10.75 L 0.484375 -12.59375 L 10.15625 -12.59375 L 10.15625 -10.75 L 6.46875 -10.75 L 6.46875 0 Z M 4.15625 0 "/></g></g></g><g fill="#ffffff" fill-opacity="1"><g transform="translate(23.698346, 141.614286)"><g><path d="M 1.21875 0 L 1.21875 -12.59375 L 9.453125 -12.59375 L 9.453125 -10.75 L 3.53125 -10.75 L 3.53125 -7.296875 L 8.90625 -7.296875 L 8.90625 -5.484375 L 3.53125 -5.484375 L 3.53125 -1.859375 L 9.453125 -1.859375 L 9.453125 0 Z M 1.21875 0 "/></g></g></g><g fill="#ffffff" fill-opacity="1"><g transform="translate(34.106711, 141.614286)"><g><path d="M 5.53125 0.21875 C 4.601562 0.21875 3.785156 0.0625 3.078125 -0.25 C 2.367188 -0.570312 1.8125 -1.03125 1.40625 -1.625 C 1 -2.21875 0.789062 -2.941406 0.78125 -3.796875 L 3.203125 -3.796875 C 3.222656 -3.210938 3.4375 -2.71875 3.84375 -2.3125 C 4.25 -1.90625 4.804688 -1.703125 5.515625 -1.703125 C 6.117188 -1.703125 6.597656 -1.847656 6.953125 -2.140625 C 7.316406 -2.441406 7.5 -2.835938 7.5 -3.328125 C 7.5 -3.847656 7.335938 -4.25 7.015625 -4.53125 C 6.703125 -4.820312 6.28125 -5.054688 5.75 -5.234375 C 5.226562 -5.421875 4.664062 -5.613281 4.0625 -5.8125 C 3.09375 -6.144531 2.351562 -6.578125 1.84375 -7.109375 C 1.332031 -7.640625 1.078125 -8.34375 1.078125 -9.21875 C 1.066406 -9.957031 1.242188 -10.59375 1.609375 -11.125 C 1.972656 -11.664062 2.472656 -12.082031 3.109375 -12.375 C 3.742188 -12.664062 4.476562 -12.8125 5.3125 -12.8125 C 6.144531 -12.8125 6.882812 -12.660156 7.53125 -12.359375 C 8.175781 -12.066406 8.679688 -11.648438 9.046875 -11.109375 C 9.410156 -10.566406 9.601562 -9.925781 9.625 -9.1875 L 7.15625 -9.1875 C 7.144531 -9.625 6.972656 -10.015625 6.640625 -10.359375 C 6.316406 -10.703125 5.863281 -10.875 5.28125 -10.875 C 4.769531 -10.882812 4.34375 -10.757812 4 -10.5 C 3.65625 -10.238281 3.484375 -9.863281 3.484375 -9.375 C 3.484375 -8.957031 3.613281 -8.625 3.875 -8.375 C 4.144531 -8.132812 4.507812 -7.925781 4.96875 -7.75 C 5.425781 -7.582031 5.945312 -7.40625 6.53125 -7.21875 C 7.15625 -7 7.722656 -6.742188 8.234375 -6.453125 C 8.753906 -6.171875 9.171875 -5.789062 9.484375 -5.3125 C 9.796875 -4.84375 9.953125 -4.234375 9.953125 -3.484375 C 9.953125 -2.828125 9.785156 -2.21875 9.453125 -1.65625 C 9.117188 -1.09375 8.617188 -0.640625 7.953125 -0.296875 C 7.296875 0.046875 6.488281 0.21875 5.53125 0.21875 Z M 5.53125 0.21875 "/></g></g></g><g fill="#ffffff" fill-opacity="1"><g transform="translate(44.857219, 141.614286)"><g><path d="M 4.15625 0 L 4.15625 -10.75 L 0.484375 -10.75 L 0.484375 -12.59375 L 10.15625 -12.59375 L 10.15625 -10.75 L 6.46875 -10.75 L 6.46875 0 Z M 4.15625 0 "/></g></g></g><g fill="#ffffff" fill-opacity="1"><g transform="translate(55.499679, 141.614286)"><g><path d="M 1.21875 0 L 1.21875 -12.59375 L 3.53125 -12.59375 L 9.453125 -3.71875 L 9.453125 -12.59375 L 11.75 -12.59375 L 11.75 0 L 9.453125 0 L 3.53125 -8.859375 L 3.53125 0 Z M 1.21875 0 "/></g></g></g><g fill="#ffffff" fill-opacity="1"><g transform="translate(68.483126, 141.614286)"><g><path d="M 1.21875 0 L 1.21875 -12.59375 L 9.453125 -12.59375 L 9.453125 -10.75 L 3.53125 -10.75 L 3.53125 -7.296875 L 8.90625 -7.296875 L 8.90625 -5.484375 L 3.53125 -5.484375 L 3.53125 -1.859375 L 9.453125 -1.859375 L 9.453125 0 Z M 1.21875 0 "/></g></g></g><g fill="#ffffff" fill-opacity="1"><g transform="translate(78.891491, 141.614286)"><g><path d="M 4.15625 0 L 4.15625 -10.75 L 0.484375 -10.75 L 0.484375 -12.59375 L 10.15625 -12.59375 L 10.15625 -10.75 L 6.46875 -10.75 L 6.46875 0 Z M 4.15625 0 "/></g></g></g></svg>