<svg width="218" height="211" viewBox="0 0 218 211" fill="none" xmlns="http://www.w3.org/2000/svg">
<rect width="218" height="211" rx="105.5" fill="url(#paint0_linear_2321_1142)"/>
<path d="M150.594 51.2246H66.1875V73.7882H141.103C143.352 65.8568 146.551 58.2867 150.584 51.2246H150.594Z" fill="black"/>
<path d="M137.737 101.089C137.737 97.642 137.923 94.2334 138.274 90.8633H66.1875V112.817H138.449C137.981 108.966 137.737 105.056 137.737 101.089Z" fill="black"/>
<path d="M142.112 131.113H66.1875V153.677H152.416C148.1 146.634 144.62 139.074 142.112 131.113Z" fill="black"/>
<path d="M156.667 51.2246H66.1875V75.6177H146.492C148.903 67.0431 152.333 58.8593 156.656 51.2246H156.667Z" fill="white"/>
<path d="M142.36 100.794C142.36 97.1553 142.558 93.5573 142.932 90H66V113.173H143.12C142.62 109.108 142.36 104.981 142.36 100.794Z" fill="white"/>
<path d="M147.272 131H66V155.393H158.301C153.681 147.779 149.956 139.606 147.272 131Z" fill="white"/>
<defs>
<linearGradient id="paint0_linear_2321_1142" x1="219.448" y1="208.346" x2="0.609473" y2="208.502" gradientUnits="userSpaceOnUse">
<stop stop-color="#BA9C31"/>
<stop offset="1" stop-color="#8914E5"/>
</linearGradient>
</defs>
</svg>
