<svg width="100" height="100" viewBox="0 0 100 100" fill="none" xmlns="http://www.w3.org/2000/svg">
<path d="M0 50C0 8.825 8.825 0 50 0C91.175 0 100 8.825 100 50C100 91.175 91.175 100 50 100C8.825 100 0 91.175 0 50Z" fill="black"/>
<path d="M0 50C0 8.825 8.825 0 50 0C91.175 0 100 8.825 100 50C100 91.175 91.175 100 50 100C8.825 100 0 91.175 0 50Z" fill="black"/>
<path fill-rule="evenodd" clip-rule="evenodd" d="M15.8203 52.2858C15.8203 43.4726 22.7761 36.3281 31.3565 36.3281C33.8359 36.3281 36.8904 37.4179 39.6656 38.6341C42.5739 39.9085 45.6888 41.5615 48.4573 43.0995C49.4207 43.6348 50.5793 43.6348 51.5427 43.0995C54.3112 41.5615 57.4261 39.9085 60.3344 38.6341C63.1096 37.4179 66.1641 36.3281 68.6435 36.3281C77.2239 36.3281 84.1797 43.4726 84.1797 52.2858C84.1797 61.0991 77.2239 68.2435 68.6435 68.2435C66.1641 68.2435 63.1096 67.1538 60.3344 65.9376C57.4261 64.6631 54.3112 63.0102 51.5427 61.4721C50.5793 60.9369 49.4207 60.9369 48.4573 61.4721C45.6888 63.0102 42.5739 64.6631 39.6656 65.9376C36.8904 67.1538 33.8359 68.2435 31.3565 68.2435C22.7761 68.2435 15.8203 61.0991 15.8203 52.2858ZM31.3565 42.7112C26.2083 42.7112 22.0348 46.9979 22.0348 52.2858C22.0348 57.5738 26.2083 61.8605 31.3565 61.8605C32.4425 61.8605 34.4545 61.2815 37.2269 60.0666C39.8662 58.9099 42.7799 57.3693 45.5007 55.8577C48.309 54.2976 51.6911 54.2976 54.4993 55.8577C57.2201 57.3693 60.1338 58.9099 62.7731 60.0666C65.5455 61.2815 67.5575 61.8605 68.6435 61.8605C73.7917 61.8605 77.9652 57.5738 77.9652 52.2858C77.9652 46.9979 73.7917 42.7112 68.6435 42.7112C67.5575 42.7112 65.5455 43.2902 62.7731 44.5051C60.1338 45.6617 57.2201 47.2024 54.4993 48.714C51.691 50.2741 48.3089 50.2741 45.5007 48.714C42.7799 47.2024 39.8662 45.6617 37.2269 44.5051C34.4545 43.2902 32.4425 42.7112 31.3565 42.7112Z" fill="white"/>
</svg>
